<?xml version="1.0" encoding="utf-8"?>
<!-- Generated by IcoMoon.io -->
<!DOCTYPE svg PUBLIC "-//W3C//DTD SVG 1.1//EN" "http://www.w3.org/Graphics/SVG/1.1/DTD/svg11.dtd">
<svg version="1.1" xmlns="http://www.w3.org/2000/svg" xmlns:xlink="http://www.w3.org/1999/xlink" width="24" height="24" viewBox="0 0 24 24">
<path d="M22 5.75l-4.6-3.85-1.3 1.55 4.6 3.85 1.3-1.55zM7.85 3.4l-1.3-1.55-4.55 3.9 1.3 1.55 4.55-3.9zM12.5 8h-1.5v6l4.75 2.85 0.75-1.25-4-2.35v-5.25zM12 4c-5 0-9 4.050-9 9s4 9 9 9c4.95 0 9-4.050 9-9s-4.050-9-9-9zM12 20c-3.85 0-7-3.15-7-7s3.15-7 7-7 7 3.15 7 7c0 3.9-3.15 7-7 7z" fill="#444444"></path>
</svg>
