<?xml version="1.0" encoding="utf-8"?>
<!-- Generated by IcoMoon.io -->
<!DOCTYPE svg PUBLIC "-//W3C//DTD SVG 1.1//EN" "http://www.w3.org/Graphics/SVG/1.1/DTD/svg11.dtd">
<svg version="1.1" xmlns="http://www.w3.org/2000/svg" xmlns:xlink="http://www.w3.org/1999/xlink" width="24" height="24" viewBox="0 0 24 24">
<path d="M5 16c0 3.865 3.135 7 7 7s7-3.135 7-7v-4h-14v4zM16.125 4.37l2.1-2.1-0.825-0.825-2.305 2.305c-0.94-0.465-1.98-0.75-3.095-0.75s-2.155 0.285-3.095 0.75l-2.305-2.305-0.825 0.825 2.1 2.1c-1.735 1.27-2.875 3.31-2.875 5.63v1h14v-1c0-2.32-1.14-4.36-2.875-5.63zM9 9c-0.555 0-1-0.45-1-1s0.445-1 1-1c0.555 0 1 0.45 1 1s-0.445 1-1 1zM15 9c-0.555 0-1-0.45-1-1s0.445-1 1-1c0.555 0 1 0.45 1 1s-0.445 1-1 1z" fill="#444444"></path>
</svg>
