<?xml version="1.0" encoding="utf-8"?>
<!-- Generated by IcoMoon.io -->
<!DOCTYPE svg PUBLIC "-//W3C//DTD SVG 1.1//EN" "http://www.w3.org/Graphics/SVG/1.1/DTD/svg11.dtd">
<svg version="1.1" xmlns="http://www.w3.org/2000/svg" xmlns:xlink="http://www.w3.org/1999/xlink" width="24" height="24" viewBox="0 0 24 24">
<path d="M11 9h2v-3h3v-2h-3v-3h-2v3h-3v2h3v3zM7 18c-1.105 0-1.99 0.895-1.99 2s0.885 2 1.99 2 2-0.895 2-2-0.895-2-2-2zM17 18c-1.105 0-1.99 0.895-1.99 2s0.885 2 1.99 2 2-0.895 2-2-0.895-2-2-2zM7.175 14.75c0-0.045 0.010-0.085 0.030-0.12l0.9-1.63h7.45c0.75 0 1.405-0.415 1.75-1.030l3.86-7.010-1.75-0.96h-0.005l-1.105 2-2.755 5h-7.015l-0.13-0.27-3.195-6.73-0.945-2h-3.265v2h2l3.6 7.585-1.355 2.45c-0.155 0.29-0.245 0.615-0.245 0.965 0 1.105 0.895 2 2 2h12v-2h-11.575c-0.14 0-0.25-0.11-0.25-0.25z" fill="#444444"></path>
</svg>
