<?xml version="1.0" encoding="utf-8"?>
<!-- Generated by IcoMoon.io -->
<!DOCTYPE svg PUBLIC "-//W3C//DTD SVG 1.1//EN" "http://www.w3.org/Graphics/SVG/1.1/DTD/svg11.dtd">
<svg version="1.1" xmlns="http://www.w3.org/2000/svg" xmlns:xlink="http://www.w3.org/1999/xlink" width="24" height="24" viewBox="0 0 24 24">
<path d="M12 6c3.865 0 7 3.135 7 7 0 0.845-0.155 1.65-0.43 2.4l1.52 1.52c0.58-1.185 0.91-2.515 0.91-3.92 0-4.97-4.030-9-9.005-9-1.405 0-2.73 0.33-3.92 0.905l1.525 1.525c0.75-0.275 1.555-0.43 2.4-0.43zM22 5.72l-4.595-3.855-1.285 1.53 4.595 3.855 1.285-1.53zM2.92 2.295l-1.275 1.27 1.33 1.33-1.11 0.93 1.42 1.42 1.11-0.93 0.8 0.8c-1.365 1.58-2.195 3.635-2.195 5.885 0 4.97 4.020 9 8.995 9 2.255 0 4.31-0.835 5.885-2.2l2.2 2.2 1.27-1.275-18.43-18.43zM16.47 18.39c-1.215 1.005-2.77 1.61-4.47 1.61-3.865 0-7-3.135-7-7 0-1.7 0.605-3.255 1.61-4.47l9.86 9.86zM8.015 3.275l-1.42-1.42-0.85 0.715 1.42 1.42 0.85-0.715z" fill="#444444"></path>
</svg>
