<?xml version="1.0" encoding="utf-8"?>
<!-- Generated by IcoMoon.io -->
<!DOCTYPE svg PUBLIC "-//W3C//DTD SVG 1.1//EN" "http://www.w3.org/Graphics/SVG/1.1/DTD/svg11.dtd">
<svg version="1.1" xmlns="http://www.w3.org/2000/svg" xmlns:xlink="http://www.w3.org/1999/xlink" width="24" height="24" viewBox="0 0 24 24">
<path d="M6 18c0 0.55 0.45 1 1 1h1v3.5c0 0.83 0.67 1.5 1.5 1.5s1.5-0.67 1.5-1.5v-3.5h2v3.5c0 0.83 0.67 1.5 1.5 1.5s1.5-0.67 1.5-1.5v-3.5h1c0.55 0 1-0.45 1-1v-10h-12v10zM3.5 8c-0.83 0-1.5 0.67-1.5 1.5v7c0 0.83 0.67 1.5 1.5 1.5s1.5-0.67 1.5-1.5v-7c0-0.83-0.67-1.5-1.5-1.5zM20.5 8c-0.83 0-1.5 0.67-1.5 1.5v7c0 0.83 0.67 1.5 1.5 1.5s1.5-0.67 1.5-1.5v-7c0-0.83-0.67-1.5-1.5-1.5zM15.53 2.16l1.305-1.305c0.195-0.195 0.195-0.51 0-0.705s-0.51-0.195-0.705 0l-1.48 1.475c-0.8-0.395-1.695-0.625-2.65-0.625-0.96 0-1.86 0.23-2.665 0.63l-1.485-1.485c-0.195-0.195-0.51-0.195-0.705 0s-0.195 0.51 0 0.705l1.31 1.31c-1.485 1.095-2.455 2.855-2.455 4.84h12c0-1.99-0.975-3.75-2.47-4.84zM10 5h-1v-1h1v1zM15 5h-1v-1h1v1z" fill="#444444"></path>
</svg>
