<?xml version="1.0" encoding="utf-8"?>
<!-- Generated by IcoMoon.io -->
<!DOCTYPE svg PUBLIC "-//W3C//DTD SVG 1.1//EN" "http://www.w3.org/Graphics/SVG/1.1/DTD/svg11.dtd">
<svg version="1.1" xmlns="http://www.w3.org/2000/svg" xmlns:xlink="http://www.w3.org/1999/xlink" width="24" height="24" viewBox="0 0 24 24">
<path d="M19 3h-4.185c-0.41-1.16-1.51-2-2.815-2s-2.405 0.84-2.815 2h-4.185c-1.105 0-2 0.895-2 2v14c0 1.105 0.895 2 2 2h14c1.105 0 2-0.895 2-2v-14c0-1.105-0.895-2-2-2zM12 3c0.55 0 1 0.445 1 1s-0.45 1-1 1-1-0.445-1-1 0.45-1 1-1zM10 17l-4-4 1.415-1.415 2.585 2.585 6.585-6.585 1.415 1.415-8 8z" fill="#444444"></path>
</svg>
