<?xml version="1.0" encoding="utf-8"?>
<!-- Generated by IcoMoon.io -->
<!DOCTYPE svg PUBLIC "-//W3C//DTD SVG 1.1//EN" "http://www.w3.org/Graphics/SVG/1.1/DTD/svg11.dtd">
<svg version="1.1" xmlns="http://www.w3.org/2000/svg" xmlns:xlink="http://www.w3.org/1999/xlink" width="24" height="24" viewBox="0 0 24 24">
<path d="M7.5 18c-3.040 0-5.5-2.465-5.5-5.5s2.46-5.5 5.5-5.5h10.5c2.21 0 4 1.79 4 4s-1.79 4-4 4h-8.5c-1.38 0-2.5-1.12-2.5-2.5s1.12-2.5 2.5-2.5h7.5v1.5h-7.5c-0.55 0-1 0.445-1 1s0.45 1 1 1h8.5c1.38 0 2.5-1.12 2.5-2.5s-1.12-2.5-2.5-2.5h-10.5c-2.21 0-4 1.79-4 4s1.79 4 4 4h9.5v1.5h-9.5z" fill="#444444"></path>
</svg>
