<?xml version="1.0" encoding="utf-8"?>
<!-- Generated by IcoMoon.io -->
<!DOCTYPE svg PUBLIC "-//W3C//DTD SVG 1.1//EN" "http://www.w3.org/Graphics/SVG/1.1/DTD/svg11.dtd">
<svg version="1.1" xmlns="http://www.w3.org/2000/svg" xmlns:xlink="http://www.w3.org/1999/xlink" width="24" height="24" viewBox="0 0 24 24">
<path d="M12 6v3l4-4-4-4v3c-4.42 0-8 3.58-8 8 0 1.57 0.46 3.025 1.24 4.26l1.46-1.46c-0.445-0.835-0.7-1.785-0.7-2.8 0-3.315 2.685-6 6-6zM18.76 7.74l-1.46 1.46c0.445 0.835 0.7 1.785 0.7 2.8 0 3.315-2.685 6-6 6v-3l-4 4 4 4v-3c4.42 0 8-3.58 8-8 0-1.57-0.46-3.025-1.24-4.26z" fill="#444444"></path>
</svg>
