<?xml version="1.0" encoding="utf-8"?>
<!-- Generated by IcoMoon.io -->
<!DOCTYPE svg PUBLIC "-//W3C//DTD SVG 1.1//EN" "http://www.w3.org/Graphics/SVG/1.1/DTD/svg11.dtd">
<svg version="1.1" xmlns="http://www.w3.org/2000/svg" xmlns:xlink="http://www.w3.org/1999/xlink" width="24" height="24" viewBox="0 0 24 24">
<path d="M15.665 4h-1.665v-2h-4v2h-1.665c-0.74 0-1.335 0.595-1.335 1.335v15.335c0 0.735 0.595 1.335 1.335 1.335h7.335c0.735 0 1.335-0.595 1.335-1.335v-15.335c-0.005-0.74-0.6-1.335-1.34-1.335zM12.95 17.95h-1.9v-1.9h1.9v1.9zM14.3 12.69s-0.38 0.42-0.67 0.71c-0.485 0.485-0.83 1.145-0.83 1.6h-1.6c0-0.83 0.46-1.525 0.93-1.995l0.93-0.945c0.27-0.27 0.44-0.645 0.44-1.060 0-0.83-0.67-1.5-1.5-1.5s-1.5 0.67-1.5 1.5h-1.5c0-1.655 1.345-3 3-3s3 1.345 3 3c0 0.66-0.265 1.26-0.7 1.69z" fill="#444444"></path>
</svg>
