<?xml version="1.0" encoding="utf-8"?>
<!-- Generated by IcoMoon.io -->
<!DOCTYPE svg PUBLIC "-//W3C//DTD SVG 1.1//EN" "http://www.w3.org/Graphics/SVG/1.1/DTD/svg11.dtd">
<svg version="1.1" xmlns="http://www.w3.org/2000/svg" xmlns:xlink="http://www.w3.org/1999/xlink" width="24" height="24" viewBox="0 0 24 24">
<path d="M14.24 12.010l2.32 2.32c0.28-0.725 0.44-1.51 0.44-2.33 0-0.815-0.155-1.595-0.43-2.315l-2.33 2.325zM19.53 6.715l-1.265 1.265c0.625 1.205 0.985 2.57 0.985 4.025s-0.36 2.815-0.985 4.025l1.2 1.2c0.965-1.55 1.535-3.365 1.535-5.315 0-1.91-0.545-3.685-1.47-5.2zM15.705 7.705l-5.705-5.705h-1v7.585l-4.585-4.585-1.415 1.415 5.585 5.585-5.585 5.585 1.415 1.415 4.585-4.585v7.585h1l5.705-5.705-4.29-4.295 4.29-4.295zM11 5.83l1.88 1.88-1.88 1.875v-3.755zM12.88 16.295l-1.88 1.875v-3.76l1.88 1.885z" fill="#444444"></path>
</svg>
