<?xml version="1.0" encoding="utf-8"?>
<!-- Generated by IcoMoon.io -->
<!DOCTYPE svg PUBLIC "-//W3C//DTD SVG 1.1//EN" "http://www.w3.org/Graphics/SVG/1.1/DTD/svg11.dtd">
<svg version="1.1" xmlns="http://www.w3.org/2000/svg" xmlns:xlink="http://www.w3.org/1999/xlink" width="24" height="24" viewBox="0 0 24 24">
<path d="M10 9c-0.55 0-1 0.45-1 1s0.45 1 1 1 1-0.45 1-1-0.45-1-1-1zM10 13c-0.55 0-1 0.45-1 1s0.45 1 1 1 1-0.45 1-1-0.45-1-1-1zM7 9.5c-0.275 0-0.5 0.225-0.5 0.5s0.225 0.5 0.5 0.5 0.5-0.225 0.5-0.5-0.225-0.5-0.5-0.5zM10 16.5c-0.275 0-0.5 0.225-0.5 0.5s0.225 0.5 0.5 0.5 0.5-0.225 0.5-0.5-0.225-0.5-0.5-0.5zM7 13.5c-0.275 0-0.5 0.225-0.5 0.5s0.225 0.5 0.5 0.5 0.5-0.225 0.5-0.5-0.225-0.5-0.5-0.5zM10 7.5c0.275 0 0.5-0.225 0.5-0.5s-0.225-0.5-0.5-0.5-0.5 0.225-0.5 0.5 0.225 0.5 0.5 0.5zM14 9c-0.55 0-1 0.45-1 1s0.45 1 1 1 1-0.45 1-1-0.45-1-1-1zM14 7.5c0.275 0 0.5-0.225 0.5-0.5s-0.225-0.5-0.5-0.5-0.5 0.225-0.5 0.5 0.225 0.5 0.5 0.5zM17 13.5c-0.275 0-0.5 0.225-0.5 0.5s0.225 0.5 0.5 0.5 0.5-0.225 0.5-0.5-0.225-0.5-0.5-0.5zM17 9.5c-0.275 0-0.5 0.225-0.5 0.5s0.225 0.5 0.5 0.5 0.5-0.225 0.5-0.5-0.225-0.5-0.5-0.5zM12 2c-5.525 0-10 4.475-10 10s4.475 10 10 10 10-4.475 10-10-4.475-10-10-10zM12 20c-4.42 0-8-3.58-8-8s3.58-8 8-8 8 3.58 8 8-3.58 8-8 8zM14 16.5c-0.275 0-0.5 0.225-0.5 0.5s0.225 0.5 0.5 0.5 0.5-0.225 0.5-0.5-0.225-0.5-0.5-0.5zM14 13c-0.55 0-1 0.45-1 1s0.45 1 1 1 1-0.45 1-1-0.45-1-1-1z" fill="#444444"></path>
</svg>
