<?xml version="1.0" encoding="utf-8"?>
<!-- Generated by IcoMoon.io -->
<!DOCTYPE svg PUBLIC "-//W3C//DTD SVG 1.1//EN" "http://www.w3.org/Graphics/SVG/1.1/DTD/svg11.dtd">
<svg version="1.1" xmlns="http://www.w3.org/2000/svg" xmlns:xlink="http://www.w3.org/1999/xlink" width="24" height="24" viewBox="0 0 24 24">
<path d="M5 17.5c0.83 0 1.5-0.67 1.5-1.5s-0.67-1.5-1.5-1.5-1.5 0.67-1.5 1.5 0.67 1.5 1.5 1.5zM9 13c0.55 0 1-0.45 1-1s-0.45-1-1-1-1 0.45-1 1 0.45 1 1 1zM9 9c0.55 0 1-0.45 1-1s-0.45-1-1-1-1 0.45-1 1 0.45 1 1 1zM3 21h18v-2h-18v2zM5 9.5c0.83 0 1.5-0.67 1.5-1.5s-0.67-1.5-1.5-1.5-1.5 0.67-1.5 1.5 0.67 1.5 1.5 1.5zM5 13.5c0.83 0 1.5-0.67 1.5-1.5s-0.67-1.5-1.5-1.5-1.5 0.67-1.5 1.5 0.67 1.5 1.5 1.5zM9 17c0.55 0 1-0.45 1-1s-0.45-1-1-1-1 0.45-1 1 0.45 1 1 1zM17 16.5c0.275 0 0.5-0.225 0.5-0.5s-0.225-0.5-0.5-0.5-0.5 0.225-0.5 0.5 0.225 0.5 0.5 0.5zM3 3v2h18v-2h-18zM17 8.5c0.275 0 0.5-0.225 0.5-0.5s-0.225-0.5-0.5-0.5-0.5 0.225-0.5 0.5 0.225 0.5 0.5 0.5zM17 12.5c0.275 0 0.5-0.225 0.5-0.5s-0.225-0.5-0.5-0.5-0.5 0.225-0.5 0.5 0.225 0.5 0.5 0.5zM13 9c0.55 0 1-0.45 1-1s-0.45-1-1-1-1 0.45-1 1 0.45 1 1 1zM13 13c0.55 0 1-0.45 1-1s-0.45-1-1-1-1 0.45-1 1 0.45 1 1 1zM13 17c0.55 0 1-0.45 1-1s-0.45-1-1-1-1 0.45-1 1 0.45 1 1 1z" fill="#444444"></path>
</svg>
