<?xml version="1.0" encoding="utf-8"?>
<!-- Generated by IcoMoon.io -->
<!DOCTYPE svg PUBLIC "-//W3C//DTD SVG 1.1//EN" "http://www.w3.org/Graphics/SVG/1.1/DTD/svg11.dtd">
<svg version="1.1" xmlns="http://www.w3.org/2000/svg" xmlns:xlink="http://www.w3.org/1999/xlink" width="24" height="24" viewBox="0 0 24 24">
<path d="M3 21h2v-2h-2v2zM7 21h2v-2h-2v2zM5 7h-2v2h2v-2zM3 17h2v-2h-2v2zM9 3h-2v2h2v-2zM5 3h-2v2h2v-2zM17 3h-2v2h2v-2zM19 9h2v-2h-2v2zM19 3v2h2v-2h-2zM15 21h2v-2h-2v2zM13 3h-2v8h-8v2h8v8h2v-8h8v-2h-8v-8zM19 21h2v-2h-2v2zM19 17h2v-2h-2v2z" fill="#444444"></path>
</svg>
