<?xml version="1.0" encoding="utf-8"?>
<!-- Generated by IcoMoon.io -->
<!DOCTYPE svg PUBLIC "-//W3C//DTD SVG 1.1//EN" "http://www.w3.org/Graphics/SVG/1.1/DTD/svg11.dtd">
<svg version="1.1" xmlns="http://www.w3.org/2000/svg" xmlns:xlink="http://www.w3.org/1999/xlink" width="24" height="24" viewBox="0 0 24 24">
<path d="M12 7v-4h-10v18h20v-14h-10zM6 19h-2v-2h2v2zM6 15h-2v-2h2v2zM6 11h-2v-2h2v2zM6 7h-2v-2h2v2zM10 19h-2v-2h2v2zM10 15h-2v-2h2v2zM10 11h-2v-2h2v2zM10 7h-2v-2h2v2zM20 19h-8v-2h2v-2h-2v-2h2v-2h-2v-2h8v10zM18 11h-2v2h2v-2zM18 15h-2v2h2v-2z" fill="#444444"></path>
</svg>
