<?xml version="1.0" encoding="utf-8"?>
<!-- Generated by IcoMoon.io -->
<!DOCTYPE svg PUBLIC "-//W3C//DTD SVG 1.1//EN" "http://www.w3.org/Graphics/SVG/1.1/DTD/svg11.dtd">
<svg version="1.1" xmlns="http://www.w3.org/2000/svg" xmlns:xlink="http://www.w3.org/1999/xlink" width="24" height="24" viewBox="0 0 24 24">
<path d="M12 7c1.105 0 2-0.895 2-2 0-0.375-0.105-0.73-0.285-1.030l-1.715-2.97-1.715 2.97c-0.18 0.3-0.285 0.655-0.285 1.030 0 1.105 0.895 2 2 2zM21 21v-4c0-1.105-0.895-2-2-2h-1v-3c0-1.105-0.895-2-2-2h-3v-2h-2v2h-3c-1.105 0-2 0.895-2 2v3h-1c-1.105 0-2 0.895-2 2v4h-2v2h22v-2h-2z" fill="#444444"></path>
</svg>
