<?xml version="1.0" encoding="utf-8"?>
<!-- Generated by IcoMoon.io -->
<!DOCTYPE svg PUBLIC "-//W3C//DTD SVG 1.1//EN" "http://www.w3.org/Graphics/SVG/1.1/DTD/svg11.dtd">
<svg version="1.1" xmlns="http://www.w3.org/2000/svg" xmlns:xlink="http://www.w3.org/1999/xlink" width="24" height="24" viewBox="0 0 24 24">
<path d="M12 9c-1.605 0-3.15 0.25-4.6 0.72v3.105c0 0.395-0.23 0.735-0.56 0.9-0.975 0.49-1.87 1.115-2.665 1.85-0.18 0.175-0.425 0.285-0.7 0.285s-0.525-0.11-0.705-0.295l-2.475-2.475c-0.185-0.185-0.295-0.435-0.295-0.71s0.11-0.525 0.295-0.71c3.045-2.895 7.17-4.67 11.705-4.67s8.66 1.775 11.705 4.67c0.185 0.18 0.295 0.435 0.295 0.71s-0.11 0.525-0.295 0.705l-2.475 2.475c-0.18 0.18-0.43 0.295-0.705 0.295-0.27 0-0.52-0.11-0.7-0.285-0.795-0.735-1.69-1.36-2.665-1.85-0.33-0.165-0.56-0.505-0.56-0.9v-3.105c-1.45-0.465-2.995-0.715-4.6-0.715z" fill="#444444"></path>
</svg>
