<?xml version="1.0" encoding="utf-8"?>
<!-- Generated by IcoMoon.io -->
<!DOCTYPE svg PUBLIC "-//W3C//DTD SVG 1.1//EN" "http://www.w3.org/Graphics/SVG/1.1/DTD/svg11.dtd">
<svg version="1.1" xmlns="http://www.w3.org/2000/svg" xmlns:xlink="http://www.w3.org/1999/xlink" width="24" height="24" viewBox="0 0 24 24">
<path d="M15.2 12c0 1.767-1.433 3.2-3.2 3.2s-3.2-1.433-3.2-3.2c0-1.767 1.433-3.2 3.2-3.2s3.2 1.433 3.2 3.2z" fill="#444444"></path>
<path d="M9 2l-1.83 2h-3.17c-1.105 0-2 0.895-2 2v12c0 1.105 0.895 2 2 2h16c1.105 0 2-0.895 2-2v-12c0-1.105-0.895-2-2-2h-3.17l-1.83-2h-6zM12 17c-2.76 0-5-2.24-5-5s2.24-5 5-5 5 2.24 5 5-2.24 5-5 5z" fill="#444444"></path>
</svg>
