<?xml version="1.0" encoding="utf-8"?>
<!-- Generated by IcoMoon.io -->
<!DOCTYPE svg PUBLIC "-//W3C//DTD SVG 1.1//EN" "http://www.w3.org/Graphics/SVG/1.1/DTD/svg11.dtd">
<svg version="1.1" xmlns="http://www.w3.org/2000/svg" xmlns:xlink="http://www.w3.org/1999/xlink" width="24" height="24" viewBox="0 0 24 24">
<path d="M14 5c0-1.105-0.895-2-2-2h-1v-1c0-0.55-0.45-1-1-1h-4c-0.55 0-1 0.45-1 1v1h-1c-1.105 0-2 0.895-2 2v15c0 1.105 0.895 2 2 2h8c1.105 0 2-0.895 2-2h8v-15h-8zM12 18h-2v-2h2v2zM12 9h-2v-2h2v2zM16 18h-2v-2h2v2zM16 9h-2v-2h2v2zM20 18h-2v-2h2v2zM20 9h-2v-2h2v2z" fill="#444444"></path>
</svg>
