<?xml version="1.0" encoding="utf-8"?>
<!-- Generated by IcoMoon.io -->
<!DOCTYPE svg PUBLIC "-//W3C//DTD SVG 1.1//EN" "http://www.w3.org/Graphics/SVG/1.1/DTD/svg11.dtd">
<svg version="1.1" xmlns="http://www.w3.org/2000/svg" xmlns:xlink="http://www.w3.org/1999/xlink" width="24" height="24" viewBox="0 0 24 24">
<path d="M9.4 10.5l4.765-8.255c-0.695-0.155-1.42-0.245-2.165-0.245-2.4 0-4.595 0.845-6.32 2.255l3.665 6.345 0.055-0.1zM21.54 9c-0.92-2.925-3.15-5.26-5.995-6.34l-3.66 6.34h9.655zM21.8 10h-7.49l0.29 0.5 4.765 8.25c1.63-1.78 2.635-4.145 2.635-6.75 0-0.685-0.070-1.355-0.2-2zM8.535 12l-3.9-6.75c-1.63 1.78-2.635 4.145-2.635 6.75 0 0.685 0.070 1.355 0.2 2h7.49l-1.155-2zM2.46 15c0.92 2.925 3.15 5.26 5.995 6.34l3.66-6.34h-9.655zM13.73 15l-3.9 6.755c0.7 0.155 1.425 0.245 2.17 0.245 2.4 0 4.595-0.845 6.32-2.255l-3.665-6.345-0.925 1.6z" fill="#444444"></path>
</svg>
