<?xml version="1.0" encoding="utf-8"?>
<!-- Generated by IcoMoon.io -->
<!DOCTYPE svg PUBLIC "-//W3C//DTD SVG 1.1//EN" "http://www.w3.org/Graphics/SVG/1.1/DTD/svg11.dtd">
<svg version="1.1" xmlns="http://www.w3.org/2000/svg" xmlns:xlink="http://www.w3.org/1999/xlink" width="24" height="24" viewBox="0 0 24 24">
<path d="M10 20h-5v2h5v2l3-3-3-3v2zM14 20v2h5v-2h-5zM12 8c1.105 0 2-0.895 2-2s-0.895-2-2-2-1.995 0.895-1.995 2c0.005 1.105 0.89 2 1.995 2zM17 0h-10c-1.105 0-2 0.895-2 2v14c0 1.105 0.895 2 2 2h10c1.105 0 2-0.895 2-2v-14c0-1.105-0.895-2-2-2zM7 2h10v10.5c0-1.665-3.335-2.5-5-2.5s-5 0.835-5 2.5v-10.5z" fill="#444444"></path>
</svg>
