<?xml version="1.0" encoding="utf-8"?>
<!-- Generated by IcoMoon.io -->
<!DOCTYPE svg PUBLIC "-//W3C//DTD SVG 1.1//EN" "http://www.w3.org/Graphics/SVG/1.1/DTD/svg11.dtd">
<svg version="1.1" xmlns="http://www.w3.org/2000/svg" xmlns:xlink="http://www.w3.org/1999/xlink" width="24" height="24" viewBox="0 0 24 24">
<path d="M1 18v3h3c0-1.655-1.345-3-3-3zM1 14v2c2.76 0 5 2.24 5 5h2c0-3.865-3.135-7-7-7zM19 7h-14v1.635c3.96 1.28 7.085 4.405 8.365 8.365h5.635v-10zM1 10v2c4.97 0 9 4.030 9 9h2c0-6.075-4.925-11-11-11zM21 3h-18c-1.105 0-2 0.895-2 2v3h2v-3h18v14h-7v2h7c1.105 0 2-0.895 2-2v-14c0-1.105-0.895-2-2-2z" fill="#444444"></path>
</svg>
