<?xml version="1.0" encoding="utf-8"?>
<!-- Generated by IcoMoon.io -->
<!DOCTYPE svg PUBLIC "-//W3C//DTD SVG 1.1//EN" "http://www.w3.org/Graphics/SVG/1.1/DTD/svg11.dtd">
<svg version="1.1" xmlns="http://www.w3.org/2000/svg" xmlns:xlink="http://www.w3.org/1999/xlink" width="24" height="24" viewBox="0 0 24 24">
<path d="M19 4h-14c-1.105 0-2 0.895-2 2v12c0 1.105 0.895 2 2 2h14c1.105 0 2-0.895 2-2v-12c0-1.105-0.895-2-2-2zM11 11h-1.5v-0.5h-2v3h2v-0.5h1.5v1c0 0.55-0.445 1-1 1h-3c-0.555 0-1-0.45-1-1v-4c0-0.55 0.445-1 1-1h3c0.555 0 1 0.45 1 1v1zM18 11h-1.5v-0.5h-2v3h2v-0.5h1.5v1c0 0.55-0.445 1-1 1h-3c-0.555 0-1-0.45-1-1v-4c0-0.55 0.445-1 1-1h3c0.555 0 1 0.45 1 1v1z" fill="#444444"></path>
</svg>
