<?xml version="1.0" encoding="utf-8"?>
<!-- Generated by IcoMoon.io -->
<!DOCTYPE svg PUBLIC "-//W3C//DTD SVG 1.1//EN" "http://www.w3.org/Graphics/SVG/1.1/DTD/svg11.dtd">
<svg version="1.1" xmlns="http://www.w3.org/2000/svg" xmlns:xlink="http://www.w3.org/1999/xlink" width="24" height="24" viewBox="0 0 24 24">
<path d="M19.355 10.035c-0.68-3.44-3.715-6.035-7.355-6.035-2.89 0-5.395 1.64-6.65 4.035-3.005 0.325-5.35 2.87-5.35 5.965 0 3.315 2.685 6 6 6h13c2.76 0 5-2.24 5-5 0-2.64-2.055-4.78-4.645-4.965zM19 18h-13c-2.21 0-4-1.79-4-4s1.79-4 4-4h0.71c0.655-2.305 2.77-4 5.29-4 3.040 0 5.5 2.46 5.5 5.5v0.5h1.5c1.655 0 3 1.345 3 3s-1.345 3-3 3z" fill="#444444"></path>
</svg>
