<?xml version="1.0" encoding="utf-8"?>
<!-- Generated by IcoMoon.io -->
<!DOCTYPE svg PUBLIC "-//W3C//DTD SVG 1.1//EN" "http://www.w3.org/Graphics/SVG/1.1/DTD/svg11.dtd">
<svg version="1.1" xmlns="http://www.w3.org/2000/svg" xmlns:xlink="http://www.w3.org/1999/xlink" width="24" height="24" viewBox="0 0 24 24">
<path d="M12 2c-5.525 0-10 4.475-10 10s4.475 10 10 10 10-4.475 10-10-4.475-10-10-10zM16.5 16h-8.5c-1.655 0-3-1.345-3-3s1.345-3 3-3l0.135 0.015c0.445-1.73 2-3.015 3.865-3.015 2.21 0 4 1.79 4 4h0.5c1.38 0 2.5 1.12 2.5 2.5s-1.12 2.5-2.5 2.5z" fill="#444444"></path>
</svg>
