<?xml version="1.0" encoding="utf-8"?>
<!-- Generated by IcoMoon.io -->
<!DOCTYPE svg PUBLIC "-//W3C//DTD SVG 1.1//EN" "http://www.w3.org/Graphics/SVG/1.1/DTD/svg11.dtd">
<svg version="1.1" xmlns="http://www.w3.org/2000/svg" xmlns:xlink="http://www.w3.org/1999/xlink" width="24" height="24" viewBox="0 0 24 24">
<path d="M19.355 10.035c-0.68-3.44-3.715-6.035-7.355-6.035-1.475 0-2.85 0.435-4.010 1.17l1.46 1.46c0.765-0.395 1.63-0.63 2.55-0.63 3.040 0 5.5 2.46 5.5 5.5v0.5h1.5c1.655 0 3 1.345 3 3 0 1.135-0.635 2.11-1.565 2.62l1.45 1.45c1.275-0.905 2.115-2.385 2.115-4.070 0-2.64-2.055-4.78-4.645-4.965zM3 5.275l2.75 2.74c-3.19 0.135-5.75 2.76-5.75 5.985 0 3.315 2.685 6 6 6h11.725l2 2 1.275-1.27-16.725-16.73-1.275 1.275zM7.725 10l8 8h-9.725c-2.21 0-4-1.79-4-4s1.79-4 4-4h1.725z" fill="#444444"></path>
</svg>
