<?xml version="1.0" encoding="utf-8"?>
<!-- Generated by IcoMoon.io -->
<!DOCTYPE svg PUBLIC "-//W3C//DTD SVG 1.1//EN" "http://www.w3.org/Graphics/SVG/1.1/DTD/svg11.dtd">
<svg version="1.1" xmlns="http://www.w3.org/2000/svg" xmlns:xlink="http://www.w3.org/1999/xlink" width="24" height="24" viewBox="0 0 24 24">
<path d="M20 0h-16v2h16v-2zM4 24h16v-2h-16v2zM20 4h-16c-1.105 0-2 0.895-2 2v12c0 1.105 0.895 2 2 2h16c1.105 0 2-0.895 2-2v-12c0-1.105-0.895-2-2-2zM12 6.75c1.24 0 2.25 1.010 2.25 2.25 0 1.245-1.010 2.25-2.25 2.25s-2.25-1.005-2.25-2.25c0-1.24 1.010-2.25 2.25-2.25zM17 17h-10v-1.5c0-1.665 3.335-2.5 5-2.5s5 0.835 5 2.5v1.5z" fill="#444444"></path>
</svg>
