<?xml version="1.0" encoding="utf-8"?>
<!-- Generated by IcoMoon.io -->
<!DOCTYPE svg PUBLIC "-//W3C//DTD SVG 1.1//EN" "http://www.w3.org/Graphics/SVG/1.1/DTD/svg11.dtd">
<svg version="1.1" xmlns="http://www.w3.org/2000/svg" xmlns:xlink="http://www.w3.org/1999/xlink" width="24" height="24" viewBox="0 0 24 24">
<path d="M9.64 7.64c0.225-0.5 0.36-1.055 0.36-1.64 0-2.21-1.79-4-4-4s-4 1.79-4 4 1.79 4 4 4c0.585 0 1.14-0.135 1.64-0.36l2.36 2.36-2.36 2.36c-0.5-0.225-1.055-0.36-1.64-0.36-2.21 0-4 1.79-4 4s1.79 4 4 4 4-1.79 4-4c0-0.585-0.135-1.14-0.36-1.64l2.36-2.36 7 7h3v-1l-12.36-12.36zM6 8c-1.105 0-2-0.895-2-2s0.895-2 2-2 2 0.895 2 2-0.895 2-2 2zM6 20c-1.105 0-2-0.895-2-2s0.895-2 2-2 2 0.895 2 2-0.895 2-2 2zM12 12.5c-0.275 0-0.5-0.225-0.5-0.5s0.225-0.5 0.5-0.5 0.5 0.225 0.5 0.5-0.225 0.5-0.5 0.5zM19 3l-6 6 2 2 7-7v-1z" fill="#444444"></path>
</svg>
