<?xml version="1.0" encoding="utf-8"?>
<!-- Generated by IcoMoon.io -->
<!DOCTYPE svg PUBLIC "-//W3C//DTD SVG 1.1//EN" "http://www.w3.org/Graphics/SVG/1.1/DTD/svg11.dtd">
<svg version="1.1" xmlns="http://www.w3.org/2000/svg" xmlns:xlink="http://www.w3.org/1999/xlink" width="24" height="24" viewBox="0 0 24 24">
<path d="M16 8h-2v3h-3v2h3v3h2v-3h3v-2h-3zM2 12c0-2.79 1.645-5.195 4.010-6.32v-2.155c-3.495 1.23-6.010 4.56-6.010 8.475s2.515 7.245 6.010 8.475v-2.155c-2.365-1.125-4.010-3.53-4.010-6.32zM15 3c-4.965 0-9 4.035-9 9s4.035 9 9 9 9-4.035 9-9-4.035-9-9-9zM15 19c-3.86 0-7-3.14-7-7s3.14-7 7-7 7 3.14 7 7-3.14 7-7 7z" fill="#444444"></path>
</svg>
