<?xml version="1.0" encoding="utf-8"?>
<!-- Generated by IcoMoon.io -->
<!DOCTYPE svg PUBLIC "-//W3C//DTD SVG 1.1//EN" "http://www.w3.org/Graphics/SVG/1.1/DTD/svg11.dtd">
<svg version="1.1" xmlns="http://www.w3.org/2000/svg" xmlns:xlink="http://www.w3.org/1999/xlink" width="24" height="24" viewBox="0 0 24 24">
<path d="M7.515 21.485c-3.265-1.55-5.61-4.725-5.965-8.485h-1.5c0.51 6.16 5.66 11 11.95 11 0.225 0 0.44-0.020 0.66-0.035l-3.81-3.815-1.335 1.335zM8.405 14.96c-0.19 0-0.365-0.025-0.525-0.085-0.155-0.055-0.29-0.135-0.4-0.235s-0.195-0.225-0.255-0.365c-0.060-0.145-0.090-0.3-0.090-0.47h-1.3c0 0.36 0.070 0.675 0.21 0.95s0.325 0.505 0.56 0.685c0.235 0.185 0.505 0.32 0.815 0.415 0.31 0.1 0.63 0.145 0.97 0.145 0.37 0 0.715-0.050 1.035-0.15s0.595-0.25 0.83-0.445 0.415-0.435 0.55-0.72c0.13-0.285 0.2-0.61 0.2-0.975 0-0.195-0.025-0.38-0.070-0.56-0.050-0.18-0.125-0.35-0.225-0.51-0.105-0.16-0.24-0.3-0.405-0.43-0.165-0.125-0.37-0.23-0.605-0.315 0.2-0.090 0.375-0.2 0.525-0.33s0.275-0.27 0.375-0.415c0.1-0.15 0.175-0.3 0.225-0.46s0.075-0.32 0.075-0.475c0-0.365-0.060-0.685-0.18-0.96s-0.29-0.505-0.51-0.69c-0.22-0.185-0.48-0.325-0.79-0.42-0.32-0.1-0.66-0.145-1.030-0.145-0.36 0-0.695 0.055-1 0.16s-0.565 0.255-0.785 0.445c-0.22 0.19-0.39 0.415-0.515 0.675s-0.185 0.545-0.185 0.85h1.3c0-0.17 0.030-0.32 0.090-0.45 0.060-0.135 0.145-0.25 0.25-0.34 0.105-0.095 0.235-0.17 0.38-0.22s0.305-0.080 0.475-0.080c0.4 0 0.695 0.105 0.89 0.31s0.29 0.495 0.29 0.865c0 0.18-0.025 0.34-0.080 0.485s-0.135 0.27-0.245 0.375c-0.11 0.105-0.25 0.185-0.41 0.245-0.165 0.060-0.36 0.090-0.58 0.090h-0.77v1.025h0.77c0.22 0 0.42 0.025 0.595 0.075s0.325 0.125 0.45 0.235c0.125 0.105 0.22 0.24 0.29 0.4 0.065 0.16 0.1 0.35 0.1 0.57 0 0.405-0.115 0.715-0.35 0.93-0.225 0.21-0.54 0.315-0.945 0.315zM16.965 9.035c-0.315-0.33-0.695-0.585-1.135-0.765-0.445-0.18-0.93-0.27-1.465-0.27h-2.365v8h2.295c0.555 0 1.055-0.090 1.51-0.27s0.84-0.435 1.16-0.765c0.32-0.33 0.57-0.73 0.74-1.195 0.175-0.465 0.26-0.99 0.26-1.57v-0.395c0-0.58-0.090-1.1-0.265-1.57s-0.42-0.87-0.735-1.2zM16.57 12.205c0 0.415-0.045 0.795-0.145 1.125-0.095 0.335-0.235 0.615-0.425 0.845s-0.425 0.405-0.71 0.53c-0.285 0.12-0.615 0.185-0.995 0.185h-0.905v-5.77h0.975c0.72 0 1.265 0.23 1.645 0.685 0.375 0.46 0.565 1.12 0.565 1.99v0.41zM12 0c-0.225 0-0.44 0.020-0.66 0.035l3.81 3.815 1.33-1.33c3.27 1.545 5.615 4.72 5.97 8.48h1.5c-0.51-6.16-5.66-11-11.95-11z" fill="#444444"></path>
</svg>
