<?xml version="1.0" encoding="utf-8"?>
<!-- Generated by IcoMoon.io -->
<!DOCTYPE svg PUBLIC "-//W3C//DTD SVG 1.1//EN" "http://www.w3.org/Graphics/SVG/1.1/DTD/svg11.dtd">
<svg version="1.1" xmlns="http://www.w3.org/2000/svg" xmlns:xlink="http://www.w3.org/1999/xlink" width="24" height="24" viewBox="0 0 24 24">
<path d="M13 2.050v3.030c3.39 0.485 6 3.395 6 6.92 0 0.895-0.175 1.75-0.48 2.535l2.6 1.535c0.555-1.245 0.88-2.615 0.88-4.070 0-5.185-3.945-9.445-9-9.95zM12 19c-3.865 0-7-3.135-7-7 0-3.525 2.61-6.435 6-6.92v-3.030c-5.060 0.5-9 4.765-9 9.95 0 5.525 4.47 10 9.995 10 3.31 0 6.235-1.615 8.055-4.090l-2.595-1.53c-1.28 1.595-3.245 2.62-5.455 2.62z" fill="#444444"></path>
</svg>
