<?xml version="1.0" encoding="utf-8"?>
<!-- Generated by IcoMoon.io -->
<!DOCTYPE svg PUBLIC "-//W3C//DTD SVG 1.1//EN" "http://www.w3.org/Graphics/SVG/1.1/DTD/svg11.dtd">
<svg version="1.1" xmlns="http://www.w3.org/2000/svg" xmlns:xlink="http://www.w3.org/1999/xlink" width="24" height="24" viewBox="0 0 24 24">
<path d="M7 5.085h10v2h2v-4c0-1.105-0.895-1.99-2-1.99l-10-0.010c-1.105 0-2 0.895-2 2v4h2v-2zM15.415 16.67l4.585-4.585-4.585-4.585-1.415 1.415 3.17 3.17-3.17 3.175 1.415 1.41zM10 15.26l-3.17-3.17 3.17-3.175-1.415-1.415-4.585 4.585 4.585 4.585 1.415-1.41zM17 19.085h-10v-2h-2v4c0 1.105 0.895 2 2 2h10c1.105 0 2-0.895 2-2v-4h-2v2z" fill="#444444"></path>
</svg>
