<?xml version="1.0" encoding="utf-8"?>
<!-- Generated by IcoMoon.io -->
<!DOCTYPE svg PUBLIC "-//W3C//DTD SVG 1.1//EN" "http://www.w3.org/Graphics/SVG/1.1/DTD/svg11.dtd">
<svg version="1.1" xmlns="http://www.w3.org/2000/svg" xmlns:xlink="http://www.w3.org/1999/xlink" width="24" height="24" viewBox="0 0 24 24">
<path d="M12 2c-4.42 0-8 0.5-8 4v9.5c0 1.935 1.57 3.5 3.5 3.5l-1.5 1.5v0.5h12v-0.5l-1.5-1.5c1.935 0 3.5-1.565 3.5-3.5v-9.5c0-3.5-3.58-4-8-4zM7.5 17c-0.83 0-1.5-0.67-1.5-1.5s0.67-1.5 1.5-1.5 1.5 0.67 1.5 1.5-0.67 1.5-1.5 1.5zM11 11h-5v-5h5v5zM16.5 17c-0.83 0-1.5-0.67-1.5-1.5s0.67-1.5 1.5-1.5 1.5 0.67 1.5 1.5-0.67 1.5-1.5 1.5zM18 11h-5v-5h5v5z" fill="#444444"></path>
</svg>
