<?xml version="1.0" encoding="utf-8"?>
<!-- Generated by IcoMoon.io -->
<!DOCTYPE svg PUBLIC "-//W3C//DTD SVG 1.1//EN" "http://www.w3.org/Graphics/SVG/1.1/DTD/svg11.dtd">
<svg version="1.1" xmlns="http://www.w3.org/2000/svg" xmlns:xlink="http://www.w3.org/1999/xlink" width="24" height="24" viewBox="0 0 24 24">
<path d="M20 21c-1.39 0-2.78-0.47-4-1.325-2.44 1.71-5.56 1.71-8 0-1.22 0.855-2.61 1.325-4 1.325h-2v2h2c1.375 0 2.74-0.345 4-0.995 2.52 1.295 5.48 1.295 8 0 1.26 0.645 2.625 0.995 4 0.995h2v-2h-2zM3.945 19h0.055c1.6 0 3.025-0.88 4-2 0.975 1.12 2.4 2 4 2s3.025-0.88 4-2c0.98 1.12 2.395 2 4 2h0.055l1.895-6.685c0.085-0.255 0.060-0.535-0.060-0.775-0.125-0.24-0.34-0.42-0.6-0.495l-1.29-0.425v-4.62c0-1.105-0.895-2-2-2h-3v-3h-6v3h-3c-1.105 0-2 0.895-2 2v4.62l-1.285 0.42c-0.26 0.080-0.475 0.255-0.6 0.495s-0.145 0.52-0.060 0.775l1.89 6.69zM6 6h12v3.965l-6-1.965-6 1.965v-3.965z" fill="#444444"></path>
</svg>
