<?xml version="1.0" encoding="utf-8"?>
<!-- Generated by IcoMoon.io -->
<!DOCTYPE svg PUBLIC "-//W3C//DTD SVG 1.1//EN" "http://www.w3.org/Graphics/SVG/1.1/DTD/svg11.dtd">
<svg version="1.1" xmlns="http://www.w3.org/2000/svg" xmlns:xlink="http://www.w3.org/1999/xlink" width="24" height="24" viewBox="0 0 24 24">
<path d="M16 4.8c0.99 0 1.8-0.805 1.8-1.8s-0.81-1.8-1.8-1.8c-0.995 0-1.8 0.805-1.8 1.8s0.805 1.8 1.8 1.8zM19 12c-2.76 0-5 2.24-5 5s2.24 5 5 5 5-2.24 5-5-2.24-5-5-5zM19 20.5c-1.935 0-3.5-1.565-3.5-3.5s1.565-3.5 3.5-3.5 3.5 1.565 3.5 3.5-1.565 3.5-3.5 3.5zM14.8 10h4.2v-1.8h-3.2l-1.935-3.265c-0.295-0.5-0.84-0.835-1.465-0.835-0.47 0-0.895 0.19-1.2 0.5l-3.7 3.695c-0.31 0.31-0.5 0.735-0.5 1.205 0 0.63 0.335 1.16 0.85 1.47l3.35 2.030v5h1.8v-6.48l-2.25-1.67 2.32-2.33 1.73 2.48zM5 12c-2.76 0-5 2.24-5 5s2.24 5 5 5 5-2.24 5-5-2.24-5-5-5zM5 20.5c-1.935 0-3.5-1.565-3.5-3.5s1.565-3.5 3.5-3.5 3.5 1.565 3.5 3.5-1.565 3.5-3.5 3.5z" fill="#444444"></path>
</svg>
