<?xml version="1.0" encoding="utf-8"?>
<!-- Generated by IcoMoon.io -->
<!DOCTYPE svg PUBLIC "-//W3C//DTD SVG 1.1//EN" "http://www.w3.org/Graphics/SVG/1.1/DTD/svg11.dtd">
<svg version="1.1" xmlns="http://www.w3.org/2000/svg" xmlns:xlink="http://www.w3.org/1999/xlink" width="24" height="24" viewBox="0 0 24 24">
<path d="M14 3.8c0.99 0 1.8-0.805 1.8-1.8s-0.81-1.8-1.8-1.8c-0.995 0-1.8 0.805-1.8 1.8s0.805 1.8 1.8 1.8zM14.12 10h4.88v-1.8h-3.625l-2-3.33c-0.295-0.5-0.84-0.83-1.46-0.83-0.17 0-0.335 0.025-0.49 0.070l-5.425 1.69v5.2h1.8v-3.665l2.105-0.655-3.905 15.32h1.8l2.87-8.11 2.33 3.11v5h1.8v-6.405l-2.49-4.54 0.735-2.87 1.075 1.815z" fill="#444444"></path>
</svg>
