<?xml version="1.0" encoding="utf-8"?>
<!-- Generated by IcoMoon.io -->
<!DOCTYPE svg PUBLIC "-//W3C//DTD SVG 1.1//EN" "http://www.w3.org/Graphics/SVG/1.1/DTD/svg11.dtd">
<svg version="1.1" xmlns="http://www.w3.org/2000/svg" xmlns:xlink="http://www.w3.org/1999/xlink" width="24" height="24" viewBox="0 0 24 24">
<path d="M4 15.5c0 1.935 1.57 3.5 3.5 3.5l-1.5 1.5v0.5h12v-0.5l-1.5-1.5c1.935 0 3.5-1.565 3.5-3.5v-10.5c0-3.5-3.58-4-8-4s-8 0.5-8 4v10.5zM12 17c-1.105 0-2-0.895-2-2s0.895-2 2-2 2 0.895 2 2-0.895 2-2 2zM18 10h-12v-5h12v5z" fill="#444444"></path>
</svg>
