<?xml version="1.0" encoding="utf-8"?>
<!-- Generated by IcoMoon.io -->
<!DOCTYPE svg PUBLIC "-//W3C//DTD SVG 1.1//EN" "http://www.w3.org/Graphics/SVG/1.1/DTD/svg11.dtd">
<svg version="1.1" xmlns="http://www.w3.org/2000/svg" xmlns:xlink="http://www.w3.org/1999/xlink" width="24" height="24" viewBox="0 0 24 24">
<path d="M4 16c0 0.885 0.39 1.67 1 2.22v1.78c0 0.55 0.45 1 1 1h1c0.555 0 1-0.45 1-1v-1h8v1c0 0.55 0.445 1 1 1h1c0.55 0 1-0.45 1-1v-1.78c0.61-0.55 1-1.335 1-2.22v-10c0-3.5-3.58-4-8-4s-8 0.5-8 4v10zM7.5 17c-0.83 0-1.5-0.67-1.5-1.5s0.67-1.5 1.5-1.5 1.5 0.67 1.5 1.5-0.67 1.5-1.5 1.5zM16.5 17c-0.83 0-1.5-0.67-1.5-1.5s0.67-1.5 1.5-1.5 1.5 0.67 1.5 1.5-0.67 1.5-1.5 1.5zM18 11h-12v-5h12v5z" fill="#444444"></path>
</svg>
