<?xml version="1.0" encoding="utf-8"?>
<!-- Generated by IcoMoon.io -->
<!DOCTYPE svg PUBLIC "-//W3C//DTD SVG 1.1//EN" "http://www.w3.org/Graphics/SVG/1.1/DTD/svg11.dtd">
<svg version="1.1" xmlns="http://www.w3.org/2000/svg" xmlns:xlink="http://www.w3.org/1999/xlink" width="24" height="24" viewBox="0 0 24 24">
<path d="M16.045 16.29l2.865-3.065c0.375-0.395 0.72-0.785 1.040-1.175 0.315-0.39 0.59-0.78 0.82-1.165 0.23-0.39 0.41-0.775 0.535-1.165 0.13-0.39 0.195-0.785 0.195-1.185 0-0.535-0.090-1.020-0.27-1.46-0.18-0.435-0.44-0.81-0.785-1.115s-0.765-0.54-1.265-0.71c-0.5-0.165-1.070-0.25-1.71-0.25-0.69 0-1.31 0.105-1.85 0.32s-0.995 0.505-1.365 0.875-0.65 0.805-0.84 1.3c-0.18 0.47-0.27 0.975-0.28 1.505h2.14c0.005-0.31 0.045-0.605 0.13-0.87 0.090-0.29 0.225-0.54 0.405-0.75s0.405-0.37 0.675-0.49c0.275-0.115 0.595-0.175 0.965-0.175 0.305 0 0.575 0.050 0.81 0.155s0.435 0.245 0.595 0.425c0.16 0.18 0.285 0.4 0.37 0.645 0.085 0.25 0.125 0.52 0.125 0.815 0 0.215-0.030 0.435-0.085 0.65s-0.15 0.45-0.29 0.7c-0.14 0.25-0.325 0.525-0.555 0.83-0.23 0.3-0.525 0.645-0.875 1.035l-4.175 4.555v1.475h8.63v-1.71h-5.955zM8 7h-2v4h-4v2h4v4h2v-4h4v-2h-4v-4z" fill="#444444"></path>
</svg>
