<?xml version="1.0" encoding="utf-8"?>
<!-- Generated by IcoMoon.io -->
<!DOCTYPE svg PUBLIC "-//W3C//DTD SVG 1.1//EN" "http://www.w3.org/Graphics/SVG/1.1/DTD/svg11.dtd">
<svg version="1.1" xmlns="http://www.w3.org/2000/svg" xmlns:xlink="http://www.w3.org/1999/xlink" width="24" height="24" viewBox="0 0 24 24">
<path d="M16.14 12.5c0 1-0.1 1.85-0.295 2.55s-0.475 1.265-0.835 1.705c-0.36 0.435-0.795 0.755-1.3 0.95s-1.070 0.295-1.695 0.295c-0.62 0-1.185-0.1-1.695-0.295s-0.945-0.515-1.31-0.95c-0.365-0.435-0.65-1.005-0.845-1.705-0.2-0.7-0.3-1.55-0.3-2.55v-2.040c0-1 0.1-1.85 0.295-2.545s0.475-1.26 0.84-1.69c0.36-0.43 0.795-0.745 1.305-0.935s1.075-0.285 1.695-0.285c0.625 0 1.195 0.095 1.705 0.285s0.945 0.505 1.31 0.935c0.36 0.43 0.64 0.995 0.84 1.69 0.195 0.695 0.295 1.545 0.295 2.545v2.040zM14.030 10.135c0-0.645-0.045-1.185-0.135-1.62s-0.22-0.79-0.395-1.060c-0.175-0.27-0.385-0.465-0.64-0.58-0.25-0.12-0.54-0.18-0.865-0.18s-0.615 0.060-0.865 0.18c-0.255 0.12-0.465 0.315-0.64 0.58-0.175 0.27-0.305 0.625-0.395 1.060s-0.135 0.98-0.135 1.62v2.67c0 0.635 0.045 1.18 0.14 1.625s0.225 0.81 0.4 1.085c0.175 0.28 0.39 0.48 0.645 0.61 0.255 0.125 0.545 0.19 0.87 0.19 0.33 0 0.62-0.065 0.87-0.19s0.46-0.33 0.63-0.61c0.17-0.28 0.3-0.64 0.385-1.085s0.13-0.99 0.13-1.625v-2.67z" fill="#444444"></path>
</svg>
