<?xml version="1.0" encoding="utf-8"?>
<!-- Generated by IcoMoon.io -->
<!DOCTYPE svg PUBLIC "-//W3C//DTD SVG 1.1//EN" "http://www.w3.org/Graphics/SVG/1.1/DTD/svg11.dtd">
<svg version="1.1" xmlns="http://www.w3.org/2000/svg" xmlns:xlink="http://www.w3.org/1999/xlink" width="24" height="24" viewBox="0 0 24 24">
<path d="M20.5 11h-1.5v-4c0-1.105-0.895-2-2-2h-4v-1.5c0-1.38-1.12-2.5-2.5-2.5s-2.5 1.12-2.5 2.5v1.5h-4c-1.105 0-1.99 0.895-1.99 2l-0.005 3.8h1.495c1.49 0 2.7 1.21 2.7 2.7s-1.21 2.7-2.7 2.7h-1.495l-0.005 3.8c0 1.105 0.895 2 2 2h3.8v-1.5c0-1.49 1.21-2.7 2.7-2.7s2.7 1.21 2.7 2.7v1.5h3.8c1.105 0 2-0.895 2-2v-4h1.5c1.38 0 2.5-1.12 2.5-2.5s-1.12-2.5-2.5-2.5z" fill="#444444"></path>
</svg>
