<?xml version="1.0" encoding="utf-8"?>
<!-- Generated by IcoMoon.io -->
<!DOCTYPE svg PUBLIC "-//W3C//DTD SVG 1.1//EN" "http://www.w3.org/Graphics/SVG/1.1/DTD/svg11.dtd">
<svg version="1.1" xmlns="http://www.w3.org/2000/svg" xmlns:xlink="http://www.w3.org/1999/xlink" width="24" height="24" viewBox="0 0 24 24">
<path d="M18.695 12.4c-0.28-0.16-0.57-0.29-0.86-0.4 0.29-0.11 0.58-0.24 0.86-0.4 1.92-1.11 2.99-3.125 2.995-5.195-1.795-1.030-4.075-1.11-5.995 0-0.28 0.16-0.535 0.345-0.78 0.545 0.050-0.315 0.085-0.625 0.085-0.95 0-2.22-1.21-4.155-3-5.19-1.79 1.035-3 2.97-3 5.19 0 0.325 0.030 0.635 0.080 0.945-0.245-0.195-0.5-0.38-0.78-0.545-1.92-1.11-4.2-1.030-5.995 0 0.005 2.070 1.075 4.085 2.995 5.195 0.28 0.16 0.57 0.29 0.86 0.4-0.29 0.11-0.58 0.24-0.86 0.4-1.92 1.11-2.99 3.125-2.995 5.195 1.795 1.030 4.075 1.11 5.995 0 0.28-0.16 0.535-0.345 0.78-0.545-0.045 0.32-0.080 0.63-0.080 0.955 0 2.22 1.21 4.155 3 5.19 1.79-1.040 3-2.97 3-5.19 0-0.325-0.035-0.635-0.080-0.945 0.245 0.195 0.5 0.38 0.78 0.545 1.92 1.11 4.2 1.030 5.995 0-0.005-2.075-1.075-4.090-3-5.2zM12 16c-2.21 0-4-1.79-4-4s1.79-4 4-4 4 1.79 4 4-1.79 4-4 4z" fill="#444444"></path>
</svg>
