<?xml version="1.0" encoding="utf-8"?>
<!-- Generated by IcoMoon.io -->
<!DOCTYPE svg PUBLIC "-//W3C//DTD SVG 1.1//EN" "http://www.w3.org/Graphics/SVG/1.1/DTD/svg11.dtd">
<svg version="1.1" xmlns="http://www.w3.org/2000/svg" xmlns:xlink="http://www.w3.org/1999/xlink" width="24" height="24" viewBox="0 0 24 24">
<path d="M11 4.070v-2.020c-2.010 0.2-3.84 1-5.325 2.21l1.425 1.425c1.11-0.855 2.44-1.435 3.9-1.615zM18.325 4.26c-1.48-1.21-3.315-2.010-5.325-2.21v2.020c1.46 0.185 2.79 0.76 3.9 1.62l1.425-1.43zM19.93 11h2.020c-0.2-2.010-1-3.84-2.21-5.325l-1.425 1.425c0.855 1.11 1.435 2.44 1.615 3.9zM5.69 7.1l-1.425-1.425c-1.215 1.485-2.015 3.315-2.215 5.325h2.020c0.185-1.46 0.76-2.79 1.62-3.9zM4.070 13h-2.020c0.2 2.010 1 3.84 2.21 5.325l1.425-1.425c-0.855-1.11-1.43-2.445-1.615-3.9zM15 12c0-1.655-1.345-3-3-3s-3 1.345-3 3 1.345 3 3 3 3-1.345 3-3zM18.31 16.895l1.425 1.425c1.215-1.48 2.015-3.31 2.215-5.32h-2.020c-0.18 1.455-0.76 2.79-1.62 3.895zM13 19.93v2.020c2.010-0.2 3.84-1 5.325-2.21l-1.425-1.425c-1.11 0.855-2.44 1.43-3.9 1.615zM5.675 19.74c1.485 1.21 3.315 2.010 5.325 2.21v-2.020c-1.46-0.185-2.79-0.76-3.9-1.62l-1.425 1.43z" fill="#444444"></path>
</svg>
