<?xml version="1.0" encoding="utf-8"?>
<!-- Generated by IcoMoon.io -->
<!DOCTYPE svg PUBLIC "-//W3C//DTD SVG 1.1//EN" "http://www.w3.org/Graphics/SVG/1.1/DTD/svg11.dtd">
<svg version="1.1" xmlns="http://www.w3.org/2000/svg" xmlns:xlink="http://www.w3.org/1999/xlink" width="24" height="24" viewBox="0 0 24 24">
<path d="M3 5h-2v16c0 1.105 0.895 2 2 2h16v-2h-16v-16zM14 12v-4c0-1.105-0.895-2-2-2h-1c-1.105 0-2 0.895-2 2v1c0 1.105 0.895 2 2 2h1v1h-3v2h3c1.105 0 2-0.895 2-2zM11 9v-1h1v1h-1zM21 1h-14c-1.105 0-2 0.895-2 2v14c0 1.105 0.895 2 2 2h14c1.105 0 2-0.895 2-2v-14c0-1.105-0.895-2-2-2zM21 9h-2v-2h-2v2h-2v2h2v2h2v-2h2v6h-14v-14h14v6z" fill="#444444"></path>
</svg>
