<?xml version="1.0" encoding="utf-8"?>
<!-- Generated by IcoMoon.io -->
<!DOCTYPE svg PUBLIC "-//W3C//DTD SVG 1.1//EN" "http://www.w3.org/Graphics/SVG/1.1/DTD/svg11.dtd">
<svg version="1.1" xmlns="http://www.w3.org/2000/svg" xmlns:xlink="http://www.w3.org/1999/xlink" width="24" height="24" viewBox="0 0 24 24">
<path d="M11 6c1.38 0 2.63 0.56 3.535 1.465l-2.535 2.535h6v-6l-2.050 2.050c-1.265-1.265-3.015-2.050-4.95-2.050-3.525 0-6.435 2.61-6.92 6h2.020c0.465-2.28 2.48-4 4.9-4zM16.64 15.135c0.665-0.905 1.115-1.975 1.28-3.135h-2.020c-0.465 2.28-2.48 4-4.9 4-1.38 0-2.63-0.56-3.535-1.465l2.535-2.535h-6v6l2.050-2.050c1.265 1.265 3.015 2.050 4.95 2.050 1.55 0 2.98-0.51 4.14-1.365l4.86 4.855 1.49-1.49-4.85-4.865z" fill="#444444"></path>
</svg>
