<?xml version="1.0" encoding="utf-8"?>
<!-- Generated by IcoMoon.io -->
<!DOCTYPE svg PUBLIC "-//W3C//DTD SVG 1.1//EN" "http://www.w3.org/Graphics/SVG/1.1/DTD/svg11.dtd">
<svg version="1.1" xmlns="http://www.w3.org/2000/svg" xmlns:xlink="http://www.w3.org/1999/xlink" width="24" height="24" viewBox="0 0 24 24">
<path d="M20 19.585v-11.585l-6-6h-8c-1.105 0-1.99 0.895-1.99 2l-0.010 16c0 1.105 0.885 2 1.99 2h12.010c0.445 0 0.855-0.15 1.185-0.4l-4.435-4.435c-0.785 0.525-1.73 0.835-2.75 0.835-2.76 0-5-2.24-5-5s2.24-5 5-5 5 2.24 5 5c0 1.020-0.31 1.965-0.83 2.755l3.83 3.83zM9 13c0 1.655 1.345 3 3 3s3-1.345 3-3-1.345-3-3-3-3 1.345-3 3z" fill="#444444"></path>
</svg>
