<?xml version="1.0" encoding="utf-8"?>
<!-- Generated by IcoMoon.io -->
<!DOCTYPE svg PUBLIC "-//W3C//DTD SVG 1.1//EN" "http://www.w3.org/Graphics/SVG/1.1/DTD/svg11.dtd">
<svg version="1.1" xmlns="http://www.w3.org/2000/svg" xmlns:xlink="http://www.w3.org/1999/xlink" width="24" height="24" viewBox="0 0 24 24">
<path d="M7 11h-6v2h6v-2zM9.17 7.755l-2.12-2.12-1.415 1.415 2.12 2.12 1.415-1.415zM13 1h-2v6h2v-6zM18.365 7.050l-1.415-1.415-2.12 2.12 1.415 1.415 2.12-2.12zM17 11v2h6v-2h-6zM12 9c-1.655 0-3 1.345-3 3s1.345 3 3 3 3-1.345 3-3-1.345-3-3-3zM14.83 16.245l2.12 2.12 1.415-1.415-2.12-2.12-1.415 1.415zM5.635 16.95l1.415 1.415 2.12-2.12-1.415-1.415-2.12 2.12zM11 23h2v-6h-2v6z" fill="#444444"></path>
</svg>
