<?xml version="1.0" encoding="utf-8"?>
<!-- Generated by IcoMoon.io -->
<!DOCTYPE svg PUBLIC "-//W3C//DTD SVG 1.1//EN" "http://www.w3.org/Graphics/SVG/1.1/DTD/svg11.dtd">
<svg version="1.1" xmlns="http://www.w3.org/2000/svg" xmlns:xlink="http://www.w3.org/1999/xlink" width="24" height="24" viewBox="0 0 24 24">
<path d="M3 13h2v-2h-2v2zM3 17h2v-2h-2v2zM5 21v-2h-2c0 1.105 0.895 2 2 2zM3 9h2v-2h-2v2zM15 21h2v-2h-2v2zM19 3h-10c-1.105 0-2 0.895-2 2v10c0 1.105 0.895 2 2 2h10c1.105 0 2-0.895 2-2v-10c0-1.105-0.895-2-2-2zM19 15h-10v-10h10v10zM11 21h2v-2h-2v2zM7 21h2v-2h-2v2z" fill="#444444"></path>
</svg>
