<?xml version="1.0" encoding="utf-8"?>
<!-- Generated by IcoMoon.io -->
<!DOCTYPE svg PUBLIC "-//W3C//DTD SVG 1.1//EN" "http://www.w3.org/Graphics/SVG/1.1/DTD/svg11.dtd">
<svg version="1.1" xmlns="http://www.w3.org/2000/svg" xmlns:xlink="http://www.w3.org/1999/xlink" width="24" height="24" viewBox="0 0 24 24">
<path d="M9 7h-2v2h2v-2zM9 11h-2v2h2v-2zM9 3c-1.105 0-2 0.895-2 2h2v-2zM13 15h-2v2h2v-2zM19 3v2h2c0-1.105-0.895-2-2-2zM13 3h-2v2h2v-2zM9 17v-2h-2c0 1.105 0.895 2 2 2zM19 13h2v-2h-2v2zM19 9h2v-2h-2v2zM19 17c1.105 0 2-0.895 2-2h-2v2zM5 7h-2v12c0 1.105 0.895 2 2 2h12v-2h-12v-12zM15 5h2v-2h-2v2zM15 17h2v-2h-2v2z" fill="#444444"></path>
</svg>
