<?xml version="1.0" encoding="utf-8"?>
<!-- Generated by IcoMoon.io -->
<!DOCTYPE svg PUBLIC "-//W3C//DTD SVG 1.1//EN" "http://www.w3.org/Graphics/SVG/1.1/DTD/svg11.dtd">
<svg version="1.1" xmlns="http://www.w3.org/2000/svg" xmlns:xlink="http://www.w3.org/1999/xlink" width="24" height="24" viewBox="0 0 24 24">
<path d="M16.56 8.94l-8.94-8.94-1.415 1.415 2.38 2.38-5.145 5.145c-0.585 0.585-0.585 1.535 0 2.12l5.5 5.5c0.29 0.295 0.675 0.44 1.060 0.44s0.77-0.145 1.060-0.44l5.5-5.5c0.585-0.585 0.585-1.535 0-2.12zM5.205 10l4.795-4.79 4.795 4.79h-9.59zM19 11.5s-2 2.165-2 3.5c0 1.105 0.895 2 2 2s2-0.895 2-2c0-1.335-2-3.5-2-3.5z" fill="#444444"></path>
<path d="M0 20h24v4h-24z" fill="#444444"></path>
</svg>
