<?xml version="1.0" encoding="utf-8"?>
<!-- Generated by IcoMoon.io -->
<!DOCTYPE svg PUBLIC "-//W3C//DTD SVG 1.1//EN" "http://www.w3.org/Graphics/SVG/1.1/DTD/svg11.dtd">
<svg version="1.1" xmlns="http://www.w3.org/2000/svg" xmlns:xlink="http://www.w3.org/1999/xlink" width="24" height="24" viewBox="0 0 24 24">
<path d="M4 10.5c-0.83 0-1.5 0.67-1.5 1.5s0.67 1.5 1.5 1.5 1.5-0.67 1.5-1.5-0.67-1.5-1.5-1.5zM4 4.5c-0.83 0-1.5 0.67-1.5 1.5s0.67 1.5 1.5 1.5 1.5-0.67 1.5-1.5-0.67-1.5-1.5-1.5zM4 16.665c-0.735 0-1.335 0.595-1.335 1.335s0.6 1.335 1.335 1.335 1.335-0.595 1.335-1.335-0.6-1.335-1.335-1.335zM7 19h14v-2h-14v2zM7 13h14v-2h-14v2zM7 5v2h14v-2h-14z" fill="#444444"></path>
</svg>
