<?xml version="1.0" encoding="utf-8"?>
<!-- Generated by IcoMoon.io -->
<!DOCTYPE svg PUBLIC "-//W3C//DTD SVG 1.1//EN" "http://www.w3.org/Graphics/SVG/1.1/DTD/svg11.dtd">
<svg version="1.1" xmlns="http://www.w3.org/2000/svg" xmlns:xlink="http://www.w3.org/1999/xlink" width="24" height="24" viewBox="0 0 24 24">
<path d="M4.595 6.885c0.7-0.715 1.4-1.355 1.715-1.225 0.495 0.205-0.010 1.040-0.3 1.525-0.25 0.42-2.86 3.885-2.86 6.31 0 1.28 0.475 2.34 1.345 2.98 0.75 0.555 1.735 0.725 2.64 0.46 1.070-0.315 1.95-1.395 3.060-2.765 1.21-1.49 2.83-3.44 4.080-3.44 1.63 0 1.65 1.010 1.76 1.795-3.79 0.65-5.385 3.675-5.385 5.38s1.44 3.095 3.205 3.095c1.625 0 4.295-1.33 4.69-6.1h2.455v-2.5h-2.47c-0.15-1.65-1.090-4.195-4.030-4.195-2.25 0-4.185 1.91-4.935 2.845-0.58 0.725-2.055 2.475-2.285 2.725-0.255 0.295-0.675 0.84-1.115 0.84-0.445 0-0.715-0.835-0.365-1.925 0.35-1.095 1.4-2.86 1.85-3.515 0.785-1.14 1.295-1.925 1.295-3.28 0-2.2-1.64-2.89-2.51-2.89-1.32 0-2.47 1-2.725 1.255-0.355 0.36-0.655 0.655-0.875 0.925l1.76 1.7zM13.885 18.555c-0.31 0-0.735-0.26-0.735-0.725 0-0.6 0.725-2.2 2.875-2.765-0.31 2.695-1.44 3.49-2.14 3.49z" fill="#444444"></path>
</svg>
