<?xml version="1.0" encoding="utf-8"?>
<!-- Generated by IcoMoon.io -->
<!DOCTYPE svg PUBLIC "-//W3C//DTD SVG 1.1//EN" "http://www.w3.org/Graphics/SVG/1.1/DTD/svg11.dtd">
<svg version="1.1" xmlns="http://www.w3.org/2000/svg" xmlns:xlink="http://www.w3.org/1999/xlink" width="24" height="24" viewBox="0 0 24 24">
<path d="M11 9h2v2h-2zM9 11h2v2h-2zM13 11h2v2h-2zM15 9h2v2h-2zM7 9h2v2h-2zM19 3h-14c-1.1 0-2 0.9-2 2v14c0 1.1 0.9 2 2 2h14c1.1 0 2-0.9 2-2v-14c0-1.1-0.9-2-2-2zM9 18h-2v-2h2v2zM13 18h-2v-2h2v2zM17 18h-2v-2h2v2zM19 11h-2v2h2v2h-2v-2h-2v2h-2v-2h-2v2h-2v-2h-2v2h-2v-2h2v-2h-2v-6h14v6z" fill="#444444"></path>
</svg>
