<?xml version="1.0" encoding="utf-8"?>
<!-- Generated by IcoMoon.io -->
<!DOCTYPE svg PUBLIC "-//W3C//DTD SVG 1.1//EN" "http://www.w3.org/Graphics/SVG/1.1/DTD/svg11.dtd">
<svg version="1.1" xmlns="http://www.w3.org/2000/svg" xmlns:xlink="http://www.w3.org/1999/xlink" width="24" height="24" viewBox="0 0 24 24">
<path d="M20 2h-16c-1.105 0-2 0.895-2 2v16c0 1.105 0.895 2 2 2h16c1.105 0 2-0.895 2-2v-16c0-1.105-0.895-2-2-2zM8 20h-4v-4h4v4zM8 14h-4v-4h4v4zM8 8h-4v-4h4v4zM14 20h-4v-4h4v4zM14 14h-4v-4h4v4zM14 8h-4v-4h4v4zM20 20h-4v-4h4v4zM20 14h-4v-4h4v4zM20 8h-4v-4h4v4z" fill="#444444"></path>
</svg>
