<?xml version="1.0" encoding="utf-8"?>
<!-- Generated by IcoMoon.io -->
<!DOCTYPE svg PUBLIC "-//W3C//DTD SVG 1.1//EN" "http://www.w3.org/Graphics/SVG/1.1/DTD/svg11.dtd">
<svg version="1.1" xmlns="http://www.w3.org/2000/svg" xmlns:xlink="http://www.w3.org/1999/xlink" width="24" height="24" viewBox="0 0 24 24">
<path d="M8 4v1.455l2 2v-3.455h4v4h-3.455l2 2h1.455v1.455l2 2v-3.455h4v4h-3.455l2 2h1.455v1.455l2 2v-15.455c0-1.105-0.895-2-2-2h-15.455l2 2h1.455zM16 4h4v4h-4v-4zM1.275 1.275l-1.275 1.27 2 2v15.455c0 1.105 0.895 2 2 2h15.455l2 2 1.27-1.275-21.45-21.45zM10 12.545l1.455 1.455h-1.455v-1.455zM4 6.545l1.455 1.455h-1.455v-1.455zM8 20h-4v-4h4v4zM8 14h-4v-4h3.455l0.545 0.545v3.455zM14 20h-4v-4h3.455l0.545 0.545v3.455zM16 20v-1.455l1.455 1.455h-1.455z" fill="#444444"></path>
</svg>
