<?xml version="1.0" encoding="utf-8"?>
<!-- Generated by IcoMoon.io -->
<!DOCTYPE svg PUBLIC "-//W3C//DTD SVG 1.1//EN" "http://www.w3.org/Graphics/SVG/1.1/DTD/svg11.dtd">
<svg version="1.1" xmlns="http://www.w3.org/2000/svg" xmlns:xlink="http://www.w3.org/1999/xlink" width="24" height="24" viewBox="0 0 24 24">
<path d="M8 10h-3v-3h-2v3h-3v2h3v3h2v-3h3v-2zM18 11c1.655 0 2.99-1.345 2.99-3s-1.335-3-2.99-3c-0.32 0-0.625 0.050-0.915 0.145 0.565 0.81 0.905 1.795 0.905 2.855s-0.34 2.045-0.905 2.855c0.29 0.095 0.595 0.145 0.915 0.145zM13 11c1.655 0 2.99-1.345 2.99-3s-1.335-3-2.99-3c-1.655 0-3 1.345-3 3s1.345 3 3 3zM19.62 13.16c0.83 0.725 1.38 1.66 1.38 2.84v2h3v-2c0-1.54-2.375-2.485-4.38-2.84zM13 13c-2 0-6 1-6 3v2h12v-2c0-2-4-3-6-3z" fill="#444444"></path>
</svg>
