<?xml version="1.0" encoding="utf-8"?>
<!-- Generated by IcoMoon.io -->
<!DOCTYPE svg PUBLIC "-//W3C//DTD SVG 1.1//EN" "http://www.w3.org/Graphics/SVG/1.1/DTD/svg11.dtd">
<svg version="1.1" xmlns="http://www.w3.org/2000/svg" xmlns:xlink="http://www.w3.org/1999/xlink" width="24" height="24" viewBox="0 0 24 24">
<path d="M6 11h-2v-4h-2v10h2v-4h2v4h2v-10h-2v4zM13 7h-4v10h4c1.105 0 2-0.895 2-2v-6c0-1.105-0.895-2-2-2zM13 15h-2v-6h2v6zM22 11v-2c0-1.105-0.895-2-2-2h-4v10h2v-4h1l1 4h2l-1.19-4.175c0.7-0.31 1.19-1.010 1.19-1.825zM20 11h-2v-2h2v2z" fill="#444444"></path>
</svg>
