<?xml version="1.0" encoding="utf-8"?>
<!-- Generated by IcoMoon.io -->
<!DOCTYPE svg PUBLIC "-//W3C//DTD SVG 1.1//EN" "http://www.w3.org/Graphics/SVG/1.1/DTD/svg11.dtd">
<svg version="1.1" xmlns="http://www.w3.org/2000/svg" xmlns:xlink="http://www.w3.org/1999/xlink" width="24" height="24" viewBox="0 0 24 24">
<path d="M18 17l-14.73-14.725-1.27 1.27 4 4v3.455h-2v-4h-2v10h2v-4h2v4h2v-7.455l1 1v6.455h4c0.67 0 1.255-0.33 1.62-0.835l6.335 6.335 1.27-1.275-4.225-4.225zM13 15h-2v-2.455l2 2v0.455zM18 13h1l0.82 3.27 0.725 0.73h1.455l-1.19-4.175c0.7-0.31 1.19-1.010 1.19-1.825v-2c0-1.105-0.895-2-2-2h-4v5.455l2 2v-1.455zM18 9h2v2h-2v-2zM15 11.455v-2.455c0-1.105-0.895-2-2-2h-2.455l4.455 4.455z" fill="#444444"></path>
</svg>
