<?xml version="1.0" encoding="utf-8"?>
<!-- Generated by IcoMoon.io -->
<!DOCTYPE svg PUBLIC "-//W3C//DTD SVG 1.1//EN" "http://www.w3.org/Graphics/SVG/1.1/DTD/svg11.dtd">
<svg version="1.1" xmlns="http://www.w3.org/2000/svg" xmlns:xlink="http://www.w3.org/1999/xlink" width="24" height="24" viewBox="0 0 24 24">
<path d="M17.73 12.020l3.98-3.98c0.39-0.39 0.39-1.025 0-1.415l-4.335-4.335c-0.39-0.39-1.025-0.39-1.415 0l-3.98 3.98-3.98-3.975c-0.195-0.195-0.45-0.295-0.705-0.295s-0.51 0.1-0.705 0.295l-4.34 4.335c-0.39 0.39-0.39 1.025 0 1.415l3.98 3.98-3.98 3.975c-0.39 0.39-0.39 1.025 0 1.415l4.335 4.335c0.39 0.39 1.025 0.39 1.415 0l3.98-3.98 3.98 3.98c0.195 0.195 0.45 0.295 0.705 0.295s0.51-0.1 0.705-0.295l4.335-4.335c0.39-0.39 0.39-1.025 0-1.415l-3.975-3.98zM12 9c0.55 0 1 0.45 1 1s-0.45 1-1 1-1-0.45-1-1 0.45-1 1-1zM7.29 10.96l-3.625-3.625 3.63-3.63 3.625 3.625-3.63 3.63zM10 13c-0.55 0-1-0.45-1-1s0.45-1 1-1 1 0.45 1 1-0.45 1-1 1zM12 15c-0.55 0-1-0.45-1-1s0.45-1 1-1 1 0.45 1 1-0.45 1-1 1zM14 11c0.55 0 1 0.45 1 1s-0.45 1-1 1-1-0.45-1-1 0.45-1 1-1zM16.665 20.335l-3.625-3.625 3.63-3.63 3.625 3.625-3.63 3.63z" fill="#444444"></path>
</svg>
