<?xml version="1.0" encoding="utf-8"?>
<!-- Generated by IcoMoon.io -->
<!DOCTYPE svg PUBLIC "-//W3C//DTD SVG 1.1//EN" "http://www.w3.org/Graphics/SVG/1.1/DTD/svg11.dtd">
<svg version="1.1" xmlns="http://www.w3.org/2000/svg" xmlns:xlink="http://www.w3.org/1999/xlink" width="24" height="24" viewBox="0 0 24 24">
<path d="M17 20c-0.285 0-0.565-0.060-0.765-0.15-0.705-0.375-1.215-0.885-1.71-2.385-0.515-1.555-1.47-2.29-2.395-3.005-0.79-0.61-1.61-1.24-2.315-2.525-0.525-0.96-0.815-2.005-0.815-2.935 0-2.805 2.195-5 5-5s5 2.195 5 5h2c0-3.925-3.075-7-7-7s-7 3.075-7 7c0 1.265 0.38 2.65 1.065 3.9 0.91 1.655 1.985 2.48 2.85 3.15 0.81 0.625 1.395 1.075 1.715 2.045 0.6 1.815 1.375 2.84 2.725 3.55 0.52 0.235 1.070 0.355 1.645 0.355 2.205 0 4-1.795 4-4h-2c0 1.105-0.895 2-2 2zM7.635 2.635l-1.415-1.415c-1.99 1.99-3.22 4.74-3.22 7.78s1.23 5.79 3.22 7.78l1.415-1.415c-1.63-1.63-2.635-3.88-2.635-6.365s1.005-4.735 2.635-6.365zM11.5 9c0 1.38 1.12 2.5 2.5 2.5s2.5-1.12 2.5-2.5-1.12-2.5-2.5-2.5-2.5 1.12-2.5 2.5z" fill="#444444"></path>
</svg>
