<?xml version="1.0" encoding="utf-8"?>
<!-- Generated by IcoMoon.io -->
<!DOCTYPE svg PUBLIC "-//W3C//DTD SVG 1.1//EN" "http://www.w3.org/Graphics/SVG/1.1/DTD/svg11.dtd">
<svg version="1.1" xmlns="http://www.w3.org/2000/svg" xmlns:xlink="http://www.w3.org/1999/xlink" width="24" height="24" viewBox="0 0 24 24">
<path d="M16 10h-2v2h2v-2zM16 14h-2v2h2v-2zM8 10h-2v2h2v-2zM12 10h-2v2h2v-2zM20 4h-16c-1.105 0-2 0.895-2 2v12c0 1.105 0.895 2 2 2h16c1.105 0 2-0.895 2-2v-12c0-1.105-0.895-2-2-2zM20 18h-16v-12h16v12z" fill="#444444"></path>
</svg>
