<?xml version="1.0" encoding="utf-8"?>
<!-- Generated by IcoMoon.io -->
<!DOCTYPE svg PUBLIC "-//W3C//DTD SVG 1.1//EN" "http://www.w3.org/Graphics/SVG/1.1/DTD/svg11.dtd">
<svg version="1.1" xmlns="http://www.w3.org/2000/svg" xmlns:xlink="http://www.w3.org/1999/xlink" width="24" height="24" viewBox="0 0 24 24">
<path d="M19 3h-14.010c-1.105 0-1.98 0.895-1.98 2l-0.010 14c0 1.105 0.885 2 1.99 2h14.010c1.105 0 2-0.895 2-2v-14c0-1.105-0.895-2-2-2zM19 15h-4c0 1.655-1.345 3-3 3s-3-1.345-3-3h-4.010v-10h14.010v10zM16 10h-2v-3h-4v3h-2l4 4 4-4z" fill="#444444"></path>
</svg>
