<?xml version="1.0" encoding="utf-8"?>
<!-- Generated by IcoMoon.io -->
<!DOCTYPE svg PUBLIC "-//W3C//DTD SVG 1.1//EN" "http://www.w3.org/Graphics/SVG/1.1/DTD/svg11.dtd">
<svg version="1.1" xmlns="http://www.w3.org/2000/svg" xmlns:xlink="http://www.w3.org/1999/xlink" width="24" height="24" viewBox="0 0 24 24">
<path d="M20.645 20.875l-16.375-16.375-1.27 1.275 2.78 2.78c-2.55 3.14-2.36 7.765 0.56 10.69 1.56 1.56 3.61 2.345 5.655 2.345 1.785 0 3.57-0.595 5.030-1.78l2.7 2.69 1.275-1.275-0.355-0.35zM12 19.585c-1.605 0-3.11-0.625-4.24-1.755-1.135-1.135-1.76-2.64-1.76-4.245 0-1.32 0.43-2.57 1.21-3.605l4.79 4.795v4.81zM12 5.1v4.58l7.255 7.255c1.365-2.955 0.84-6.57-1.6-9.010l-5.655-5.655-3.705 3.705 1.415 1.415 2.29-2.29z" fill="#444444"></path>
</svg>
