<?xml version="1.0" encoding="utf-8"?>
<!-- Generated by IcoMoon.io -->
<!DOCTYPE svg PUBLIC "-//W3C//DTD SVG 1.1//EN" "http://www.w3.org/Graphics/SVG/1.1/DTD/svg11.dtd">
<svg version="1.1" xmlns="http://www.w3.org/2000/svg" xmlns:xlink="http://www.w3.org/1999/xlink" width="24" height="24" viewBox="0 0 24 24">
<path d="M12 15c1.655 0 2.99-1.345 2.99-3l0.010-6c0-1.66-1.34-3-3-3-1.655 0-3 1.34-3 3v6c0 1.655 1.345 3 3 3zM17.3 12c0 3-2.535 5.1-5.3 5.1-2.76 0-5.3-2.1-5.3-5.1h-1.7c0 3.415 2.72 6.235 6 6.72v3.28h2v-3.28c3.28-0.485 6-3.305 6-6.72h-1.7z" fill="#444444"></path>
</svg>
