<?xml version="1.0" encoding="utf-8"?>
<!-- Generated by IcoMoon.io -->
<!DOCTYPE svg PUBLIC "-//W3C//DTD SVG 1.1//EN" "http://www.w3.org/Graphics/SVG/1.1/DTD/svg11.dtd">
<svg version="1.1" xmlns="http://www.w3.org/2000/svg" xmlns:xlink="http://www.w3.org/1999/xlink" width="24" height="24" viewBox="0 0 24 24">
<path d="M20 3h-16c-1.105 0-1.99 0.895-1.99 2l-0.010 10c0 1.105 0.895 2 2 2h16c1.105 0 2-0.895 2-2v-10c0-1.105-0.895-2-2-2zM11 6h2v2h-2v-2zM11 9h2v2h-2v-2zM8 6h2v2h-2v-2zM8 9h2v2h-2v-2zM7 11h-2v-2h2v2zM7 8h-2v-2h2v2zM16 15h-8v-2h8v2zM16 11h-2v-2h2v2zM16 8h-2v-2h2v2zM19 11h-2v-2h2v2zM19 8h-2v-2h2v2zM12 23l4-4h-8l4 4z" fill="#444444"></path>
</svg>
