<?xml version="1.0" encoding="utf-8"?>
<!-- Generated by IcoMoon.io -->
<!DOCTYPE svg PUBLIC "-//W3C//DTD SVG 1.1//EN" "http://www.w3.org/Graphics/SVG/1.1/DTD/svg11.dtd">
<svg version="1.1" xmlns="http://www.w3.org/2000/svg" xmlns:xlink="http://www.w3.org/1999/xlink" width="24" height="24" viewBox="0 0 24 24">
<path d="M11.995 2c-5.525 0-9.995 4.475-9.995 10s4.47 10 9.995 10c5.525 0 10.005-4.475 10.005-10s-4.48-10-10.005-10zM18.92 8h-2.95c-0.325-1.25-0.78-2.45-1.38-3.56 1.84 0.63 3.37 1.905 4.33 3.56zM12 4.035c0.835 1.2 1.485 2.535 1.91 3.965h-3.82c0.425-1.43 1.075-2.765 1.91-3.965zM4.26 14c-0.165-0.64-0.26-1.31-0.26-2s0.095-1.36 0.26-2h3.375c-0.080 0.655-0.135 1.32-0.135 2s0.055 1.345 0.14 2h-3.38zM5.075 16h2.95c0.325 1.25 0.78 2.45 1.38 3.565-1.84-0.63-3.37-1.91-4.33-3.565zM8.025 8h-2.95c0.96-1.655 2.49-2.935 4.33-3.565-0.6 1.115-1.055 2.315-1.38 3.565zM12 19.965c-0.83-1.2-1.48-2.535-1.91-3.965h3.82c-0.43 1.43-1.080 2.765-1.91 3.965zM14.34 14h-4.68c-0.095-0.655-0.16-1.32-0.16-2s0.065-1.345 0.16-2h4.68c0.095 0.655 0.16 1.32 0.16 2s-0.065 1.345-0.16 2zM14.595 19.56c0.6-1.115 1.055-2.31 1.38-3.56h2.95c-0.965 1.655-2.495 2.93-4.33 3.56zM16.36 14c0.080-0.655 0.14-1.32 0.14-2s-0.055-1.345-0.14-2h3.375c0.165 0.64 0.265 1.31 0.265 2s-0.095 1.36-0.265 2h-3.375z" fill="#444444"></path>
</svg>
