<?xml version="1.0" encoding="utf-8"?>
<!-- Generated by IcoMoon.io -->
<!DOCTYPE svg PUBLIC "-//W3C//DTD SVG 1.1//EN" "http://www.w3.org/Graphics/SVG/1.1/DTD/svg11.dtd">
<svg version="1.1" xmlns="http://www.w3.org/2000/svg" xmlns:xlink="http://www.w3.org/1999/xlink" width="24" height="24" viewBox="0 0 24 24">
<path d="M10 3h-2c0 0.365-0.045 0.72-0.12 1.065l1.595 1.595c0.335-0.825 0.525-1.72 0.525-2.66zM3 4.275l2.84 2.84c-0.81 0.555-1.785 0.885-2.84 0.885v2c1.61 0 3.085-0.55 4.265-1.46l1.425 1.425c-1.545 1.27-3.53 2.035-5.69 2.035v2c2.715 0 5.195-0.985 7.11-2.615l2.505 2.505c-1.63 1.915-2.615 4.395-2.615 7.11h2c0-2.16 0.765-4.145 2.035-5.695l1.425 1.425c-0.91 1.185-1.46 2.66-1.46 4.27h2c0-1.055 0.33-2.030 0.89-2.84l2.84 2.84 1.27-1.275-16.725-16.725-1.275 1.275zM14 3h-2c0 1.5-0.375 2.915-1.025 4.16l1.465 1.465c0.985-1.65 1.56-3.565 1.56-5.625zM19.935 16.12c0.345-0.075 0.7-0.12 1.065-0.12v-2c-0.94 0-1.835 0.19-2.655 0.525l1.59 1.595zM15.375 11.56l1.465 1.465c1.245-0.65 2.66-1.025 4.16-1.025v-2c-2.060 0-3.975 0.575-5.625 1.56z" fill="#444444"></path>
</svg>
