<?xml version="1.0" encoding="utf-8"?>
<!-- Generated by IcoMoon.io -->
<!DOCTYPE svg PUBLIC "-//W3C//DTD SVG 1.1//EN" "http://www.w3.org/Graphics/SVG/1.1/DTD/svg11.dtd">
<svg version="1.1" xmlns="http://www.w3.org/2000/svg" xmlns:xlink="http://www.w3.org/1999/xlink" width="24" height="24" viewBox="0 0 24 24">
<path d="M6 3h-3v3c1.655 0 3-1.345 3-3zM14 3h-2c0 4.97-4.030 9-9 9v2c6.075 0 11-4.925 11-11zM10 3h-2c0 2.76-2.24 5-5 5v2c3.865 0 7-3.135 7-7zM10 21h2c0-4.97 4.030-9 9-9v-2c-6.075 0-11 4.925-11 11zM18 21h3v-3c-1.655 0-3 1.345-3 3zM14 21h2c0-2.76 2.24-5 5-5v-2c-3.865 0-7 3.135-7 7z" fill="#444444"></path>
</svg>
