<?xml version="1.0" encoding="utf-8"?>
<!-- Generated by IcoMoon.io -->
<!DOCTYPE svg PUBLIC "-//W3C//DTD SVG 1.1//EN" "http://www.w3.org/Graphics/SVG/1.1/DTD/svg11.dtd">
<svg version="1.1" xmlns="http://www.w3.org/2000/svg" xmlns:xlink="http://www.w3.org/1999/xlink" width="24" height="24" viewBox="0 0 24 24">
<path d="M3.9 12c0-1.71 1.39-3.1 3.1-3.1h4v-1.9h-4c-2.76 0-5 2.24-5 5s2.24 5 5 5h4v-1.9h-4c-1.71 0-3.1-1.39-3.1-3.1zM8 13h8v-2h-8v2zM17 7h-4v1.9h4c1.71 0 3.1 1.39 3.1 3.1s-1.39 3.1-3.1 3.1h-4v1.9h4c2.76 0 5-2.24 5-5s-2.24-5-5-5z" fill="#444444"></path>
</svg>
