<?xml version="1.0" encoding="utf-8"?>
<!-- Generated by IcoMoon.io -->
<!DOCTYPE svg PUBLIC "-//W3C//DTD SVG 1.1//EN" "http://www.w3.org/Graphics/SVG/1.1/DTD/svg11.dtd">
<svg version="1.1" xmlns="http://www.w3.org/2000/svg" xmlns:xlink="http://www.w3.org/1999/xlink" width="24" height="24" viewBox="0 0 24 24">
<path d="M18.92 6.010c-0.205-0.59-0.765-1.010-1.42-1.010h-2.5v-2h-6v2h-2.5c-0.655 0-1.215 0.42-1.42 1.010l-2.080 5.99v8c0 0.55 0.45 1 1 1h1c0.555 0 1-0.45 1-1v-1h12v1c0 0.55 0.45 1 1 1h1c0.555 0 1-0.45 1-1v-8l-2.080-5.99zM6.5 16c-0.83 0-1.5-0.67-1.5-1.5s0.67-1.5 1.5-1.5 1.5 0.67 1.5 1.5-0.67 1.5-1.5 1.5zM17.5 16c-0.83 0-1.5-0.67-1.5-1.5s0.67-1.5 1.5-1.5 1.5 0.67 1.5 1.5-0.67 1.5-1.5 1.5zM5 11l1.5-4.5h11l1.5 4.5h-14z" fill="#444444"></path>
</svg>
