<?xml version="1.0" encoding="utf-8"?>
<!-- Generated by IcoMoon.io -->
<!DOCTYPE svg PUBLIC "-//W3C//DTD SVG 1.1//EN" "http://www.w3.org/Graphics/SVG/1.1/DTD/svg11.dtd">
<svg version="1.1" xmlns="http://www.w3.org/2000/svg" xmlns:xlink="http://www.w3.org/1999/xlink" width="24" height="24" viewBox="0 0 24 24">
<path d="M15 11v-6l-3-3-3 3v2h-6v14h18v-10h-6zM7 19h-2v-2h2v2zM7 15h-2v-2h2v2zM7 11h-2v-2h2v2zM13 19h-2v-2h2v2zM13 15h-2v-2h2v2zM13 11h-2v-2h2v2zM13 7h-2v-2h2v2zM19 19h-2v-2h2v2zM19 15h-2v-2h2v2z" fill="#444444"></path>
</svg>
