<?xml version="1.0" encoding="utf-8"?>
<!-- Generated by IcoMoon.io -->
<!DOCTYPE svg PUBLIC "-//W3C//DTD SVG 1.1//EN" "http://www.w3.org/Graphics/SVG/1.1/DTD/svg11.dtd">
<svg version="1.1" xmlns="http://www.w3.org/2000/svg" xmlns:xlink="http://www.w3.org/1999/xlink" width="24" height="24" viewBox="0 0 24 24">
<path d="M12 6.5c1.38 0 2.5 1.12 2.5 2.5 0 0.735-0.325 1.39-0.83 1.85l3.63 3.63c0.975-1.86 1.7-3.795 1.7-5.48 0-3.865-3.135-7-7-7-1.98 0-3.765 0.825-5.035 2.145l3.185 3.185c0.455-0.505 1.115-0.83 1.85-0.83zM16.375 16.1l-13.105-13.1-1.27 1.275 3.18 3.18c-0.115 0.495-0.18 1.010-0.18 1.545 0 5.25 7 13 7 13s1.67-1.85 3.375-4.35l3.35 3.35 1.275-1.275-3.625-3.625z" fill="#444444"></path>
</svg>
