<?xml version="1.0" encoding="utf-8"?>
<!-- Generated by IcoMoon.io -->
<!DOCTYPE svg PUBLIC "-//W3C//DTD SVG 1.1//EN" "http://www.w3.org/Graphics/SVG/1.1/DTD/svg11.dtd">
<svg version="1.1" xmlns="http://www.w3.org/2000/svg" xmlns:xlink="http://www.w3.org/1999/xlink" width="24" height="24" viewBox="0 0 24 24">
<path d="M12 22c4.97 0 9-4.030 9-9-4.97 0-9 4.030-9 9zM5.605 10.25c0 1.38 1.12 2.5 2.5 2.5 0.525 0 1.015-0.165 1.415-0.44l-0.020 0.19c0 1.38 1.12 2.5 2.5 2.5s2.5-1.12 2.5-2.5l-0.020-0.19c0.405 0.28 0.89 0.44 1.415 0.44 1.38 0 2.5-1.12 2.5-2.5 0-0.995-0.585-1.85-1.43-2.25 0.84-0.4 1.43-1.255 1.43-2.25 0-1.38-1.12-2.5-2.5-2.5-0.525 0-1.015 0.165-1.415 0.44l0.020-0.19c0-1.38-1.12-2.5-2.5-2.5s-2.5 1.12-2.5 2.5l0.020 0.19c-0.405-0.28-0.89-0.44-1.415-0.44-1.38 0-2.5 1.12-2.5 2.5 0 0.995 0.585 1.85 1.43 2.25-0.845 0.4-1.43 1.255-1.43 2.25zM12 5.5c1.38 0 2.5 1.12 2.5 2.5s-1.12 2.5-2.5 2.5-2.5-1.12-2.5-2.5 1.12-2.5 2.5-2.5zM3 13c0 4.97 4.030 9 9 9 0-4.97-4.030-9-9-9z" fill="#444444"></path>
</svg>
