<?xml version="1.0" encoding="utf-8"?>
<!-- Generated by IcoMoon.io -->
<!DOCTYPE svg PUBLIC "-//W3C//DTD SVG 1.1//EN" "http://www.w3.org/Graphics/SVG/1.1/DTD/svg11.dtd">
<svg version="1.1" xmlns="http://www.w3.org/2000/svg" xmlns:xlink="http://www.w3.org/1999/xlink" width="24" height="24" viewBox="0 0 24 24">
<path d="M20 8h-3v-4h-14c-1.105 0-2 0.895-2 2v11h2c0 1.655 1.345 3 3 3s3-1.345 3-3h6c0 1.655 1.345 3 3 3s3-1.345 3-3h2v-5l-3-4zM6 18.5c-0.83 0-1.5-0.67-1.5-1.5s0.67-1.5 1.5-1.5 1.5 0.67 1.5 1.5-0.67 1.5-1.5 1.5zM19.5 9.5l1.965 2.5h-4.465v-2.5h2.5zM18 18.5c-0.83 0-1.5-0.67-1.5-1.5s0.67-1.5 1.5-1.5 1.5 0.67 1.5 1.5-0.67 1.5-1.5 1.5z" fill="#444444"></path>
</svg>
