<?xml version="1.0" encoding="utf-8"?>
<!-- Generated by IcoMoon.io -->
<!DOCTYPE svg PUBLIC "-//W3C//DTD SVG 1.1//EN" "http://www.w3.org/Graphics/SVG/1.1/DTD/svg11.dtd">
<svg version="1.1" xmlns="http://www.w3.org/2000/svg" xmlns:xlink="http://www.w3.org/1999/xlink" width="24" height="24" viewBox="0 0 24 24">
<path d="M19.77 7.23l0.015-0.015-3.725-3.715-1.060 1.060 2.11 2.11c-0.94 0.36-1.61 1.265-1.61 2.33 0 1.38 1.12 2.5 2.5 2.5 0.355 0 0.695-0.075 1-0.21v7.21c0 0.55-0.45 1-1 1s-1-0.45-1-1v-4.5c0-1.105-0.895-2-2-2h-1v-7c0-1.105-0.895-2-2-2h-6c-1.105 0-2 0.895-2 2v16h10v-7.5h1.5v5c0 1.38 1.12 2.5 2.5 2.5s2.5-1.12 2.5-2.5v-9.5c0-0.69-0.28-1.315-0.73-1.77zM12 10h-6v-5h6v5zM18 10c-0.55 0-1-0.45-1-1s0.45-1 1-1 1 0.45 1 1-0.45 1-1 1z" fill="#444444"></path>
</svg>
