<?xml version="1.0" encoding="utf-8"?>
<!-- Generated by IcoMoon.io -->
<!DOCTYPE svg PUBLIC "-//W3C//DTD SVG 1.1//EN" "http://www.w3.org/Graphics/SVG/1.1/DTD/svg11.dtd">
<svg version="1.1" xmlns="http://www.w3.org/2000/svg" xmlns:xlink="http://www.w3.org/1999/xlink" width="24" height="24" viewBox="0 0 24 24">
<path d="M11 17h2v-1h1c0.55 0 1-0.45 1-1v-3c0-0.55-0.45-1-1-1h-3v-1h4v-2h-2v-1h-2v1h-1c-0.55 0-1 0.45-1 1v3c0 0.55 0.45 1 1 1h3v1h-4v2h2v1zM20 4h-16c-1.105 0-1.99 0.895-1.99 2l-0.010 12c0 1.105 0.895 2 2 2h16c1.105 0 2-0.895 2-2v-12c0-1.105-0.895-2-2-2zM20 18h-16v-12h16v12z" fill="#444444"></path>
</svg>
