<?xml version="1.0" encoding="utf-8"?>
<!-- Generated by IcoMoon.io -->
<!DOCTYPE svg PUBLIC "-//W3C//DTD SVG 1.1//EN" "http://www.w3.org/Graphics/SVG/1.1/DTD/svg11.dtd">
<svg version="1.1" xmlns="http://www.w3.org/2000/svg" xmlns:xlink="http://www.w3.org/1999/xlink" width="24" height="24" viewBox="0 0 24 24">
<path d="M20 12c0-1.105 0.895-2 2-2v-4c0-1.105-0.895-2-2-2h-16c-1.105 0-1.99 0.895-1.99 2l-0.005 4c1.105 0.005 1.995 0.9 1.995 2 0 1.105-0.895 2-1.995 2l-0.005 4c0 1.105 0.895 2 2 2h16c1.105 0 2-0.895 2-2v-4c-1.105 0-2-0.895-2-2zM15.58 16.8l-3.58-2.3-3.58 2.3 1.080-4.115-3.29-2.69 4.245-0.25 1.545-3.945 1.545 3.945 4.245 0.25-3.29 2.69 1.080 4.115z" fill="#444444"></path>
</svg>
