<?xml version="1.0" encoding="utf-8"?>
<!-- Generated by IcoMoon.io -->
<!DOCTYPE svg PUBLIC "-//W3C//DTD SVG 1.1//EN" "http://www.w3.org/Graphics/SVG/1.1/DTD/svg11.dtd">
<svg version="1.1" xmlns="http://www.w3.org/2000/svg" xmlns:xlink="http://www.w3.org/1999/xlink" width="24" height="24" viewBox="0 0 24 24">
<path d="M20.94 11.085c-0.46-4.17-3.77-7.48-7.94-7.94v-2.060h-2v2.060c-1.13 0.125-2.19 0.465-3.155 0.97l1.5 1.5c0.82-0.335 1.715-0.525 2.655-0.525 3.865 0 7 3.135 7 7 0 0.94-0.19 1.835-0.525 2.655l1.5 1.5c0.505-0.965 0.84-2.025 0.965-3.155h2.060v-2h-2.060zM3 4.36l2.035 2.035c-1.070 1.31-1.785 2.92-1.98 4.69h-2.055v2h2.060c0.46 4.17 3.77 7.48 7.94 7.94v2.060h2v-2.060c1.77-0.195 3.38-0.91 4.69-1.98l2.040 2.040 1.27-1.27-16.725-16.73-1.275 1.275zM16.265 17.625c-1.18 0.91-2.66 1.46-4.265 1.46-3.865 0-7-3.135-7-7 0-1.61 0.55-3.085 1.46-4.265l9.805 9.805z" fill="#444444"></path>
</svg>
