<?xml version="1.0" encoding="utf-8"?>
<!-- Generated by IcoMoon.io -->
<!DOCTYPE svg PUBLIC "-//W3C//DTD SVG 1.1//EN" "http://www.w3.org/Graphics/SVG/1.1/DTD/svg11.dtd">
<svg version="1.1" xmlns="http://www.w3.org/2000/svg" xmlns:xlink="http://www.w3.org/1999/xlink" width="24" height="24" viewBox="0 0 24 24">
<path d="M19 2h-14c-1.105 0-2 0.895-2 2v14c0 1.105 0.895 2 2 2h4l3 3 3-3h4c1.105 0 2-0.895 2-2v-14c0-1.105-0.895-2-2-2zM12 5.3c1.49 0 2.7 1.21 2.7 2.7s-1.21 2.7-2.7 2.7c-1.49 0-2.7-1.21-2.7-2.7s1.21-2.7 2.7-2.7zM18 16h-12v-0.9c0-2 4-3.1 6-3.1s6 1.1 6 3.1v0.9z" fill="#444444"></path>
</svg>
