<?xml version="1.0" encoding="utf-8"?>
<!-- Generated by IcoMoon.io -->
<!DOCTYPE svg PUBLIC "-//W3C//DTD SVG 1.1//EN" "http://www.w3.org/Graphics/SVG/1.1/DTD/svg11.dtd">
<svg version="1.1" xmlns="http://www.w3.org/2000/svg" xmlns:xlink="http://www.w3.org/1999/xlink" width="24" height="24" viewBox="0 0 24 24">
<path d="M20.94 11.085c-0.46-4.17-3.77-7.48-7.94-7.94v-2.060h-2v2.060c-4.17 0.46-7.48 3.77-7.94 7.94h-2.060v2h2.060c0.46 4.17 3.77 7.48 7.94 7.94v2.060h2v-2.060c4.17-0.46 7.48-3.77 7.94-7.94h2.060v-2h-2.060zM12 19.085c-3.865 0-7-3.135-7-7s3.135-7 7-7 7 3.135 7 7-3.135 7-7 7z" fill="#444444"></path>
</svg>
