<?xml version="1.0" encoding="utf-8"?>
<!-- Generated by IcoMoon.io -->
<!DOCTYPE svg PUBLIC "-//W3C//DTD SVG 1.1//EN" "http://www.w3.org/Graphics/SVG/1.1/DTD/svg11.dtd">
<svg version="1.1" xmlns="http://www.w3.org/2000/svg" xmlns:xlink="http://www.w3.org/1999/xlink" width="24" height="24" viewBox="0 0 24 24">
<path d="M19 6h-2c0-2.76-2.24-5-5-5s-5 2.24-5 5h-2c-1.105 0-1.99 0.895-1.99 2l-0.010 12c0 1.105 0.895 2 2 2h14c1.105 0 2-0.895 2-2v-12c0-1.105-0.895-2-2-2zM12 3c1.655 0 3 1.345 3 3h-6c0-1.655 1.345-3 3-3zM12 13c-2.76 0-5-2.24-5-5h2c0 1.655 1.345 3 3 3s3-1.345 3-3h2c0 2.76-2.24 5-5 5z" fill="#444444"></path>
</svg>
