<?xml version="1.0" encoding="utf-8"?>
<!-- Generated by IcoMoon.io -->
<!DOCTYPE svg PUBLIC "-//W3C//DTD SVG 1.1//EN" "http://www.w3.org/Graphics/SVG/1.1/DTD/svg11.dtd">
<svg version="1.1" xmlns="http://www.w3.org/2000/svg" xmlns:xlink="http://www.w3.org/1999/xlink" width="24" height="24" viewBox="0 0 24 24">
<path d="M9.17 16.83c1.56 1.56 4.095 1.56 5.655 0s1.56-4.095 0-5.655l-5.655 5.655zM18 2.010l-12-0.010c-1.105 0-2 0.895-2 2v16c0 1.105 0.895 2 2 2h12c1.105 0 2-0.895 2-2v-16c0-1.105-0.895-1.99-2-1.99zM10 4c0.55 0 1 0.45 1 1s-0.45 1-1 1-1-0.45-1-1 0.45-1 1-1zM7 4c0.55 0 1 0.45 1 1s-0.45 1-1 1-1-0.45-1-1 0.45-1 1-1zM12 20c-3.315 0-6-2.685-6-6s2.685-6 6-6 6 2.685 6 6-2.685 6-6 6z" fill="#444444"></path>
</svg>
