<?xml version="1.0" encoding="utf-8"?>
<!-- Generated by IcoMoon.io -->
<!DOCTYPE svg PUBLIC "-//W3C//DTD SVG 1.1//EN" "http://www.w3.org/Graphics/SVG/1.1/DTD/svg11.dtd">
<svg version="1.1" xmlns="http://www.w3.org/2000/svg" xmlns:xlink="http://www.w3.org/1999/xlink" width="24" height="24" viewBox="0 0 24 24">
<path d="M19.005 3h-14c-1.105 0-2 0.895-2 2v14c0 1.105 0.895 2 2 2h14c1.105 0 2-0.895 2-2v-14c0-1.105-0.895-2-2-2zM15.005 10.5c0 0.83-0.67 1.5-1.5 1.5 0.83 0 1.5 0.67 1.5 1.5v1.5c0 1.105-0.895 2-2 2h-4v-2h4v-2h-2v-2h2v-2h-4v-2h4c1.105 0 2 0.895 2 2v1.5z" fill="#444444"></path>
</svg>
