<?xml version="1.0" encoding="utf-8"?>
<!-- Generated by IcoMoon.io -->
<!DOCTYPE svg PUBLIC "-//W3C//DTD SVG 1.1//EN" "http://www.w3.org/Graphics/SVG/1.1/DTD/svg11.dtd">
<svg version="1.1" xmlns="http://www.w3.org/2000/svg" xmlns:xlink="http://www.w3.org/1999/xlink" width="24" height="24" viewBox="0 0 24 24">
<path d="M21.41 11.58l-8.995-8.995c-0.36-0.36-0.86-0.585-1.415-0.585h-7c-1.105 0-2 0.895-2 2v7c0 0.555 0.225 1.055 0.59 1.415l9 9c0.36 0.36 0.86 0.585 1.41 0.585 0.555 0 1.055-0.225 1.415-0.585l7-7c0.36-0.365 0.585-0.865 0.585-1.415 0-0.555-0.225-1.055-0.59-1.42zM5.5 7c-0.83 0-1.5-0.67-1.5-1.5s0.67-1.5 1.5-1.5 1.5 0.67 1.5 1.5-0.67 1.5-1.5 1.5zM17.27 15.27l-4.27 4.27-4.27-4.27c-0.45-0.455-0.73-1.080-0.73-1.77 0-1.38 1.12-2.5 2.5-2.5 0.69 0 1.32 0.28 1.77 0.735l0.73 0.73 0.73-0.73c0.455-0.455 1.080-0.735 1.77-0.735 1.38 0 2.5 1.12 2.5 2.5 0 0.69-0.28 1.315-0.73 1.77z" fill="#444444"></path>
</svg>
