<?xml version="1.0" encoding="utf-8"?>
<!-- Generated by IcoMoon.io -->
<!DOCTYPE svg PUBLIC "-//W3C//DTD SVG 1.1//EN" "http://www.w3.org/Graphics/SVG/1.1/DTD/svg11.dtd">
<svg version="1.1" xmlns="http://www.w3.org/2000/svg" xmlns:xlink="http://www.w3.org/1999/xlink" width="24" height="24" viewBox="0 0 24 24">
<path d="M15 9h-6v6h6v-6zM13 13h-2v-2h2v2zM21 11v-2h-2v-2c0-1.105-0.895-2-2-2h-2v-2h-2v2h-2v-2h-2v2h-2c-1.105 0-2 0.895-2 2v2h-2v2h2v2h-2v2h2v2c0 1.105 0.895 2 2 2h2v2h2v-2h2v2h2v-2h2c1.105 0 2-0.895 2-2v-2h2v-2h-2v-2h2zM17 17h-10v-10h10v10z" fill="#444444"></path>
</svg>
