<?xml version="1.0" encoding="utf-8"?>
<!-- Generated by IcoMoon.io -->
<!DOCTYPE svg PUBLIC "-//W3C//DTD SVG 1.1//EN" "http://www.w3.org/Graphics/SVG/1.1/DTD/svg11.dtd">
<svg version="1.1" xmlns="http://www.w3.org/2000/svg" xmlns:xlink="http://www.w3.org/1999/xlink" width="24" height="24" viewBox="0 0 24 24">
<path d="M19 11h-1.7c0 0.745-0.155 1.435-0.435 2.050l1.23 1.23c0.57-0.975 0.905-2.090 0.905-3.28zM14.985 11.165c0-0.055 0.015-0.11 0.015-0.165v-6c0-1.66-1.345-3-3-3s-3 1.34-3 3v0.185l5.985 5.98zM4.275 3l-1.275 1.275 6.010 6.010v0.72c0 1.655 1.335 3 2.99 3 0.225 0 0.44-0.030 0.65-0.075l1.66 1.66c-0.715 0.33-1.5 0.515-2.31 0.515-2.76 0-5.3-2.1-5.3-5.1h-1.7c0 3.415 2.72 6.235 6 6.72v3.275h2v-3.28c0.905-0.135 1.765-0.45 2.54-0.905l4.185 4.185 1.275-1.27-16.725-16.73z" fill="#444444"></path>
</svg>
