<?xml version="1.0" encoding="utf-8"?>
<!-- Generated by IcoMoon.io -->
<!DOCTYPE svg PUBLIC "-//W3C//DTD SVG 1.1//EN" "http://www.w3.org/Graphics/SVG/1.1/DTD/svg11.dtd">
<svg version="1.1" xmlns="http://www.w3.org/2000/svg" xmlns:xlink="http://www.w3.org/1999/xlink" width="24" height="24" viewBox="0 0 24 24">
<path d="M20 2h-12c-1.105 0-2 0.895-2 2v12c0 1.105 0.895 2 2 2h12c1.105 0 2-0.895 2-2v-12c0-1.105-0.895-2-2-2zM18 7h-3v5.5c0 1.38-1.12 2.5-2.5 2.5s-2.5-1.12-2.5-2.5 1.12-2.5 2.5-2.5c0.565 0 1.080 0.195 1.5 0.51v-5.51h4v2zM4 6h-2v14c0 1.105 0.895 2 2 2h14v-2h-14v-14z" fill="#444444"></path>
</svg>
