<?xml version="1.0" encoding="utf-8"?>
<!-- Generated by IcoMoon.io -->
<!DOCTYPE svg PUBLIC "-//W3C//DTD SVG 1.1//EN" "http://www.w3.org/Graphics/SVG/1.1/DTD/svg11.dtd">
<svg version="1.1" xmlns="http://www.w3.org/2000/svg" xmlns:xlink="http://www.w3.org/1999/xlink" width="24" height="24" viewBox="0 0 24 24">
<path d="M4 6h-2v14c0 1.105 0.895 2 2 2h14v-2h-14v-14zM20 2h-12c-1.105 0-2 0.895-2 2v12c0 1.105 0.895 2 2 2h12c1.105 0 2-0.895 2-2v-12c0-1.105-0.895-2-2-2zM19 11h-4v4h-2v-4h-4v-2h4v-4h2v4h4v2z" fill="#444444"></path>
</svg>
