<?xml version="1.0" encoding="utf-8"?>
<!-- Generated by IcoMoon.io -->
<!DOCTYPE svg PUBLIC "-//W3C//DTD SVG 1.1//EN" "http://www.w3.org/Graphics/SVG/1.1/DTD/svg11.dtd">
<svg version="1.1" xmlns="http://www.w3.org/2000/svg" xmlns:xlink="http://www.w3.org/1999/xlink" width="24" height="24" viewBox="0 0 24 24">
<path d="M22.17 9.17c0-3.865-3.135-7-7-7s-7 3.135-7 7c0 3.465 2.52 6.335 5.83 6.895v3.935h-8v-3h1v-4c0-0.55-0.45-1-1-1h-3c-0.55 0-1 0.45-1 1v4h1v5h16v-2h-3v-3.88c3.475-0.41 6.17-3.365 6.17-6.95zM4.5 11c0.83 0 1.5-0.67 1.5-1.5s-0.67-1.5-1.5-1.5-1.5 0.67-1.5 1.5 0.67 1.5 1.5 1.5z" fill="#444444"></path>
</svg>
