<?xml version="1.0" encoding="utf-8"?>
<!-- Generated by IcoMoon.io -->
<!DOCTYPE svg PUBLIC "-//W3C//DTD SVG 1.1//EN" "http://www.w3.org/Graphics/SVG/1.1/DTD/svg11.dtd">
<svg version="1.1" xmlns="http://www.w3.org/2000/svg" xmlns:xlink="http://www.w3.org/1999/xlink" width="24" height="24" viewBox="0 0 24 24">
<path d="M19.5 10c0.17 0 0.335 0.030 0.5 0.050v-9.050l-19 19h13v-3c0-0.885 0.385-1.685 1-2.235v-0.265c0-2.48 2.020-4.5 4.5-4.5zM22 16v-1.5c0-1.38-1.12-2.5-2.5-2.5s-2.5 1.12-2.5 2.5v1.5c-0.55 0-1 0.45-1 1v4c0 0.55 0.45 1 1 1h5c0.55 0 1-0.45 1-1v-4c0-0.55-0.45-1-1-1zM21 16h-3v-1.5c0-0.83 0.67-1.5 1.5-1.5s1.5 0.67 1.5 1.5v1.5z" fill="#444444"></path>
</svg>
