<?xml version="1.0" encoding="utf-8"?>
<!-- Generated by IcoMoon.io -->
<!DOCTYPE svg PUBLIC "-//W3C//DTD SVG 1.1//EN" "http://www.w3.org/Graphics/SVG/1.1/DTD/svg11.dtd">
<svg version="1.1" xmlns="http://www.w3.org/2000/svg" xmlns:xlink="http://www.w3.org/1999/xlink" width="24" height="24" viewBox="0 0 24 24">
<path d="M20 2.085h-16c-1.105 0-2 0.895-2 2v16c0 1.105 0.895 2 2 2h16c1.105 0 2-0.895 2-2v-16c0-1.105-0.895-2-2-2zM20 20.085h-16v-16h16v16zM18 6.085h-5c-1.105 0-2 0.895-2 2v2.275c-0.595 0.345-1 0.985-1 1.725 0 1.105 0.895 2 2 2s2-0.895 2-2c0-0.74-0.405-1.375-1-1.725v-2.275h3v8h-8v-8h2v-2h-4v12h12v-12z" fill="#444444"></path>
</svg>
