<?xml version="1.0" encoding="utf-8"?>
<!-- Generated by IcoMoon.io -->
<!DOCTYPE svg PUBLIC "-//W3C//DTD SVG 1.1//EN" "http://www.w3.org/Graphics/SVG/1.1/DTD/svg11.dtd">
<svg version="1.1" xmlns="http://www.w3.org/2000/svg" xmlns:xlink="http://www.w3.org/1999/xlink" width="24" height="24" viewBox="0 0 24 24">
<path d="M11.5 22c1.105 0 2-0.895 2-2h-4c0 1.105 0.895 2 2 2zM18 10.5c0-3.075-2.135-5.64-5-6.32v-0.68c0-0.83-0.67-1.5-1.5-1.5s-1.5 0.67-1.5 1.5v0.68c-0.51 0.12-0.99 0.32-1.445 0.555l9.445 9.445v-3.68zM17.73 19l2 2 1.27-1.275-16.725-16.725-1.275 1.275 2.92 2.92c-0.58 0.965-0.92 2.095-0.92 3.305v5.5l-2 2v1h14.73z" fill="#444444"></path>
</svg>
