<?xml version="1.0" encoding="utf-8"?>
<!-- Generated by IcoMoon.io -->
<!DOCTYPE svg PUBLIC "-//W3C//DTD SVG 1.1//EN" "http://www.w3.org/Graphics/SVG/1.1/DTD/svg11.dtd">
<svg version="1.1" xmlns="http://www.w3.org/2000/svg" xmlns:xlink="http://www.w3.org/1999/xlink" width="24" height="24" viewBox="0 0 24 24">
<path d="M4 4h7v-2h-7c-1.105 0-2 0.895-2 2v7h2v-7zM10 13l-4 5h12l-3-4-2.030 2.71-2.97-3.71zM17 8.5c0-0.83-0.67-1.5-1.5-1.5s-1.5 0.67-1.5 1.5 0.67 1.5 1.5 1.5 1.5-0.67 1.5-1.5zM20 2h-7v2h7v7h2v-7c0-1.105-0.895-2-2-2zM20 20h-7v2h7c1.105 0 2-0.895 2-2v-7h-2v7zM4 13h-2v7c0 1.105 0.895 2 2 2h7v-2h-7v-7z" fill="#444444"></path>
</svg>
