<?xml version="1.0" encoding="utf-8"?>
<!-- Generated by IcoMoon.io -->
<!DOCTYPE svg PUBLIC "-//W3C//DTD SVG 1.1//EN" "http://www.w3.org/Graphics/SVG/1.1/DTD/svg11.dtd">
<svg version="1.1" xmlns="http://www.w3.org/2000/svg" xmlns:xlink="http://www.w3.org/1999/xlink" width="24" height="24" viewBox="0 0 24 24">
<path d="M11 8c-1.655 0-3 1.345-3 3s1.345 3 3 3 3-1.345 3-3-1.345-3-3-3zM19 3h-14c-1.105 0-2 0.895-2 2v14c0 1.105 0.895 2 2 2h14c1.105 0 2-0.895 2-2v-14c0-1.105-0.895-2-2-2zM17.585 19l-3.83-3.83c-0.79 0.52-1.735 0.83-2.755 0.83-2.76 0-5-2.24-5-5s2.24-5 5-5 5 2.24 5 5c0 1.020-0.31 1.965-0.83 2.755l3.83 3.83-1.415 1.415z" fill="#444444"></path>
</svg>
