<?xml version="1.0" encoding="utf-8"?>
<!-- Generated by IcoMoon.io -->
<!DOCTYPE svg PUBLIC "-//W3C//DTD SVG 1.1//EN" "http://www.w3.org/Graphics/SVG/1.1/DTD/svg11.dtd">
<svg version="1.1" xmlns="http://www.w3.org/2000/svg" xmlns:xlink="http://www.w3.org/1999/xlink" width="24" height="24" viewBox="0 0 24 24">
<path d="M3 5v6h5l-1-4 4 1v-5h-6c-1.105 0-2 0.895-2 2zM8 13h-5v6c0 1.105 0.895 2 2 2h6v-5l-4 1 1-4zM17 17l-4-1v5h6c1.105 0 2-0.895 2-2v-6h-5l1 4zM19 3h-6v5l4-1-1 4h5v-6c0-1.105-0.895-2-2-2z" fill="#444444"></path>
</svg>
