<?xml version="1.0" encoding="utf-8"?>
<!-- Generated by IcoMoon.io -->
<!DOCTYPE svg PUBLIC "-//W3C//DTD SVG 1.1//EN" "http://www.w3.org/Graphics/SVG/1.1/DTD/svg11.dtd">
<svg version="1.1" xmlns="http://www.w3.org/2000/svg" xmlns:xlink="http://www.w3.org/1999/xlink" width="24" height="24" viewBox="0 0 24 24">
<path d="M19.94 21.12c-1.095-2.94-1.645-6.030-1.645-9.12s0.55-6.18 1.645-9.12c0.040-0.11 0.060-0.215 0.060-0.315 0-0.33-0.235-0.565-0.625-0.565h-14.75c-0.39 0.005-0.625 0.235-0.625 0.565 0 0.095 0.020 0.2 0.060 0.31 1.095 2.94 1.645 6.030 1.645 9.12s-0.55 6.18-1.645 9.12c-0.040 0.115-0.060 0.22-0.060 0.32 0 0.33 0.235 0.565 0.625 0.565h14.75c0.39 0 0.625-0.24 0.625-0.57 0-0.095-0.020-0.2-0.060-0.31zM6.545 20c0.77-2.595 1.16-5.28 1.16-8s-0.39-5.4-1.16-8h10.91c-0.77 2.595-1.16 5.28-1.16 8s0.39 5.4 1.16 8h-10.91z" fill="#444444"></path>
</svg>
