<?xml version="1.0" encoding="utf-8"?>
<!-- Generated by IcoMoon.io -->
<!DOCTYPE svg PUBLIC "-//W3C//DTD SVG 1.1//EN" "http://www.w3.org/Graphics/SVG/1.1/DTD/svg11.dtd">
<svg version="1.1" xmlns="http://www.w3.org/2000/svg" xmlns:xlink="http://www.w3.org/1999/xlink" width="24" height="24" viewBox="0 0 24 24">
<path d="M20 6.545v10.91c-2.595-0.77-5.28-1.16-8-1.16s-5.4 0.39-8 1.16v-10.91c2.595 0.77 5.28 1.16 8 1.16s5.4-0.39 8-1.16zM21.43 4c-0.095 0-0.2 0.020-0.31 0.060-2.94 1.095-6.030 1.645-9.12 1.645s-6.18-0.55-9.12-1.645c-0.11-0.040-0.215-0.060-0.315-0.060-0.33 0-0.565 0.235-0.565 0.625v14.75c0.005 0.39 0.235 0.625 0.565 0.625 0.095 0 0.2-0.020 0.31-0.060 2.94-1.095 6.030-1.645 9.12-1.645s6.18 0.55 9.12 1.645c0.11 0.040 0.215 0.060 0.31 0.060 0.33 0 0.57-0.235 0.565-0.625v-14.75c0.010-0.39-0.23-0.625-0.56-0.625z" fill="#444444"></path>
</svg>
