<?xml version="1.0" encoding="utf-8"?>
<!-- Generated by IcoMoon.io -->
<!DOCTYPE svg PUBLIC "-//W3C//DTD SVG 1.1//EN" "http://www.w3.org/Graphics/SVG/1.1/DTD/svg11.dtd">
<svg version="1.1" xmlns="http://www.w3.org/2000/svg" xmlns:xlink="http://www.w3.org/1999/xlink" width="24" height="24" viewBox="0 0 24 24">
<path d="M12 6c2.45 0 4.71 0.195 7.29 0.635 0.47 1.785 0.71 3.59 0.71 5.365s-0.24 3.58-0.71 5.365c-2.58 0.44-4.84 0.635-7.29 0.635s-4.71-0.195-7.29-0.635c-0.47-1.785-0.71-3.59-0.71-5.365s0.24-3.58 0.71-5.365c2.58-0.44 4.84-0.635 7.29-0.635zM12 4c-2.73 0-5.225 0.24-7.955 0.72l-0.925 0.165-0.25 0.895c-0.58 2.070-0.87 4.145-0.87 6.22s0.29 4.15 0.87 6.22l0.25 0.895 0.925 0.165c2.73 0.48 5.225 0.72 7.955 0.72s5.225-0.24 7.955-0.72l0.925-0.165 0.25-0.895c0.58-2.070 0.87-4.145 0.87-6.22s-0.29-4.15-0.87-6.22l-0.25-0.895-0.925-0.165c-2.73-0.48-5.225-0.72-7.955-0.72z" fill="#444444"></path>
</svg>
