<?xml version="1.0" encoding="utf-8"?>
<!-- Generated by IcoMoon.io -->
<!DOCTYPE svg PUBLIC "-//W3C//DTD SVG 1.1//EN" "http://www.w3.org/Graphics/SVG/1.1/DTD/svg11.dtd">
<svg version="1.1" xmlns="http://www.w3.org/2000/svg" xmlns:xlink="http://www.w3.org/1999/xlink" width="24" height="24" viewBox="0 0 24 24">
<path d="M20 4h-3.17l-1.83-2h-6l-1.83 2h-3.17c-1.105 0-2 0.895-2 2v12c0 1.105 0.895 2 2 2h16c1.105 0 2-0.895 2-2v-12c0-1.105-0.895-2-2-2zM12 7c1.63 0 3.065 0.795 3.98 2h-3.98c-1.655 0-3 1.345-3 3 0 0.355 0.070 0.685 0.185 1h-2.085c-0.065-0.325-0.1-0.655-0.1-1 0-2.76 2.24-5 5-5zM12 17c-1.63 0-3.065-0.79-3.975-2h3.975c1.655 0 3-1.345 3-3 0-0.35-0.070-0.685-0.185-1h2.085c0.065 0.325 0.1 0.655 0.1 1 0 2.76-2.24 5-5 5z" fill="#444444"></path>
</svg>
