<?xml version="1.0" encoding="utf-8"?>
<!-- Generated by IcoMoon.io -->
<!DOCTYPE svg PUBLIC "-//W3C//DTD SVG 1.1//EN" "http://www.w3.org/Graphics/SVG/1.1/DTD/svg11.dtd">
<svg version="1.1" xmlns="http://www.w3.org/2000/svg" xmlns:xlink="http://www.w3.org/1999/xlink" width="24" height="24" viewBox="0 0 24 24">
<path d="M16.5 13c-1.205 0-3.075 0.335-4.5 1.005-1.425-0.67-3.295-1.005-4.5-1.005-2.165 0-6.5 1.085-6.5 3.25v2.75h22v-2.75c0-2.165-4.335-3.25-6.5-3.25zM12.5 17.5h-10v-1.25c0-0.535 2.56-1.75 5-1.75s5 1.215 5 1.75v1.25zM21.5 17.5h-7.5v-1.25c0-0.455-0.2-0.86-0.52-1.22 0.885-0.3 1.965-0.53 3.020-0.53 2.44 0 5 1.215 5 1.75v1.25zM7.5 12c1.935 0 3.5-1.57 3.5-3.5s-1.565-3.5-3.5-3.5c-1.93 0-3.5 1.57-3.5 3.5s1.57 3.5 3.5 3.5zM7.5 6.5c1.105 0 2 0.895 2 2s-0.895 2-2 2-2-0.895-2-2 0.895-2 2-2zM16.5 12c1.935 0 3.5-1.57 3.5-3.5s-1.565-3.5-3.5-3.5c-1.93 0-3.5 1.57-3.5 3.5s1.57 3.5 3.5 3.5zM16.5 6.5c1.105 0 2 0.895 2 2s-0.895 2-2 2-2-0.895-2-2 0.895-2 2-2z" fill="#444444"></path>
</svg>
