<?xml version="1.0" encoding="utf-8"?>
<!-- Generated by IcoMoon.io -->
<!DOCTYPE svg PUBLIC "-//W3C//DTD SVG 1.1//EN" "http://www.w3.org/Graphics/SVG/1.1/DTD/svg11.dtd">
<svg version="1.1" xmlns="http://www.w3.org/2000/svg" xmlns:xlink="http://www.w3.org/1999/xlink" width="24" height="24" viewBox="0 0 24 24">
<path d="M2 6h-2v5h0.010l-0.010 9c0 1.105 0.895 2 2 2h18v-2h-18v-14zM22 4h-8l-2-2h-6c-1.105 0-1.99 0.895-1.99 2l-0.010 12c0 1.105 0.895 2 2 2h16c1.105 0 2-0.895 2-2v-10c0-1.105-0.895-2-2-2zM7 15l4.5-6 3.5 4.505 2.5-3.005 3.5 4.5h-14z" fill="#444444"></path>
</svg>
