<?xml version="1.0" encoding="utf-8"?>
<!-- Generated by IcoMoon.io -->
<!DOCTYPE svg PUBLIC "-//W3C//DTD SVG 1.1//EN" "http://www.w3.org/Graphics/SVG/1.1/DTD/svg11.dtd">
<svg version="1.1" xmlns="http://www.w3.org/2000/svg" xmlns:xlink="http://www.w3.org/1999/xlink" width="24" height="24" viewBox="0 0 24 24">
<path d="M19 3h-1v-2h-2v2h-8v-2h-2v2h-1c-1.105 0-2 0.895-2 2v14c0 1.105 0.895 2 2 2h14c1.105 0 2-0.895 2-2v-14c0-1.105-0.895-2-2-2zM12 6c1.655 0 3 1.345 3 3 0 1.66-1.345 3-3 3s-3-1.34-3-3c0-1.655 1.345-3 3-3zM18 18h-12v-1c0-2 4-3.1 6-3.1s6 1.1 6 3.1v1z" fill="#444444"></path>
</svg>
