<?xml version="1.0" encoding="utf-8"?>
<!-- Generated by IcoMoon.io -->
<!DOCTYPE svg PUBLIC "-//W3C//DTD SVG 1.1//EN" "http://www.w3.org/Graphics/SVG/1.1/DTD/svg11.dtd">
<svg version="1.1" xmlns="http://www.w3.org/2000/svg" xmlns:xlink="http://www.w3.org/1999/xlink" width="24" height="24" viewBox="0 0 24 24">
<path d="M20 5h-3.17l-1.83-2h-6l-1.83 2h-3.17c-1.105 0-2 0.895-2 2v12c0 1.105 0.895 2 2 2h7v-2.090c-2.835-0.48-5-2.945-5-5.91h2c0 2.205 1.795 4 4 4s4-1.795 4-4h2c0 2.965-2.165 5.43-5 5.91v2.090h7c1.105 0 2-0.895 2-2v-12c0-1.105-0.895-2-2-2zM14 13c0 1.105-0.895 2-2 2s-2-0.895-2-2v-4c0-1.105 0.895-2 2-2s2 0.895 2 2v4z" fill="#444444"></path>
</svg>
