<?xml version="1.0" encoding="utf-8"?>
<!-- Generated by IcoMoon.io -->
<!DOCTYPE svg PUBLIC "-//W3C//DTD SVG 1.1//EN" "http://www.w3.org/Graphics/SVG/1.1/DTD/svg11.dtd">
<svg version="1.1" xmlns="http://www.w3.org/2000/svg" xmlns:xlink="http://www.w3.org/1999/xlink" width="24" height="24" viewBox="0 0 24 24">
<path d="M12 5.9c1.16 0 2.1 0.94 2.1 2.1s-0.94 2.1-2.1 2.1-2.1-0.94-2.1-2.1 0.94-2.1 2.1-2.1zM12 14.9c2.975 0 6.1 1.455 6.1 2.1v1.1h-12.2v-1.1c0-0.645 3.125-2.1 6.1-2.1zM12 4c-2.21 0-4 1.79-4 4 0 2.205 1.79 4 4 4s4-1.795 4-4c0-2.21-1.79-4-4-4zM12 13c-2.665 0-8 1.335-8 4v3h16v-3c0-2.665-5.335-4-8-4z" fill="#444444"></path>
</svg>
