<?xml version="1.0" encoding="utf-8"?>
<!-- Generated by IcoMoon.io -->
<!DOCTYPE svg PUBLIC "-//W3C//DTD SVG 1.1//EN" "http://www.w3.org/Graphics/SVG/1.1/DTD/svg11.dtd">
<svg version="1.1" xmlns="http://www.w3.org/2000/svg" xmlns:xlink="http://www.w3.org/1999/xlink" width="24" height="24" viewBox="0 0 24 24">
<path d="M18.99 11.5c0.34 0 0.68 0.030 1.010 0.075v-11.575l-20 20h11.565c-0.045-0.33-0.075-0.66-0.075-1 0-4.14 3.36-7.5 7.5-7.5zM22.705 19.49c0.020-0.16 0.035-0.32 0.035-0.49 0-0.165-0.015-0.33-0.035-0.49l1.055-0.825c0.095-0.075 0.12-0.21 0.060-0.32l-1-1.73c-0.060-0.11-0.195-0.15-0.305-0.11l-1.245 0.5c-0.26-0.2-0.54-0.365-0.845-0.49l-0.185-1.325c-0.020-0.12-0.125-0.21-0.25-0.21h-2c-0.125 0-0.23 0.090-0.245 0.21l-0.185 1.325c-0.305 0.125-0.585 0.295-0.845 0.49l-1.245-0.5c-0.115-0.045-0.245 0-0.305 0.11l-1 1.73c-0.065 0.11-0.035 0.245 0.060 0.32l1.055 0.825c-0.020 0.16-0.035 0.325-0.035 0.49s0.015 0.33 0.035 0.49l-1.055 0.825c-0.095 0.075-0.12 0.21-0.060 0.32l1 1.73c0.065 0.11 0.195 0.15 0.305 0.11l1.245-0.5c0.26 0.2 0.54 0.365 0.845 0.49l0.185 1.325c0.020 0.12 0.125 0.21 0.245 0.21h2c0.125 0 0.225-0.090 0.245-0.21l0.185-1.325c0.305-0.125 0.585-0.295 0.845-0.49l1.245 0.5c0.115 0.045 0.245 0 0.305-0.11l1-1.73c0.065-0.11 0.035-0.245-0.060-0.32l-1.050-0.825zM18.99 20.5c-0.83 0-1.5-0.67-1.5-1.5s0.67-1.5 1.5-1.5 1.5 0.67 1.5 1.5-0.67 1.5-1.5 1.5z" fill="#444444"></path>
</svg>
