<?xml version="1.0" encoding="utf-8"?>
<!-- Generated by IcoMoon.io -->
<!DOCTYPE svg PUBLIC "-//W3C//DTD SVG 1.1//EN" "http://www.w3.org/Graphics/SVG/1.1/DTD/svg11.dtd">
<svg version="1.1" xmlns="http://www.w3.org/2000/svg" xmlns:xlink="http://www.w3.org/1999/xlink" width="24" height="24" viewBox="0 0 24 24">
<path d="M6.5 5.5l5.5 5.5 7-7-1-1-6 6-4.5-4.5h3.5v-1.5h-6v6h1.5v-3.5zM23.705 16.67c-3.045-2.895-7.17-4.67-11.705-4.67s-8.66 1.775-11.705 4.67c-0.185 0.185-0.295 0.435-0.295 0.71s0.11 0.525 0.295 0.705l2.475 2.48c0.18 0.18 0.43 0.295 0.71 0.295 0.27 0 0.52-0.11 0.7-0.285 0.79-0.735 1.69-1.36 2.665-1.855 0.33-0.165 0.56-0.505 0.56-0.9v-3.105c1.445-0.465 2.99-0.715 4.595-0.715s3.15 0.25 4.6 0.72v3.105c0 0.395 0.23 0.735 0.56 0.9 0.975 0.49 1.875 1.115 2.665 1.855 0.18 0.175 0.425 0.285 0.7 0.285s0.525-0.11 0.71-0.295l2.475-2.48c0.18-0.18 0.295-0.43 0.295-0.705s-0.115-0.53-0.3-0.715z" fill="#444444"></path>
</svg>
