<?xml version="1.0" encoding="utf-8"?>
<!-- Generated by IcoMoon.io -->
<!DOCTYPE svg PUBLIC "-//W3C//DTD SVG 1.1//EN" "http://www.w3.org/Graphics/SVG/1.1/DTD/svg11.dtd">
<svg version="1.1" xmlns="http://www.w3.org/2000/svg" xmlns:xlink="http://www.w3.org/1999/xlink" width="24" height="24" viewBox="0 0 24 24">
<path d="M22 6v-2h-15.18l2 2h13.18zM1.92 1.645l-1.275 1.275 1.815 1.815c-0.28 0.345-0.46 0.785-0.46 1.265v11h-2v3h17.73l2.355 2.355 1.27-1.275-19.435-19.435zM4 6.275l10.73 10.725h-10.73v-10.725zM23 8h-6c-0.55 0-1 0.45-1 1v4.18l2 2v-5.18h4v7h-2.18l3 3h0.18c0.55 0 1-0.45 1-1v-10c0-0.55-0.45-1-1-1z" fill="#444444"></path>
</svg>
