<?xml version="1.0" encoding="utf-8"?>
<!-- Generated by IcoMoon.io -->
<!DOCTYPE svg PUBLIC "-//W3C//DTD SVG 1.1//EN" "http://www.w3.org/Graphics/SVG/1.1/DTD/svg11.dtd">
<svg version="1.1" xmlns="http://www.w3.org/2000/svg" xmlns:xlink="http://www.w3.org/1999/xlink" width="24" height="24" viewBox="0 0 24 24">
<path d="M20 15.5c-1.245 0-2.45-0.2-3.57-0.57-0.345-0.11-0.74-0.030-1.015 0.245l-2.2 2.205c-2.835-1.44-5.145-3.755-6.59-6.585l2.2-2.205c0.275-0.275 0.355-0.67 0.245-1.015-0.37-1.125-0.57-2.33-0.57-3.575 0-0.555-0.445-1-1-1h-3.5c-0.55 0-1 0.445-1 1 0 9.39 7.61 17 17 17 0.555 0 1-0.445 1-1v-3.5c0-0.555-0.445-1-1-1zM20 4v-0.5c0-1.38-1.12-2.5-2.5-2.5s-2.5 1.12-2.5 2.5v0.5c-0.555 0-1 0.45-1 1v4c0 0.55 0.445 1 1 1h5c0.555 0 1-0.45 1-1v-4c0-0.55-0.445-1-1-1zM19.2 4h-3.4v-0.5c0-0.94 0.76-1.7 1.7-1.7s1.7 0.76 1.7 1.7v0.5z" fill="#444444"></path>
</svg>
