<?xml version="1.0" encoding="utf-8"?>
<!-- Generated by IcoMoon.io -->
<!DOCTYPE svg PUBLIC "-//W3C//DTD SVG 1.1//EN" "http://www.w3.org/Graphics/SVG/1.1/DTD/svg11.dtd">
<svg version="1.1" xmlns="http://www.w3.org/2000/svg" xmlns:xlink="http://www.w3.org/1999/xlink" width="24" height="24" viewBox="0 0 24 24">
<path d="M12 12.25c1.24 0 2.25-1.005 2.25-2.25 0-1.24-1.010-2.25-2.25-2.25s-2.25 1.010-2.25 2.25c0 1.245 1.010 2.25 2.25 2.25zM16.5 16.25c0-1.5-3-2.25-4.5-2.25s-4.5 0.75-4.5 2.25v0.75h9v-0.75zM19 3h-14c-1.105 0-2 0.895-2 2v14c0 1.105 0.895 2 2 2h14c1.105 0 2-0.895 2-2v-14c0-1.105-0.895-2-2-2zM19 19h-14v-14h14v14z" fill="#444444"></path>
</svg>
