<?xml version="1.0" encoding="utf-8"?>
<!-- Generated by IcoMoon.io -->
<!DOCTYPE svg PUBLIC "-//W3C//DTD SVG 1.1//EN" "http://www.w3.org/Graphics/SVG/1.1/DTD/svg11.dtd">
<svg version="1.1" xmlns="http://www.w3.org/2000/svg" xmlns:xlink="http://www.w3.org/1999/xlink" width="24" height="24" viewBox="0 0 24 24">
<path d="M17.56 14.24c0.28-0.69 0.44-1.445 0.44-2.24 0-3.315-2.685-6-6-6-0.795 0-1.55 0.16-2.245 0.44l1.625 1.625c0.205-0.035 0.41-0.065 0.62-0.065 2.21 0 4 1.79 4 4 0 0.215-0.020 0.425-0.055 0.625l1.615 1.615zM12 4c4.42 0 8 3.58 8 8 0 1.355-0.35 2.62-0.945 3.735l1.47 1.47c0.93-1.515 1.475-3.295 1.475-5.205 0-5.525-4.48-10-10-10-1.91 0-3.69 0.545-5.205 1.475l1.46 1.46c1.115-0.595 2.39-0.935 3.745-0.935zM3.27 2.5l-1.27 1.275 2.105 2.105c-1.315 1.69-2.105 3.81-2.105 6.12 0 3.695 2.010 6.915 4.995 8.645l1-1.73c-2.385-1.38-3.995-3.96-3.995-6.915 0-1.755 0.57-3.375 1.53-4.695l1.435 1.435c-0.61 0.94-0.965 2.055-0.965 3.26 0 2.22 1.205 4.15 2.995 5.19l1.010-1.74c-1.195-0.695-2.005-1.97-2.005-3.45 0-0.645 0.17-1.245 0.44-1.785l1.58 1.58-0.020 0.205c0 1.105 0.895 2 2 2l0.205-0.020 7.52 7.52 1.275-1.275-17.73-17.725z" fill="#444444"></path>
</svg>
