<?xml version="1.0" encoding="utf-8"?>
<!-- Generated by IcoMoon.io -->
<!DOCTYPE svg PUBLIC "-//W3C//DTD SVG 1.1//EN" "http://www.w3.org/Graphics/SVG/1.1/DTD/svg11.dtd">
<svg version="1.1" xmlns="http://www.w3.org/2000/svg" xmlns:xlink="http://www.w3.org/1999/xlink" width="24" height="24" viewBox="0 0 24 24">
<path d="M22 3h-20c-1.105 0-2 0.895-2 2v14c0 1.105 0.895 2 2 2h20c1.105 0 1.99-0.895 1.99-2l0.010-14c0-1.105-0.895-2-2-2zM8 6c1.655 0 3 1.345 3 3 0 1.66-1.345 3-3 3s-3-1.34-3-3c0-1.655 1.345-3 3-3zM14 18h-12v-1c0-2 4-3.1 6-3.1s6 1.1 6 3.1v1zM17.85 14h1.64l1.51 2-1.995 1.995c-1.305-0.98-2.28-2.375-2.73-3.995-0.175-0.64-0.275-1.305-0.275-2s0.1-1.36 0.28-2c0.445-1.62 1.42-3.015 2.73-3.995l1.99 1.995-1.51 2h-1.64c-0.22 0.625-0.35 1.3-0.35 2s0.125 1.375 0.35 2z" fill="#444444"></path>
</svg>
