<?xml version="1.0" encoding="utf-8"?>
<!-- Generated by IcoMoon.io -->
<!DOCTYPE svg PUBLIC "-//W3C//DTD SVG 1.1//EN" "http://www.w3.org/Graphics/SVG/1.1/DTD/svg11.dtd">
<svg version="1.1" xmlns="http://www.w3.org/2000/svg" xmlns:xlink="http://www.w3.org/1999/xlink" width="24" height="24" viewBox="0 0 24 24">
<path d="M21 5v14h2v-14h-2zM17 19h2v-14h-2v14zM14 5h-12c-0.55 0-1 0.45-1 1v12c0 0.55 0.45 1 1 1h12c0.55 0 1-0.45 1-1v-12c0-0.55-0.45-1-1-1zM8 7.75c1.24 0 2.25 1.010 2.25 2.25 0 1.245-1.010 2.25-2.25 2.25s-2.25-1.005-2.25-2.25c0-1.24 1.010-2.25 2.25-2.25zM12.5 17h-9v-0.75c0-1.5 3-2.25 4.5-2.25s4.5 0.75 4.5 2.25v0.75z" fill="#444444"></path>
</svg>
