<?xml version="1.0" encoding="utf-8"?>
<!-- Generated by IcoMoon.io -->
<!DOCTYPE svg PUBLIC "-//W3C//DTD SVG 1.1//EN" "http://www.w3.org/Graphics/SVG/1.1/DTD/svg11.dtd">
<svg version="1.1" xmlns="http://www.w3.org/2000/svg" xmlns:xlink="http://www.w3.org/1999/xlink" width="24" height="24" viewBox="0 0 24 24">
<path d="M12.995 3c-4.975 0-8.995 4.030-8.995 9h-3l3.895 3.895 0.070 0.145 4.035-4.040h-3c0-3.865 3.135-7 7-7s7 3.135 7 7-3.135 7-7 7c-1.935 0-3.68-0.79-4.945-2.055l-1.415 1.415c1.625 1.63 3.87 2.64 6.355 2.64 4.975 0 9.005-4.030 9.005-9s-4.030-9-9.005-9zM12 8v5l4.28 2.54 0.72-1.215-3.5-2.075v-4.25h-1.5z" fill="#444444"></path>
</svg>
