<?xml version="1.0" encoding="utf-8"?>
<!-- Generated by IcoMoon.io -->
<!DOCTYPE svg PUBLIC "-//W3C//DTD SVG 1.1//EN" "http://www.w3.org/Graphics/SVG/1.1/DTD/svg11.dtd">
<svg version="1.1" xmlns="http://www.w3.org/2000/svg" xmlns:xlink="http://www.w3.org/1999/xlink" width="24" height="24" viewBox="0 0 24 24">
<path d="M8.1 13.345l2.83-2.83-7.015-7.015c-1.56 1.56-1.56 4.095 0 5.655l4.185 4.19zM14.885 11.53c1.525 0.715 3.68 0.21 5.27-1.38 1.915-1.915 2.28-4.65 0.815-6.115-1.47-1.465-4.21-1.1-6.12 0.815-1.59 1.59-2.090 3.745-1.38 5.27-2.225 2.22-9.765 9.76-9.765 9.76l1.415 1.415 6.88-6.88 6.88 6.88 1.415-1.415-6.88-6.88 1.47-1.47z" fill="#444444"></path>
</svg>
