<?xml version="1.0" encoding="utf-8"?>
<!-- Generated by IcoMoon.io -->
<!DOCTYPE svg PUBLIC "-//W3C//DTD SVG 1.1//EN" "http://www.w3.org/Graphics/SVG/1.1/DTD/svg11.dtd">
<svg version="1.1" xmlns="http://www.w3.org/2000/svg" xmlns:xlink="http://www.w3.org/1999/xlink" width="24" height="24" viewBox="0 0 24 24">
<path d="M15.55 5.55l-4.55-4.55v3.070c-3.945 0.49-7 3.85-7 7.93s3.055 7.44 7 7.93v-2.020c-2.835-0.475-5-2.94-5-5.91s2.165-5.435 5-5.91v3.91l4.55-4.45zM19.93 11c-0.17-1.39-0.725-2.73-1.625-3.89l-1.415 1.415c0.535 0.755 0.875 1.6 1.020 2.475h2.020zM13 17.905v2.025c1.39-0.17 2.74-0.71 3.9-1.61l-1.435-1.435c-0.75 0.53-1.59 0.87-2.465 1.020zM16.89 15.475l1.415 1.415c0.9-1.16 1.455-2.5 1.625-3.89h-2.020c-0.145 0.875-0.485 1.72-1.020 2.475z" fill="#444444"></path>
</svg>
