<?xml version="1.0" encoding="utf-8"?>
<!-- Generated by IcoMoon.io -->
<!DOCTYPE svg PUBLIC "-//W3C//DTD SVG 1.1//EN" "http://www.w3.org/Graphics/SVG/1.1/DTD/svg11.dtd">
<svg version="1.1" xmlns="http://www.w3.org/2000/svg" xmlns:xlink="http://www.w3.org/1999/xlink" width="24" height="24" viewBox="0 0 24 24">
<path d="M7.11 8.525l-1.415-1.415c-0.9 1.16-1.455 2.5-1.625 3.89h2.020c0.145-0.875 0.485-1.72 1.020-2.475zM6.090 13h-2.020c0.17 1.39 0.725 2.73 1.625 3.89l1.415-1.415c-0.535-0.755-0.875-1.6-1.020-2.475zM7.1 18.315c1.16 0.905 2.51 1.44 3.9 1.61v-2.020c-0.875-0.145-1.715-0.49-2.465-1.025l-1.435 1.435zM13 4.070v-3.070l-4.55 4.55 4.55 4.45v-3.91c2.835 0.475 5 2.94 5 5.91s-2.165 5.435-5 5.91v2.020c3.945-0.495 7-3.85 7-7.93s-3.055-7.435-7-7.93z" fill="#444444"></path>
</svg>
