<?xml version="1.0" encoding="utf-8"?>
<!-- Generated by IcoMoon.io -->
<!DOCTYPE svg PUBLIC "-//W3C//DTD SVG 1.1//EN" "http://www.w3.org/Graphics/SVG/1.1/DTD/svg11.dtd">
<svg version="1.1" xmlns="http://www.w3.org/2000/svg" xmlns:xlink="http://www.w3.org/1999/xlink" width="24" height="24" viewBox="0 0 24 24">
<path d="M19 3h-14c-1.105 0-2 0.895-2 2v14c0 1.105 0.895 2 2 2h14c1.105 0 2-0.895 2-2v-14c0-1.105-0.895-2-2-2zM5 4.99h3c0 1.655-1.345 3.010-3 3.010v-3.010zM5 12v-2c2.76 0 5-2.25 5-5.010h2c0 3.865-3.135 7.010-7 7.010zM5 18l3.5-4.5 2.5 3.005 3.5-4.505 4.5 6h-14z" fill="#444444"></path>
</svg>
