<?xml version="1.0" encoding="utf-8"?>
<!-- Generated by IcoMoon.io -->
<!DOCTYPE svg PUBLIC "-//W3C//DTD SVG 1.1//EN" "http://www.w3.org/Graphics/SVG/1.1/DTD/svg11.dtd">
<svg version="1.1" xmlns="http://www.w3.org/2000/svg" xmlns:xlink="http://www.w3.org/1999/xlink" width="24" height="24" viewBox="0 0 24 24">
<path d="M21 5h-18c-1.105 0-2 0.895-2 2v10c0 1.105 0.895 2 2 2h18c1.105 0 2-0.895 2-2v-10c0-1.105-0.895-2-2-2zM19 17h-14v-10h14v10zM10 16h4c0.555 0 1-0.45 1-1v-3c0-0.55-0.445-1-1-1v-1c0-1.105-0.895-2-2-2s-2 0.895-2 2v1c-0.555 0-1 0.45-1 1v3c0 0.55 0.445 1 1 1zM10.8 10c0-0.665 0.535-1.2 1.2-1.2s1.2 0.54 1.2 1.2v1h-2.4v-1z" fill="#444444"></path>
</svg>
