<?xml version="1.0" encoding="utf-8"?>
<!-- Generated by IcoMoon.io -->
<!DOCTYPE svg PUBLIC "-//W3C//DTD SVG 1.1//EN" "http://www.w3.org/Graphics/SVG/1.1/DTD/svg11.dtd">
<svg version="1.1" xmlns="http://www.w3.org/2000/svg" xmlns:xlink="http://www.w3.org/1999/xlink" width="24" height="24" viewBox="0 0 24 24">
<path d="M16.485 2.515c3.265 1.55 5.61 4.725 5.965 8.485h1.5c-0.51-6.16-5.66-11-11.95-11-0.225 0-0.44 0.020-0.665 0.035l3.815 3.815 1.335-1.335zM10.23 1.745c-0.585-0.585-1.535-0.585-2.12 0l-6.365 6.365c-0.585 0.585-0.585 1.535 0 2.12l12.020 12.020c0.585 0.585 1.535 0.585 2.12 0l6.365-6.365c0.585-0.585 0.585-1.535 0-2.12l-12.020-12.020zM14.83 21.19l-12.025-12.020 6.365-6.365 12.020 12.020-6.36 6.365zM7.515 21.485c-3.265-1.55-5.61-4.725-5.965-8.485h-1.5c0.51 6.16 5.66 11 11.95 11 0.225 0 0.44-0.020 0.665-0.035l-3.815-3.815-1.335 1.335z" fill="#444444"></path>
</svg>
