<?xml version="1.0" encoding="utf-8"?>
<!-- Generated by IcoMoon.io -->
<!DOCTYPE svg PUBLIC "-//W3C//DTD SVG 1.1//EN" "http://www.w3.org/Graphics/SVG/1.1/DTD/svg11.dtd">
<svg version="1.1" xmlns="http://www.w3.org/2000/svg" xmlns:xlink="http://www.w3.org/1999/xlink" width="24" height="24" viewBox="0 0 24 24">
<path d="M23.255 12.77l-2.57-2.57-1.415 1.415 2.215 2.215-5.655 5.655-11.315-11.315 5.655-5.655 2.095 2.095 1.415-1.415-2.45-2.45c-0.585-0.585-1.535-0.585-2.12 0l-6.365 6.365c-0.585 0.585-0.585 1.535 0 2.12l12.020 12.020c0.585 0.585 1.535 0.585 2.12 0l6.365-6.365c0.59-0.58 0.59-1.53 0.005-2.115zM8.465 20.485c-3.265-1.55-5.61-4.725-5.965-8.485h-1.5c0.51 6.16 5.66 11 11.95 11 0.225 0 0.44-0.020 0.665-0.035l-3.815-3.815-1.335 1.335zM16 9h5c0.555 0 1-0.45 1-1v-4c0-0.55-0.445-1-1-1v-0.5c0-1.38-1.12-2.5-2.5-2.5s-2.5 1.12-2.5 2.5v0.5c-0.555 0-1 0.45-1 1v4c0 0.55 0.445 1 1 1zM16.8 2.5c0-0.94 0.76-1.7 1.7-1.7s1.7 0.76 1.7 1.7v0.5h-3.4v-0.5z" fill="#444444"></path>
</svg>
