<?xml version="1.0" encoding="utf-8"?>
<!-- Generated by IcoMoon.io -->
<!DOCTYPE svg PUBLIC "-//W3C//DTD SVG 1.1//EN" "http://www.w3.org/Graphics/SVG/1.1/DTD/svg11.dtd">
<svg version="1.1" xmlns="http://www.w3.org/2000/svg" xmlns:xlink="http://www.w3.org/1999/xlink" width="24" height="24" viewBox="0 0 24 24">
<path d="M8 11.5c0-0.83-0.67-1.5-1.5-1.5s-1.5 0.67-1.5 1.5 0.67 1.5 1.5 1.5 1.5-0.67 1.5-1.5zM15 6.5c0-0.83-0.67-1.5-1.5-1.5h-3c-0.83 0-1.5 0.67-1.5 1.5s0.67 1.5 1.5 1.5h3c0.83 0 1.5-0.67 1.5-1.5zM8.5 15c-0.83 0-1.5 0.67-1.5 1.5s0.67 1.5 1.5 1.5 1.5-0.67 1.5-1.5-0.67-1.5-1.5-1.5zM12 1c-6.065 0-11 4.935-11 11s4.935 11 11 11 11-4.935 11-11-4.935-11-11-11zM12 21c-4.965 0-9-4.040-9-9s4.035-9 9-9 9 4.040 9 9-4.035 9-9 9zM17.5 10c-0.83 0-1.5 0.67-1.5 1.5s0.67 1.5 1.5 1.5 1.5-0.67 1.5-1.5-0.67-1.5-1.5-1.5zM15.5 15c-0.83 0-1.5 0.67-1.5 1.5s0.67 1.5 1.5 1.5 1.5-0.67 1.5-1.5-0.67-1.5-1.5-1.5z" fill="#444444"></path>
</svg>
