<?xml version="1.0" encoding="utf-8"?>
<!-- Generated by IcoMoon.io -->
<!DOCTYPE svg PUBLIC "-//W3C//DTD SVG 1.1//EN" "http://www.w3.org/Graphics/SVG/1.1/DTD/svg11.dtd">
<svg version="1.1" xmlns="http://www.w3.org/2000/svg" xmlns:xlink="http://www.w3.org/1999/xlink" width="24" height="24" viewBox="0 0 24 24">
<path d="M21 3h-18c-1.105 0-2 0.895-2 2v14c0 1.105 0.895 2 2 2h18c1.105 0 2-0.895 2-2v-14c0-1.105-0.895-2-2-2zM21 19.015h-18v-14.030h18v14.030zM8 16h2.5l1.5 1.5 1.5-1.5h2.5v-2.5l1.5-1.5-1.5-1.5v-2.5h-2.5l-1.5-1.5-1.5 1.5h-2.5v2.5l-1.5 1.5 1.5 1.5v2.5zM12 9c1.655 0 3 1.345 3 3s-1.345 3-3 3v-6z" fill="#444444"></path>
</svg>
