<?xml version="1.0" encoding="utf-8"?>
<!-- Generated by IcoMoon.io -->
<!DOCTYPE svg PUBLIC "-//W3C//DTD SVG 1.1//EN" "http://www.w3.org/Graphics/SVG/1.1/DTD/svg11.dtd">
<svg version="1.1" xmlns="http://www.w3.org/2000/svg" xmlns:xlink="http://www.w3.org/1999/xlink" width="24" height="24" viewBox="0 0 24 24">
<path d="M12 10c-1.105 0-2 0.895-2 2s0.895 2 2 2 2-0.895 2-2-0.895-2-2-2zM19 3h-14c-1.105 0-2 0.895-2 2v14c0 1.105 0.895 2 2 2h14c1.105 0 2-0.895 2-2v-14c0-1.105-0.895-2-2-2zM17.25 12c0 0.23-0.020 0.46-0.050 0.685l1.48 1.16c0.13 0.105 0.17 0.295 0.080 0.445l-1.4 2.425c-0.085 0.15-0.27 0.21-0.43 0.15l-1.745-0.705c-0.36 0.28-0.755 0.51-1.185 0.69l-0.26 1.855c-0.020 0.165-0.165 0.295-0.34 0.295h-2.8c-0.175 0-0.32-0.13-0.345-0.295l-0.26-1.855c-0.425-0.175-0.82-0.41-1.185-0.69l-1.74 0.7c-0.16 0.060-0.34 0-0.43-0.15l-1.4-2.425c-0.090-0.15-0.050-0.34 0.080-0.445l1.48-1.155c-0.030-0.225-0.050-0.45-0.050-0.685 0-0.23 0.020-0.46 0.050-0.685l-1.48-1.155c-0.13-0.105-0.17-0.295-0.080-0.445l1.4-2.425c0.090-0.15 0.27-0.21 0.43-0.15l1.74 0.7c0.36-0.275 0.755-0.51 1.185-0.69l0.26-1.855c0.025-0.165 0.17-0.295 0.345-0.295h2.8c0.175 0 0.32 0.13 0.345 0.295l0.26 1.855c0.425 0.175 0.82 0.41 1.185 0.69l1.74-0.7c0.16-0.060 0.34 0 0.43 0.15l1.4 2.425c0.090 0.15 0.050 0.34-0.080 0.445l-1.48 1.16c0.030 0.22 0.050 0.45 0.050 0.68z" fill="#444444"></path>
</svg>
