<?xml version="1.0" encoding="utf-8"?>
<!-- Generated by IcoMoon.io -->
<!DOCTYPE svg PUBLIC "-//W3C//DTD SVG 1.1//EN" "http://www.w3.org/Graphics/SVG/1.1/DTD/svg11.dtd">
<svg version="1.1" xmlns="http://www.w3.org/2000/svg" xmlns:xlink="http://www.w3.org/1999/xlink" width="24" height="24" viewBox="0 0 24 24">
<path d="M12 5c-3.865 0-7 3.135-7 7h2c0-2.76 2.24-5 5-5s5 2.24 5 5h2c0-3.865-3.135-7-7-7zM13 14.29c0.88-0.385 1.5-1.265 1.5-2.29 0-1.38-1.12-2.5-2.5-2.5s-2.5 1.12-2.5 2.5c0 1.025 0.62 1.905 1.5 2.29v3.295l-3.415 3.415 1.415 1.415 3-3 3 3 1.415-1.415-3.415-3.415v-3.295zM12 1c-6.075 0-11 4.925-11 11h2c0-4.97 4.030-9 9-9s9 4.030 9 9h2c0-6.075-4.925-11-11-11z" fill="#444444"></path>
</svg>
