<?xml version="1.0" encoding="utf-8"?>
<!-- Generated by IcoMoon.io -->
<!DOCTYPE svg PUBLIC "-//W3C//DTD SVG 1.1//EN" "http://www.w3.org/Graphics/SVG/1.1/DTD/svg11.dtd">
<svg version="1.1" xmlns="http://www.w3.org/2000/svg" xmlns:xlink="http://www.w3.org/1999/xlink" width="24" height="24" viewBox="0 0 24 24">
<path d="M5 2c0-0.55-0.445-1-1-1s-1 0.45-1 1v4h-2v6h6v-6h-2v-4zM9 16c0 1.305 0.84 2.405 2 2.815v4.185h2v-4.185c1.16-0.415 2-1.51 2-2.815v-2h-6v2zM1 16c0 1.305 0.84 2.405 2 2.815v4.185h2v-4.185c1.16-0.415 2-1.51 2-2.815v-2h-6v2zM21 6v-4c0-0.55-0.445-1-1-1s-1 0.45-1 1v4h-2v6h6v-6h-2zM13 2c0-0.55-0.445-1-1-1s-1 0.45-1 1v4h-2v6h6v-6h-2v-4zM17 16c0 1.305 0.84 2.405 2 2.815v4.185h2v-4.185c1.16-0.415 2-1.51 2-2.815v-2h-6v2z" fill="#444444"></path>
</svg>
