<?xml version="1.0" encoding="utf-8"?>
<!-- Generated by IcoMoon.io -->
<!DOCTYPE svg PUBLIC "-//W3C//DTD SVG 1.1//EN" "http://www.w3.org/Graphics/SVG/1.1/DTD/svg11.dtd">
<svg version="1.1" xmlns="http://www.w3.org/2000/svg" xmlns:xlink="http://www.w3.org/1999/xlink" width="24" height="24" viewBox="0 0 24 24">
<path d="M7 24h2v-2h-2v2zM11 24h2v-2h-2v2zM13 2h-2v10h2v-10zM16.565 4.435l-1.445 1.445c1.725 1.055 2.88 2.95 2.88 5.12 0 3.315-2.685 6-6 6s-6-2.685-6-6c0-2.17 1.155-4.065 2.88-5.12l-1.445-1.445c-2.075 1.445-3.435 3.845-3.435 6.565 0 4.42 3.58 8 8 8s8-3.58 8-8c0-2.72-1.36-5.12-3.435-6.565zM15 24h2v-2h-2v2z" fill="#444444"></path>
</svg>
