<?xml version="1.0" encoding="utf-8"?>
<!-- Generated by IcoMoon.io -->
<!DOCTYPE svg PUBLIC "-//W3C//DTD SVG 1.1//EN" "http://www.w3.org/Graphics/SVG/1.1/DTD/svg11.dtd">
<svg version="1.1" xmlns="http://www.w3.org/2000/svg" xmlns:xlink="http://www.w3.org/1999/xlink" width="24" height="24" viewBox="0 0 24 24">
<path d="M14 12c0-1.105-0.895-2-2-2s-2 0.895-2 2 0.895 2 2 2 2-0.895 2-2zM12 3c-4.97 0-9 4.030-9 9h-3l4 4 4-4h-3c0-3.865 3.135-7 7-7s7 3.135 7 7-3.135 7-7 7c-1.515 0-2.91-0.485-4.060-1.305l-1.415 1.435c1.52 1.17 3.415 1.87 5.475 1.87 4.97 0 9-4.030 9-9s-4.030-9-9-9z" fill="#444444"></path>
</svg>
