<?xml version="1.0" encoding="utf-8"?>
<!-- Generated by IcoMoon.io -->
<!DOCTYPE svg PUBLIC "-//W3C//DTD SVG 1.1//EN" "http://www.w3.org/Graphics/SVG/1.1/DTD/svg11.dtd">
<svg version="1.1" xmlns="http://www.w3.org/2000/svg" xmlns:xlink="http://www.w3.org/1999/xlink" width="24" height="24" viewBox="0 0 24 24">
<path d="M9 16h6.5c1.38 0 2.5-1.12 2.5-2.5s-1.12-2.5-2.5-2.5h-0.050c-0.245-1.695-1.69-3-3.45-3-1.4 0-2.6 0.83-3.16 2.020h-0.165c-1.505 0.16-2.675 1.435-2.675 2.98 0 1.655 1.345 3 3 3zM21 3h-18c-1.105 0-2 0.895-2 2v14c0 1.105 0.895 2 2 2h18c1.105 0 2-0.895 2-2v-14c0-1.105-0.895-2-2-2zM21 19.015h-18v-14.030h18v14.030z" fill="#444444"></path>
</svg>
