<?xml version="1.0" encoding="utf-8"?>
<!-- Generated by IcoMoon.io -->
<!DOCTYPE svg PUBLIC "-//W3C//DTD SVG 1.1//EN" "http://www.w3.org/Graphics/SVG/1.1/DTD/svg11.dtd">
<svg version="1.1" xmlns="http://www.w3.org/2000/svg" xmlns:xlink="http://www.w3.org/1999/xlink" width="24" height="24" viewBox="0 0 24 24">
<path d="M15 9h-6c-0.555 0-1 0.45-1 1v12c0 0.55 0.445 1 1 1h6c0.555 0 1-0.45 1-1v-12c0-0.55-0.445-1-1-1zM12 15c-1.105 0-2-0.895-2-2s0.895-2 2-2 2 0.895 2 2-0.895 2-2 2zM7.050 6.050l1.415 1.415c0.905-0.905 2.155-1.465 3.535-1.465s2.63 0.56 3.535 1.465l1.415-1.415c-1.265-1.265-3.015-2.050-4.95-2.050s-3.685 0.785-4.95 2.050zM12 0c-3.035 0-5.785 1.23-7.78 3.22l1.415 1.415c1.63-1.63 3.88-2.635 6.365-2.635s4.735 1.005 6.365 2.635l1.415-1.415c-1.995-1.99-4.745-3.22-7.78-3.22z" fill="#444444"></path>
</svg>
