<?xml version="1.0" encoding="utf-8"?>
<!-- Generated by IcoMoon.io -->
<!DOCTYPE svg PUBLIC "-//W3C//DTD SVG 1.1//EN" "http://www.w3.org/Graphics/SVG/1.1/DTD/svg11.dtd">
<svg version="1.1" xmlns="http://www.w3.org/2000/svg" xmlns:xlink="http://www.w3.org/1999/xlink" width="24" height="24" viewBox="0 0 24 24">
<path d="M17.21 9l-4.38-6.555c-0.19-0.29-0.51-0.425-0.83-0.425s-0.64 0.14-0.83 0.425l-4.38 6.555h-4.79c-0.55 0-1 0.45-1 1 0 0.095 0.015 0.185 0.035 0.27l2.535 9.27c0.235 0.84 1.010 1.46 1.93 1.46h13c0.92 0 1.695-0.62 1.925-1.465l2.535-9.27c0.025-0.080 0.040-0.17 0.040-0.265 0-0.55-0.45-1-1-1h-4.79zM9 9l3-4.4 3 4.4h-6zM12 17c-1.105 0-2-0.895-2-2s0.895-2 2-2 2 0.895 2 2-0.895 2-2 2z" fill="#444444"></path>
</svg>
