<?xml version="1.0" encoding="utf-8"?>
<!-- Generated by IcoMoon.io -->
<!DOCTYPE svg PUBLIC "-//W3C//DTD SVG 1.1//EN" "http://www.w3.org/Graphics/SVG/1.1/DTD/svg11.dtd">
<svg version="1.1" xmlns="http://www.w3.org/2000/svg" xmlns:xlink="http://www.w3.org/1999/xlink" width="24" height="24" viewBox="0 0 24 24">
<path d="M18 5v-2c0-1.105-0.895-2-2-2h-4c-1.105 0-2 0.895-2 2v2h-5v11c0 1.105 0.895 2 2 2h14c1.105 0 2-0.895 2-2v-11h-5zM12 3h4v2h-4v-2zM12 15v-7l5.5 3-5.5 4zM3 9h-2v11c0 1.105 0.895 2 2 2h14c1.105 0 2-0.895 2-2h-16v-11z" fill="#444444"></path>
</svg>
