<?xml version="1.0" encoding="utf-8"?>
<!-- Generated by IcoMoon.io -->
<!DOCTYPE svg PUBLIC "-//W3C//DTD SVG 1.1//EN" "http://www.w3.org/Graphics/SVG/1.1/DTD/svg11.dtd">
<svg version="1.1" xmlns="http://www.w3.org/2000/svg" xmlns:xlink="http://www.w3.org/1999/xlink" width="26" height="24" viewBox="0 0 26 24">
<path d="M21 8.5c0.85 0 1.64 0.23 2.34 0.62l2.24-2.79c-0.48-0.37-5.32-4.33-12.58-4.33s-12.1 3.96-12.58 4.32l12.58 15.68 0.010-0.010 4.21-5.24c-0.76-0.87-1.22-2-1.22-3.25 0-2.76 2.24-5 5-5z" opacity="0.3"></path>
<path d="M21 10c-1.93 0-3.5 1.57-3.5 3.5h1.75c0-0.97 0.78-1.75 1.75-1.75s1.75 0.78 1.75 1.75c0 0.48-0.2 0.92-0.51 1.24l-1.090 1.1c-0.63 0.63-1.020 1.51-1.020 2.47v0.44h1.75c0-1.31 0.39-1.84 1.030-2.47l0.78-0.8c0.5-0.5 0.82-1.2 0.82-1.97-0.010-1.94-1.58-3.51-3.51-3.51zM20.050 21.95h1.9v-1.9h-1.9v1.9z" fill="#444444"></path>
</svg>
