<?xml version="1.0" encoding="utf-8"?>
<!-- Generated by IcoMoon.io -->
<!DOCTYPE svg PUBLIC "-//W3C//DTD SVG 1.1//EN" "http://www.w3.org/Graphics/SVG/1.1/DTD/svg11.dtd">
<svg version="1.1" xmlns="http://www.w3.org/2000/svg" xmlns:xlink="http://www.w3.org/1999/xlink" width="24" height="24" viewBox="0 0 24 24">
<path d="M19.99 4c0-1.105-0.885-2-1.99-2h-8l-6 6v12c0 1.105 0.895 2 2 2h12.010c1.105 0 1.99-0.895 1.99-2l-0.010-16zM9 19h-2v-2h2v2zM17 19h-2v-2h2v2zM9 15h-2v-4h2v4zM13 19h-2v-4h2v4zM13 13h-2v-2h2v2zM17 15h-2v-4h2v4z" fill="#444444"></path>
</svg>
