<?xml version="1.0" encoding="utf-8"?>
<!-- Generated by IcoMoon.io -->
<!DOCTYPE svg PUBLIC "-//W3C//DTD SVG 1.1//EN" "http://www.w3.org/Graphics/SVG/1.1/DTD/svg11.dtd">
<svg version="1.1" xmlns="http://www.w3.org/2000/svg" xmlns:xlink="http://www.w3.org/1999/xlink" width="24" height="24" viewBox="0 0 24 24">
<path d="M7.88 3.39l-1.285-1.53-4.595 3.855 1.285 1.53 4.595-3.855zM22 5.72l-4.595-3.855-1.285 1.53 4.595 3.855 1.285-1.53zM11.995 4c-4.975 0-8.995 4.030-8.995 9s4.020 9 8.995 9 9.005-4.030 9.005-9-4.030-9-9.005-9zM12 20c-3.865 0-7-3.135-7-7s3.135-7 7-7 7 3.135 7 7-3.13 7-7 7zM9 11h3.625l-3.625 4.2v1.8h6v-2h-3.625l3.625-4.2v-1.8h-6v2z" fill="#444444"></path>
</svg>
