<?xml version="1.0" encoding="utf-8"?>
<!-- Generated by IcoMoon.io -->
<!DOCTYPE svg PUBLIC "-//W3C//DTD SVG 1.1//EN" "http://www.w3.org/Graphics/SVG/1.1/DTD/svg11.dtd">
<svg version="1.1" xmlns="http://www.w3.org/2000/svg" xmlns:xlink="http://www.w3.org/1999/xlink" width="24" height="24" viewBox="0 0 24 24">
<path d="M2.53 19.655l1.345 0.555v-9.025l-2.425 5.855c-0.42 1.015 0.065 2.19 1.080 2.615zM22.030 15.945l-4.96-11.965c-0.31-0.75-1.040-1.215-1.805-1.23-0.265-0.005-0.535 0.045-0.8 0.15l-7.365 3.050c-0.75 0.31-1.21 1.035-1.23 1.8-0.005 0.27 0.040 0.54 0.15 0.805l4.955 11.965c0.315 0.76 1.050 1.22 1.83 1.23 0.26 0 0.52-0.045 0.775-0.15l7.365-3.050c1.015-0.42 1.505-1.59 1.085-2.605zM7.875 8.75c-0.55 0-1-0.45-1-1s0.45-1 1-1 1 0.45 1 1-0.45 1-1 1zM5.875 19.75c0 1.1 0.9 2 2 2h1.455l-3.455-8.34v6.34z" fill="#444444"></path>
</svg>
