<?xml version="1.0" encoding="utf-8"?>
<!-- Generated by IcoMoon.io -->
<!DOCTYPE svg PUBLIC "-//W3C//DTD SVG 1.1//EN" "http://www.w3.org/Graphics/SVG/1.1/DTD/svg11.dtd">
<svg version="1.1" xmlns="http://www.w3.org/2000/svg" xmlns:xlink="http://www.w3.org/1999/xlink" width="24" height="24" viewBox="0 0 24 24">
<path d="M13.5 13.49c0 0.828-0.672 1.5-1.5 1.5s-1.5-0.672-1.5-1.5c0-0.828 0.672-1.5 1.5-1.5s1.5 0.672 1.5 1.5z" fill="#444444"></path>
<path d="M12 2c-5.52 0-10 4.48-10 10s4.48 10 10 10 10-4.48 10-10-4.48-10-10-10zM12 4.5c1.24 0 2.25 1.010 2.25 2.25s-1.010 2.25-2.25 2.25-2.25-1.010-2.25-2.25 1.010-2.25 2.25-2.25zM17 15.060v2.5c-0.45 0.41-0.96 0.77-1.5 1.050v-0.68c0-0.34-0.17-0.65-0.46-0.92-0.65-0.62-1.89-1.020-3.040-1.020-0.96 0-1.96 0.28-2.65 0.73l-0.17 0.12-0.21 0.17c0.78 0.47 1.63 0.72 2.54 0.82l1.33 0.15c0.37 0.040 0.66 0.36 0.66 0.75 0 0.29-0.16 0.53-0.4 0.66-0.28 0.15-0.64 0.090-0.95 0.090-0.35 0-0.69-0.010-1.030-0.050-0.5-0.060-0.99-0.17-1.46-0.33-0.49-0.16-0.97-0.38-1.42-0.64-0.22-0.13-0.44-0.27-0.65-0.43l-0.31-0.24c-0.040-0.020-0.28-0.18-0.28-0.23v-4.28c0-1.58 2.63-2.78 5-2.78s5 1.2 5 2.78v1.78z" fill="#444444"></path>
</svg>
