<?xml version="1.0" encoding="utf-8"?>
<!-- Generated by IcoMoon.io -->
<!DOCTYPE svg PUBLIC "-//W3C//DTD SVG 1.1//EN" "http://www.w3.org/Graphics/SVG/1.1/DTD/svg11.dtd">
<svg version="1.1" xmlns="http://www.w3.org/2000/svg" xmlns:xlink="http://www.w3.org/1999/xlink" width="24" height="24" viewBox="0 0 24 24">
<path d="M20 4h-16c-1.105 0-2 0.895-2 2v12c0 1.105 0.895 2 2 2h16c1.105 0 2-0.895 2-2v-12c0-1.105-0.895-2-2-2zM7.755 16.245l-1.415 1.415c-1.555-1.565-2.34-3.61-2.34-5.66s0.785-4.095 2.345-5.655l1.415 1.415c-1.17 1.165-1.76 2.705-1.76 4.24s0.585 3.075 1.755 4.245zM12 16c-2.21 0-4-1.79-4-4s1.79-4 4-4 4 1.79 4 4-1.79 4-4 4zM17.655 17.655l-1.415-1.415c1.175-1.165 1.76-2.705 1.76-4.24s-0.59-3.075-1.755-4.245l1.415-1.415c1.555 1.565 2.34 3.61 2.34 5.66s-0.785 4.095-2.345 5.655zM12 10c-1.105 0-2 0.895-2 2s0.895 2 2 2 2-0.895 2-2-0.895-2-2-2z" fill="#444444"></path>
</svg>
