<?xml version="1.0" encoding="utf-8"?>
<!-- Generated by IcoMoon.io -->
<!DOCTYPE svg PUBLIC "-//W3C//DTD SVG 1.1//EN" "http://www.w3.org/Graphics/SVG/1.1/DTD/svg11.dtd">
<svg version="1.1" xmlns="http://www.w3.org/2000/svg" xmlns:xlink="http://www.w3.org/1999/xlink" width="24" height="24" viewBox="0 0 24 24">
<path d="M18 4l-4 4h3v7c0 1.105-0.895 2-2 2s-2-0.895-2-2v-7c0-2.205-1.795-4-4-4s-4 1.795-4 4v7h-3l4 4 4-4h-3v-7c0-1.105 0.895-2 2-2s2 0.895 2 2v7c0 2.205 1.795 4 4 4s4-1.795 4-4v-7h3l-4-4z" fill="#444444"></path>
</svg>
