<?xml version="1.0" encoding="utf-8"?>
<!-- Generated by IcoMoon.io -->
<!DOCTYPE svg PUBLIC "-//W3C//DTD SVG 1.1//EN" "http://www.w3.org/Graphics/SVG/1.1/DTD/svg11.dtd">
<svg version="1.1" xmlns="http://www.w3.org/2000/svg" xmlns:xlink="http://www.w3.org/1999/xlink" width="24" height="24" viewBox="0 0 24 24">
<path d="M3 12c0 2.21 0.91 4.2 2.355 5.645l-2.355 2.355h6v-6l-2.235 2.235c-1.090-1.085-1.765-2.58-1.765-4.235 0-2.61 1.67-4.825 4-5.65v-2.090c-3.45 0.89-6 4.015-6 7.74zM11 17h2v-2h-2v2zM21 4h-6v6l2.235-2.235c1.090 1.085 1.765 2.58 1.765 4.235 0 2.61-1.67 4.825-4 5.65v2.085c3.45-0.885 6-4.010 6-7.735 0-2.21-0.91-4.2-2.355-5.645l2.355-2.355zM11 13h2v-6h-2v6z" fill="#444444"></path>
</svg>
