<?xml version="1.0" encoding="utf-8"?>
<!-- Generated by IcoMoon.io -->
<!DOCTYPE svg PUBLIC "-//W3C//DTD SVG 1.1//EN" "http://www.w3.org/Graphics/SVG/1.1/DTD/svg11.dtd">
<svg version="1.1" xmlns="http://www.w3.org/2000/svg" xmlns:xlink="http://www.w3.org/1999/xlink" width="24" height="24" viewBox="0 0 24 24">
<path d="M12 4v-3l-4 4 4 4v-3c3.315 0 6 2.685 6 6 0 1.015-0.255 1.965-0.695 2.805l1.46 1.46c0.775-1.24 1.235-2.695 1.235-4.265 0-4.42-3.58-8-8-8zM12 18c-3.315 0-6-2.685-6-6 0-1.015 0.255-1.965 0.695-2.805l-1.46-1.46c-0.775 1.24-1.235 2.695-1.235 4.265 0 4.42 3.58 8 8 8v3l4-4-4-4v3z" fill="#444444"></path>
</svg>
