<?xml version="1.0" encoding="utf-8"?>
<!-- Generated by IcoMoon.io -->
<!DOCTYPE svg PUBLIC "-//W3C//DTD SVG 1.1//EN" "http://www.w3.org/Graphics/SVG/1.1/DTD/svg11.dtd">
<svg version="1.1" xmlns="http://www.w3.org/2000/svg" xmlns:xlink="http://www.w3.org/1999/xlink" width="24" height="24" viewBox="0 0 24 24">
<path d="M10 6.35v-2.090c-0.8 0.205-1.545 0.535-2.23 0.96l1.465 1.465c0.245-0.125 0.5-0.245 0.765-0.335zM2.865 5.41l2.355 2.355c-0.77 1.23-1.22 2.675-1.22 4.235 0 2.21 0.905 4.2 2.355 5.645l-2.355 2.355h6v-6l-2.235 2.235c-1.090-1.085-1.765-2.58-1.765-4.235 0-1 0.25-1.94 0.685-2.77l8.085 8.085c-0.245 0.13-0.5 0.245-0.765 0.34v2.085c0.8-0.205 1.545-0.535 2.23-0.96l2.36 2.36 1.275-1.275-15.735-15.73-1.27 1.275zM20 4h-6v6l2.235-2.235c1.090 1.085 1.765 2.58 1.765 4.235 0 1-0.25 1.94-0.685 2.77l1.465 1.465c0.77-1.23 1.22-2.675 1.22-4.235 0-2.21-0.905-4.2-2.355-5.645l2.355-2.355z" fill="#444444"></path>
</svg>
