<?xml version="1.0" encoding="utf-8"?>
<!-- Generated by IcoMoon.io -->
<!DOCTYPE svg PUBLIC "-//W3C//DTD SVG 1.1//EN" "http://www.w3.org/Graphics/SVG/1.1/DTD/svg11.dtd">
<svg version="1.1" xmlns="http://www.w3.org/2000/svg" xmlns:xlink="http://www.w3.org/1999/xlink" width="24" height="24" viewBox="0 0 24 24">
<path d="M1 9h2v-2h-2v2zM1 13h2v-2h-2v2zM1 5h2v-2c-1.105 0-2 0.895-2 2zM9 21h2v-2h-2v2zM1 17h2v-2h-2v2zM3 21v-2h-2c0 1.105 0.895 2 2 2zM21 3h-8v6h10v-4c0-1.105-0.895-2-2-2zM21 17h2v-2h-2v2zM9 5h2v-2h-2v2zM5 21h2v-2h-2v2zM5 5h2v-2h-2v2zM21 21c1.105 0 2-0.895 2-2h-2v2zM21 13h2v-2h-2v2zM13 21h2v-2h-2v2zM17 21h2v-2h-2v2z" fill="#444444"></path>
</svg>
