<?xml version="1.0" encoding="utf-8"?>
<!-- Generated by IcoMoon.io -->
<!DOCTYPE svg PUBLIC "-//W3C//DTD SVG 1.1//EN" "http://www.w3.org/Graphics/SVG/1.1/DTD/svg11.dtd">
<svg version="1.1" xmlns="http://www.w3.org/2000/svg" xmlns:xlink="http://www.w3.org/1999/xlink" width="24" height="24" viewBox="0 0 24 24">
<path d="M2 16v2c2.76 0 5 2.24 5 5h2c0-3.865-3.135-7-7-7zM2 20v3h3c0-1.655-1.345-3-3-3zM2 12v2c4.97 0 9 4.030 9 9h2c0-6.075-4.925-11-11-11zM17 1.010l-10-0.010c-1.105 0-2 0.895-2 2v7.37c0.69 0.165 1.36 0.37 2 0.64v-6.010h10v13h-3.030c0.52 1.245 0.84 2.595 0.95 4h2.080c1.105 0 2-0.895 2-2v-17c0-1.105-0.895-1.99-2-1.99z" fill="#444444"></path>
</svg>
