<?xml version="1.0" encoding="utf-8"?>
<!-- Generated by IcoMoon.io -->
<!DOCTYPE svg PUBLIC "-//W3C//DTD SVG 1.1//EN" "http://www.w3.org/Graphics/SVG/1.1/DTD/svg11.dtd">
<svg version="1.1" xmlns="http://www.w3.org/2000/svg" xmlns:xlink="http://www.w3.org/1999/xlink" width="24" height="24" viewBox="0 0 24 24">
<path d="M19.51 3.075l-16.435 16.435c0.090 0.345 0.265 0.655 0.51 0.9l0.005 0.005c0.245 0.245 0.555 0.42 0.9 0.51l16.435-16.435c-0.185-0.69-0.725-1.23-1.415-1.415zM11.88 3l-8.88 8.88v2.83l11.71-11.71h-2.83zM5 3c-1.1 0-2 0.9-2 2v2.005l4.005-4.005h-2.005zM19 21c0.55 0 1.050-0.225 1.41-0.585 0.365-0.365 0.59-0.865 0.59-1.415v-2.005l-4.005 4.005h2.005zM9.29 21h2.83l8.88-8.88v-2.83l-11.71 11.71z" fill="#444444"></path>
</svg>
