<?xml version="1.0" encoding="utf-8"?>
<!-- Generated by IcoMoon.io -->
<!DOCTYPE svg PUBLIC "-//W3C//DTD SVG 1.1//EN" "http://www.w3.org/Graphics/SVG/1.1/DTD/svg11.dtd">
<svg version="1.1" xmlns="http://www.w3.org/2000/svg" xmlns:xlink="http://www.w3.org/1999/xlink" width="24" height="24" viewBox="0 0 24 24">
<path d="M12 6c0-0.55-0.45-1-1-1h-5.185l0.665-3.175c0.015-0.075 0.025-0.155 0.025-0.235 0-0.31-0.125-0.59-0.33-0.795l-0.795-0.795-4.94 4.94c-0.27 0.27-0.44 0.645-0.44 1.060v6.5c0 0.83 0.67 1.5 1.5 1.5h6.75c0.62 0 1.155-0.375 1.38-0.915l2.265-5.29c0.065-0.17 0.105-0.35 0.105-0.545v-1.25zM22.5 10h-6.75c-0.62 0-1.155 0.375-1.38 0.915l-2.265 5.29c-0.065 0.17-0.105 0.35-0.105 0.545v1.25c0 0.55 0.45 1 1 1h5.185l-0.665 3.175c-0.015 0.075-0.025 0.155-0.025 0.235 0 0.31 0.125 0.59 0.33 0.795l0.795 0.795 4.94-4.94c0.27-0.27 0.44-0.645 0.44-1.060v-6.5c0-0.83-0.67-1.5-1.5-1.5z" fill="#444444"></path>
</svg>
