<?xml version="1.0" encoding="utf-8"?>
<!-- Generated by IcoMoon.io -->
<!DOCTYPE svg PUBLIC "-//W3C//DTD SVG 1.1//EN" "http://www.w3.org/Graphics/SVG/1.1/DTD/svg11.dtd">
<svg version="1.1" xmlns="http://www.w3.org/2000/svg" xmlns:xlink="http://www.w3.org/1999/xlink" width="24" height="24" viewBox="0 0 24 24">
<path d="M15 1h-6v2h6v-2zM11 14h2v-6h-2v6zM19.025 7.385l1.425-1.425c-0.43-0.515-0.9-0.985-1.415-1.415l-1.425 1.425c-1.535-1.23-3.49-1.97-5.615-1.97-4.975 0-8.995 4.030-8.995 9s4.020 9 8.995 9 9.005-4.030 9.005-9c0-2.125-0.74-4.075-1.975-5.615zM12 20c-3.865 0-7-3.135-7-7s3.135-7 7-7 7 3.135 7 7-3.135 7-7 7z" fill="#444444"></path>
</svg>
