<?xml version="1.0" encoding="utf-8"?>
<!-- Generated by IcoMoon.io -->
<!DOCTYPE svg PUBLIC "-//W3C//DTD SVG 1.1//EN" "http://www.w3.org/Graphics/SVG/1.1/DTD/svg11.dtd">
<svg version="1.1" xmlns="http://www.w3.org/2000/svg" xmlns:xlink="http://www.w3.org/1999/xlink" width="24" height="24" viewBox="0 0 24 24">
<path d="M19.035 4.55l-1.425 1.425c-1.535-1.235-3.49-1.975-5.615-1.975-1.83 0-3.525 0.55-4.945 1.485l1.455 1.455c1.030-0.595 2.22-0.94 3.495-0.94 3.865 0 7 3.135 7 7 0 1.275-0.345 2.465-0.94 3.495l1.455 1.455c0.935-1.42 1.485-3.12 1.485-4.95 0-2.125-0.74-4.075-1.975-5.615l1.425-1.425-1.415-1.41zM15 1h-6v2h6v-2zM11 9.435l2 2v-3.435h-2v1.435zM3.020 4l-1.275 1.27 2.755 2.755c-0.945 1.425-1.5 3.135-1.5 4.975 0 4.97 4.020 9 8.995 9 1.84 0 3.55-0.555 4.975-1.5l2.5 2.5 1.27-1.275-17.72-17.725zM12 20c-3.865 0-7-3.135-7-7 0-1.285 0.35-2.485 0.955-3.52l9.565 9.565c-1.035 0.605-2.235 0.955-3.52 0.955z" fill="#444444"></path>
</svg>
