<?xml version="1.0" encoding="utf-8"?>
<!-- Generated by IcoMoon.io -->
<!DOCTYPE svg PUBLIC "-//W3C//DTD SVG 1.1//EN" "http://www.w3.org/Graphics/SVG/1.1/DTD/svg11.dtd">
<svg version="1.1" xmlns="http://www.w3.org/2000/svg" xmlns:xlink="http://www.w3.org/1999/xlink" width="24" height="24" viewBox="0 0 24 24">
<path d="M11.61 12.975c-0.16-0.24-0.365-0.46-0.615-0.655-0.255-0.195-0.56-0.35-0.925-0.475 0.305-0.135 0.57-0.305 0.8-0.5 0.23-0.2 0.42-0.41 0.57-0.635s0.265-0.46 0.345-0.705c0.075-0.245 0.115-0.485 0.115-0.725 0-0.555-0.095-1.040-0.275-1.465-0.185-0.42-0.445-0.775-0.78-1.055s-0.735-0.495-1.205-0.64c-0.47-0.145-0.985-0.215-1.55-0.215-0.55 0-1.055 0.080-1.52 0.245s-0.865 0.39-1.2 0.68c-0.335 0.29-0.595 0.635-0.785 1.030s-0.28 0.83-0.28 1.295h1.98c0-0.255 0.045-0.485 0.14-0.69s0.22-0.38 0.385-0.52c0.165-0.145 0.355-0.255 0.58-0.335s0.465-0.12 0.725-0.12c0.61 0 1.060 0.155 1.36 0.47 0.295 0.315 0.445 0.75 0.445 1.315 0 0.27-0.040 0.52-0.12 0.74-0.080 0.225-0.205 0.415-0.375 0.57-0.17 0.16-0.38 0.28-0.63 0.37s-0.545 0.135-0.89 0.135h-1.175v1.565h1.175c0.335 0 0.64 0.040 0.91 0.115s0.5 0.195 0.69 0.355c0.19 0.16 0.335 0.365 0.44 0.61s0.155 0.535 0.155 0.875c0 0.62-0.175 1.095-0.53 1.42s-0.835 0.49-1.45 0.49c-0.295 0-0.56-0.040-0.8-0.125s-0.445-0.205-0.61-0.36c-0.17-0.155-0.3-0.34-0.39-0.56-0.095-0.215-0.14-0.455-0.14-0.72h-1.995c0 0.55 0.105 1.035 0.32 1.45 0.21 0.42 0.495 0.77 0.855 1.050s0.775 0.49 1.245 0.63c0.47 0.14 0.965 0.21 1.48 0.21 0.565 0 1.090-0.080 1.58-0.23 0.485-0.155 0.91-0.38 1.265-0.675s0.635-0.66 0.835-1.095c0.2-0.435 0.3-0.93 0.3-1.485 0-0.295-0.035-0.58-0.11-0.855-0.075-0.28-0.19-0.54-0.345-0.78zM20.875 14.365c-0.145-0.285-0.355-0.53-0.63-0.74s-0.615-0.385-1.010-0.53c-0.4-0.145-0.85-0.27-1.35-0.375-0.35-0.075-0.635-0.15-0.865-0.23-0.23-0.075-0.415-0.16-0.55-0.25s-0.23-0.195-0.285-0.305c-0.055-0.11-0.080-0.24-0.080-0.385s0.030-0.28 0.090-0.415c0.060-0.13 0.15-0.245 0.27-0.345s0.27-0.18 0.455-0.24c0.18-0.060 0.395-0.090 0.64-0.090 0.25 0 0.47 0.035 0.66 0.11 0.19 0.070 0.35 0.17 0.475 0.295 0.13 0.125 0.225 0.265 0.29 0.42 0.065 0.16 0.095 0.32 0.095 0.485h1.95c0-0.39-0.080-0.755-0.235-1.090-0.16-0.335-0.385-0.63-0.685-0.88s-0.665-0.445-1.095-0.585c-0.435-0.145-0.92-0.215-1.465-0.215-0.515 0-0.98 0.070-1.39 0.21-0.415 0.14-0.765 0.335-1.060 0.575-0.29 0.24-0.515 0.52-0.67 0.84s-0.235 0.655-0.235 1.005c0 0.365 0.075 0.685 0.23 0.965 0.15 0.28 0.365 0.52 0.64 0.725s0.6 0.38 0.985 0.525c0.38 0.145 0.805 0.265 1.27 0.36 0.39 0.080 0.705 0.165 0.95 0.255s0.43 0.19 0.565 0.295c0.135 0.105 0.225 0.215 0.27 0.335s0.070 0.25 0.070 0.39c0 0.315-0.135 0.57-0.4 0.765-0.27 0.195-0.66 0.295-1.17 0.295-0.22 0-0.435-0.025-0.64-0.075-0.21-0.050-0.395-0.13-0.56-0.245-0.165-0.11-0.3-0.26-0.41-0.44-0.105-0.18-0.17-0.405-0.185-0.675h-1.895c0 0.36 0.080 0.71 0.235 1.055s0.39 0.655 0.7 0.925c0.31 0.275 0.695 0.495 1.15 0.66 0.455 0.17 0.985 0.255 1.575 0.255 0.53 0 1.010-0.065 1.445-0.19 0.435-0.13 0.805-0.31 1.11-0.54 0.31-0.235 0.545-0.51 0.71-0.83s0.25-0.675 0.25-1.060c0-0.395-0.075-0.73-0.215-1.015z" fill="#444444"></path>
</svg>
