<?xml version="1.0" encoding="utf-8"?>
<!-- Generated by IcoMoon.io -->
<!DOCTYPE svg PUBLIC "-//W3C//DTD SVG 1.1//EN" "http://www.w3.org/Graphics/SVG/1.1/DTD/svg11.dtd">
<svg version="1.1" xmlns="http://www.w3.org/2000/svg" xmlns:xlink="http://www.w3.org/1999/xlink" width="24" height="24" viewBox="0 0 24 24">
<path d="M16.245 7.755c-1.175-1.17-2.71-1.755-4.245-1.755v6l-4.245 4.245c2.345 2.345 6.14 2.345 8.485 0s2.345-6.145 0.005-8.49zM12 2c-5.525 0-10 4.475-10 10s4.475 10 10 10 10-4.48 10-10c0-5.525-4.475-10-10-10zM12 20c-4.42 0-8-3.58-8-8s3.58-8 8-8 8 3.58 8 8-3.58 8-8 8z" fill="#444444"></path>
</svg>
