<?xml version="1.0" encoding="utf-8"?>
<!-- Generated by IcoMoon.io -->
<!DOCTYPE svg PUBLIC "-//W3C//DTD SVG 1.1//EN" "http://www.w3.org/Graphics/SVG/1.1/DTD/svg11.dtd">
<svg version="1.1" xmlns="http://www.w3.org/2000/svg" xmlns:xlink="http://www.w3.org/1999/xlink" width="24" height="24" viewBox="0 0 24 24">
<path d="M0 7.715v1.685l3-1v9.6h2v-12h-0.255l-4.745 1.715zM23.785 14.365c-0.145-0.285-0.355-0.53-0.63-0.74s-0.615-0.385-1.010-0.53c-0.4-0.145-0.85-0.27-1.35-0.375-0.35-0.075-0.635-0.15-0.865-0.23-0.23-0.075-0.415-0.16-0.55-0.25s-0.23-0.195-0.285-0.305c-0.055-0.11-0.080-0.24-0.080-0.385s0.030-0.28 0.090-0.415c0.060-0.13 0.15-0.245 0.27-0.345s0.27-0.18 0.455-0.24c0.18-0.060 0.395-0.090 0.64-0.090 0.25 0 0.47 0.035 0.66 0.11 0.19 0.070 0.35 0.17 0.475 0.295 0.13 0.125 0.225 0.265 0.29 0.42 0.065 0.16 0.095 0.32 0.095 0.485h1.95c0-0.39-0.080-0.755-0.235-1.090s-0.385-0.63-0.685-0.88c-0.3-0.25-0.665-0.445-1.095-0.585-0.435-0.145-0.92-0.215-1.46-0.215-0.515 0-0.98 0.070-1.39 0.21-0.415 0.14-0.765 0.335-1.060 0.575-0.29 0.24-0.515 0.52-0.67 0.84s-0.235 0.655-0.235 1.005c0 0.365 0.075 0.685 0.23 0.965 0.15 0.28 0.365 0.52 0.64 0.725s0.6 0.38 0.985 0.525c0.38 0.145 0.805 0.265 1.27 0.36 0.39 0.080 0.705 0.165 0.95 0.255s0.43 0.19 0.565 0.295c0.135 0.105 0.225 0.215 0.27 0.335s0.070 0.25 0.070 0.39c0 0.315-0.135 0.57-0.4 0.765-0.27 0.195-0.66 0.295-1.17 0.295-0.22 0-0.435-0.025-0.64-0.075-0.21-0.050-0.395-0.13-0.56-0.245-0.165-0.11-0.3-0.26-0.41-0.44-0.105-0.18-0.17-0.405-0.185-0.675h-1.895c0 0.36 0.080 0.71 0.235 1.055s0.39 0.655 0.7 0.925c0.31 0.275 0.695 0.495 1.15 0.66 0.455 0.17 0.985 0.255 1.575 0.255 0.53 0 1.010-0.065 1.445-0.19 0.435-0.13 0.805-0.31 1.11-0.54 0.31-0.235 0.545-0.51 0.71-0.83s0.25-0.675 0.25-1.060c-0.005-0.395-0.075-0.73-0.22-1.015zM13.82 7.045c-0.34-0.405-0.75-0.695-1.225-0.875-0.48-0.18-1.010-0.27-1.6-0.27-0.58 0-1.11 0.090-1.59 0.27s-0.89 0.47-1.225 0.875c-0.34 0.405-0.6 0.935-0.785 1.585-0.185 0.655-0.275 1.45-0.275 2.39v1.915c0 0.94 0.095 1.74 0.28 2.395 0.19 0.655 0.455 1.19 0.795 1.6 0.345 0.41 0.755 0.71 1.23 0.895 0.48 0.185 1.010 0.275 1.59 0.275 0.585 0 1.12-0.095 1.595-0.275 0.475-0.185 0.88-0.48 1.22-0.895 0.335-0.41 0.6-0.945 0.785-1.6s0.275-1.455 0.275-2.395v-1.915c0-0.94-0.095-1.735-0.275-2.39-0.19-0.65-0.455-1.18-0.795-1.585zM12.905 13.225c0 0.6-0.040 1.105-0.12 1.525s-0.205 0.76-0.365 1.020-0.36 0.45-0.59 0.57c-0.235 0.12-0.505 0.18-0.815 0.18-0.305 0-0.575-0.060-0.815-0.18s-0.44-0.31-0.605-0.57c-0.165-0.26-0.29-0.6-0.375-1.020s-0.13-0.925-0.13-1.525v-2.505c0-0.605 0.040-1.11 0.125-1.52s0.21-0.74 0.37-0.995c0.165-0.255 0.365-0.435 0.6-0.545s0.505-0.165 0.81-0.165c0.305 0 0.575 0.055 0.81 0.165s0.435 0.295 0.6 0.545c0.165 0.255 0.285 0.585 0.37 0.995s0.125 0.92 0.125 1.52v2.505z" fill="#444444"></path>
</svg>
