<?xml version="1.0" encoding="utf-8"?>
<!-- Generated by IcoMoon.io -->
<!DOCTYPE svg PUBLIC "-//W3C//DTD SVG 1.1//EN" "http://www.w3.org/Graphics/SVG/1.1/DTD/svg11.dtd">
<svg version="1.1" xmlns="http://www.w3.org/2000/svg" xmlns:xlink="http://www.w3.org/1999/xlink" width="24" height="24" viewBox="0 0 24 24">
<path d="M12 2c-5.525 0-10 4.475-10 10s4.475 10 10 10 10-4.475 10-10-4.475-10-10-10zM11 19.93c-3.945-0.49-7-3.85-7-7.93s3.055-7.44 7-7.93v15.86zM13 4.070c1.030 0.13 2 0.45 2.87 0.93h-2.87v-0.93zM13 7h5.24c0.25 0.315 0.48 0.65 0.68 1h-5.92v-1zM13 10h6.74c0.085 0.325 0.15 0.66 0.195 1h-6.935v-1zM13 19.93v-0.93h2.87c-0.87 0.48-1.84 0.8-2.87 0.93zM18.24 17h-5.24v-1h5.92c-0.2 0.35-0.43 0.685-0.68 1zM19.74 14h-6.74v-1h6.93c-0.040 0.34-0.11 0.675-0.19 1z" fill="#444444"></path>
</svg>
