<?xml version="1.0" encoding="utf-8"?>
<!-- Generated by IcoMoon.io -->
<!DOCTYPE svg PUBLIC "-//W3C//DTD SVG 1.1//EN" "http://www.w3.org/Graphics/SVG/1.1/DTD/svg11.dtd">
<svg version="1.1" xmlns="http://www.w3.org/2000/svg" xmlns:xlink="http://www.w3.org/1999/xlink" width="24" height="24" viewBox="0 0 24 24">
<path d="M19.070 4.93l-1.415 1.415c1.45 1.445 2.345 3.445 2.345 5.655 0 4.42-3.58 8-8 8s-8-3.58-8-8c0-4.080 3.055-7.44 7-7.93v2.020c-2.835 0.475-5 2.94-5 5.91 0 3.315 2.685 6 6 6s6-2.685 6-6c0-1.655-0.67-3.155-1.755-4.245l-1.415 1.415c0.72 0.725 1.17 1.725 1.17 2.83 0 2.21-1.79 4-4 4s-4-1.79-4-4c0-1.86 1.28-3.415 3-3.86v2.135c-0.595 0.345-1 0.985-1 1.725 0 1.105 0.895 2 2 2s2-0.895 2-2c0-0.74-0.405-1.375-1-1.725v-8.275h-1c-5.525 0-10 4.475-10 10 0 5.52 4.475 10 10 10 5.52 0 10-4.48 10-10 0-2.76-1.12-5.26-2.93-7.070z" fill="#444444"></path>
</svg>
