<?xml version="1.0" encoding="utf-8"?>
<!-- Generated by IcoMoon.io -->
<!DOCTYPE svg PUBLIC "-//W3C//DTD SVG 1.1//EN" "http://www.w3.org/Graphics/SVG/1.1/DTD/svg11.dtd">
<svg version="1.1" xmlns="http://www.w3.org/2000/svg" xmlns:xlink="http://www.w3.org/1999/xlink" width="24" height="24" viewBox="0 0 24 24">
<path d="M20 10h-3v-1.14c1.725-0.445 3-1.995 3-3.86h-3v-1c0-0.55-0.445-1-1-1h-8c-0.55 0-1 0.45-1 1v1h-3c0 1.86 1.28 3.415 3 3.86v1.14h-3c0 1.86 1.28 3.415 3 3.86v1.14h-3c0 1.86 1.28 3.415 3 3.86v1.14c0 0.55 0.45 1 1 1h8c0.555 0 1-0.45 1-1v-1.14c1.725-0.445 3-1.995 3-3.86h-3v-1.14c1.725-0.445 3-2 3-3.86zM12 19c-1.105 0-2-0.895-2-2s0.895-2 2-2 2 0.895 2 2-0.895 2-2 2zM12 14c-1.105 0-2-0.895-2-2s0.895-2 2-2 2 0.895 2 2-0.895 2-2 2zM12 9c-1.105 0-2-0.895-2-2s0.895-2 2-2 2 0.895 2 2-0.895 2-2 2z" fill="#444444"></path>
</svg>
