<?xml version="1.0" encoding="utf-8"?>
<!-- Generated by IcoMoon.io -->
<!DOCTYPE svg PUBLIC "-//W3C//DTD SVG 1.1//EN" "http://www.w3.org/Graphics/SVG/1.1/DTD/svg11.dtd">
<svg version="1.1" xmlns="http://www.w3.org/2000/svg" xmlns:xlink="http://www.w3.org/1999/xlink" width="24" height="24" viewBox="0 0 24 24">
<path d="M15 7v4h1v2h-3v-8h2l-3-4-3 4h2v8h-3v-2.070c0.705-0.365 1.2-1.080 1.2-1.93 0-1.215-0.985-2.2-2.2-2.2s-2.2 0.985-2.2 2.2c0 0.85 0.495 1.565 1.2 1.93v2.070c0 1.105 0.895 2 2 2h3v3.050c-0.71 0.365-1.2 1.095-1.2 1.95 0 1.215 0.985 2.2 2.2 2.2s2.2-0.985 2.2-2.2c0-0.855-0.49-1.585-1.2-1.95v-3.050h3c1.105 0 2-0.895 2-2v-2h1v-4h-4z" fill="#444444"></path>
</svg>
