<?xml version="1.0" encoding="utf-8"?>
<!-- Generated by IcoMoon.io -->
<!DOCTYPE svg PUBLIC "-//W3C//DTD SVG 1.1//EN" "http://www.w3.org/Graphics/SVG/1.1/DTD/svg11.dtd">
<svg version="1.1" xmlns="http://www.w3.org/2000/svg" xmlns:xlink="http://www.w3.org/1999/xlink" width="24" height="24" viewBox="0 0 24 24">
<path d="M0 15h2v-6h-2v6zM3 17h2v-10h-2v10zM22 9v6h2v-6h-2zM19 17h2v-10h-2v10zM16.5 3h-9c-0.83 0-1.5 0.67-1.5 1.5v15c0 0.83 0.67 1.5 1.5 1.5h9c0.83 0 1.5-0.67 1.5-1.5v-15c0-0.83-0.67-1.5-1.5-1.5zM16 19h-8v-14h8v14z" fill="#444444"></path>
</svg>
