<?xml version="1.0" encoding="utf-8"?>
<!-- Generated by IcoMoon.io -->
<!DOCTYPE svg PUBLIC "-//W3C//DTD SVG 1.1//EN" "http://www.w3.org/Graphics/SVG/1.1/DTD/svg11.dtd">
<svg version="1.1" xmlns="http://www.w3.org/2000/svg" xmlns:xlink="http://www.w3.org/1999/xlink" width="24" height="24" viewBox="0 0 24 24">
<path d="M12 7c2.76 0 5 2.24 5 5 0 0.645-0.13 1.26-0.355 1.825l2.925 2.925c1.51-1.26 2.7-2.89 3.435-4.75-1.735-4.39-6-7.5-11.005-7.5-1.4 0-2.74 0.25-3.985 0.7l2.16 2.155c0.565-0.22 1.18-0.355 1.825-0.355zM2 4.275l2.735 2.735c-1.65 1.29-2.955 3.005-3.735 4.99 1.73 4.39 6 7.5 11 7.5 1.55 0 3.030-0.3 4.385-0.845l0.425 0.425 2.915 2.92 1.275-1.27-17.725-17.73-1.275 1.275zM7.53 9.8l1.545 1.545c-0.045 0.215-0.075 0.43-0.075 0.655 0 1.655 1.345 3 3 3 0.225 0 0.44-0.030 0.65-0.075l1.545 1.545c-0.665 0.33-1.405 0.53-2.195 0.53-2.76 0-5-2.24-5-5 0-0.79 0.2-1.53 0.53-2.2zM11.835 9.015l3.15 3.15 0.015-0.165c0-1.655-1.345-3-3-3l-0.165 0.015z" fill="#444444"></path>
</svg>
