<?xml version="1.0" encoding="utf-8"?>
<!-- Generated by IcoMoon.io -->
<!DOCTYPE svg PUBLIC "-//W3C//DTD SVG 1.1//EN" "http://www.w3.org/Graphics/SVG/1.1/DTD/svg11.dtd">
<svg version="1.1" xmlns="http://www.w3.org/2000/svg" xmlns:xlink="http://www.w3.org/1999/xlink" width="24" height="24" viewBox="0 0 24 24">
<path d="M18.5 6c-3.040 0-5.5 2.46-5.5 5.5 0 1.33 0.47 2.55 1.255 3.5h-4.515c0.785-0.95 1.255-2.17 1.255-3.5 0-3.040-2.46-5.5-5.5-5.5s-5.495 2.46-5.495 5.5 2.46 5.5 5.5 5.5h13c3.040 0 5.5-2.46 5.5-5.5s-2.46-5.5-5.5-5.5zM5.5 15c-1.935 0-3.5-1.565-3.5-3.5s1.565-3.5 3.5-3.5 3.5 1.565 3.5 3.5-1.565 3.5-3.5 3.5zM18.5 15c-1.935 0-3.5-1.565-3.5-3.5s1.565-3.5 3.5-3.5 3.5 1.565 3.5 3.5-1.565 3.5-3.5 3.5z" fill="#444444"></path>
</svg>
