<?xml version="1.0" encoding="utf-8"?>
<!-- Generated by IcoMoon.io -->
<!DOCTYPE svg PUBLIC "-//W3C//DTD SVG 1.1//EN" "http://www.w3.org/Graphics/SVG/1.1/DTD/svg11.dtd">
<svg version="1.1" xmlns="http://www.w3.org/2000/svg" xmlns:xlink="http://www.w3.org/1999/xlink" width="24" height="24" viewBox="0 0 24 24">
<path d="M16.5 12c0-1.765-1.020-3.29-2.5-4.025v2.21l2.455 2.455c0.030-0.21 0.045-0.425 0.045-0.64zM19 12c0 0.94-0.205 1.825-0.54 2.64l1.515 1.515c0.65-1.245 1.025-2.655 1.025-4.155 0-4.28-2.995-7.86-7-8.77v2.065c2.89 0.86 5 3.535 5 6.705zM4.275 3l-1.275 1.275 4.725 4.725h-4.725v6h4l5 5v-6.725l4.255 4.255c-0.67 0.515-1.425 0.93-2.255 1.18v2.065c1.375-0.315 2.63-0.945 3.685-1.81l2.040 2.035 1.275-1.275-16.725-16.725zM12 4l-2.090 2.090 2.090 2.090v-4.18z" fill="#444444"></path>
</svg>
