<?xml version="1.0" encoding="utf-8"?>
<!-- Generated by IcoMoon.io -->
<!DOCTYPE svg PUBLIC "-//W3C//DTD SVG 1.1//EN" "http://www.w3.org/Graphics/SVG/1.1/DTD/svg11.dtd">
<svg version="1.1" xmlns="http://www.w3.org/2000/svg" xmlns:xlink="http://www.w3.org/1999/xlink" width="24" height="24" viewBox="0 0 24 24">
<path d="M22 4v-0.5c0-1.38-1.12-2.5-2.5-2.5s-2.5 1.12-2.5 2.5v0.5c-0.555 0-1 0.45-1 1v4c0 0.55 0.445 1 1 1h5c0.555 0 1-0.45 1-1v-4c0-0.55-0.445-1-1-1zM21.2 4h-3.4v-0.5c0-0.94 0.76-1.7 1.7-1.7s1.7 0.76 1.7 1.7v0.5zM18.925 12c0.040 0.33 0.075 0.66 0.075 1 0 2.080-0.8 3.97-2.105 5.395-0.255-0.81-1.005-1.395-1.895-1.395h-1v-3c0-0.55-0.45-1-1-1h-6v-2h2c0.55 0 1-0.45 1-1v-2h2c1.105 0 2-0.895 2-2v-2.54c-0.945-0.3-1.955-0.46-3-0.46-5.525 0-10 4.475-10 10s4.475 10 10 10 10-4.475 10-10c0-0.34-0.020-0.67-0.050-1h-2.025zM10 20.93c-3.945-0.49-7-3.85-7-7.93 0-0.615 0.075-1.215 0.21-1.79l4.79 4.79v1c0 1.105 0.895 2 2 2v1.93z" fill="#444444"></path>
</svg>
