<?xml version="1.0" encoding="utf-8"?>
<!-- Generated by IcoMoon.io -->
<!DOCTYPE svg PUBLIC "-//W3C//DTD SVG 1.1//EN" "http://www.w3.org/Graphics/SVG/1.1/DTD/svg11.dtd">
<svg version="1.1" xmlns="http://www.w3.org/2000/svg" xmlns:xlink="http://www.w3.org/1999/xlink" width="24" height="24" viewBox="0 0 24 24">
<path d="M20 6h-2.185c0.11-0.315 0.185-0.65 0.185-1 0-1.655-1.345-3-3-3-1.045 0-1.965 0.535-2.5 1.345l-0.5 0.68-0.5-0.68c-0.535-0.81-1.455-1.345-2.5-1.345-1.655 0-3 1.345-3 3 0 0.35 0.070 0.685 0.185 1h-2.185c-1.105 0-1.99 0.895-1.99 2l-0.010 11c0 1.105 0.895 2 2 2h16c1.105 0 2-0.895 2-2v-11c0-1.105-0.895-2-2-2zM15 4c0.55 0 1 0.45 1 1s-0.45 1-1 1-1-0.45-1-1 0.45-1 1-1zM9 4c0.55 0 1 0.45 1 1s-0.45 1-1 1-1-0.45-1-1 0.45-1 1-1zM20 19h-16v-2h16v2zM20 14h-16v-6h5.080l-2.080 2.835 1.625 1.165 3.375-4.595 1 1.36 2.375 3.235 1.625-1.165-2.080-2.835h5.080v6z" fill="#444444"></path>
</svg>
