<?xml version="1.0" encoding="utf-8"?>
<!-- Generated by IcoMoon.io -->
<!DOCTYPE svg PUBLIC "-//W3C//DTD SVG 1.1//EN" "http://www.w3.org/Graphics/SVG/1.1/DTD/svg11.dtd">
<svg version="1.1" xmlns="http://www.w3.org/2000/svg" xmlns:xlink="http://www.w3.org/1999/xlink" width="24" height="24" viewBox="0 0 24 24">
<path d="M20 6h-3v-2c0-1.105-0.895-2-2-2h-6c-1.105 0-2 0.895-2 2v2h-3c-1.105 0-2 0.895-2 2v11c0 1.105 0.895 2 2 2h16c1.105 0 2-0.895 2-2v-11c0-1.105-0.895-2-2-2zM9 4h6v2h-6v-2zM20 19h-16v-2h16v2zM20 14h-16v-6h3v2h2v-2h6v2h2v-2h3v6z" fill="#444444"></path>
</svg>
