<?xml version="1.0" encoding="utf-8"?>
<!-- Generated by IcoMoon.io -->
<!DOCTYPE svg PUBLIC "-//W3C//DTD SVG 1.1//EN" "http://www.w3.org/Graphics/SVG/1.1/DTD/svg11.dtd">
<svg version="1.1" xmlns="http://www.w3.org/2000/svg" xmlns:xlink="http://www.w3.org/1999/xlink" width="24" height="24" viewBox="0 0 24 24">
<path d="M6.85 12.65h2.3l-1.15-3.65-1.15 3.65zM22 7l-1.205 6.29-1.495-6.29h-1.6l-1.49 6.29-1.21-6.29h-0.76c-1.465-1.825-3.715-3-6.24-3-4.42 0-8 3.58-8 8s3.58 8 8 8c3.135 0 5.84-1.805 7.155-4.43l0.095 0.43h1.75l1.5-6.1 1.5 6.1h1.75l2.050-9h-1.8zM10.3 16l-0.7-2h-3.2l-0.7 2h-1.9l3.2-9h2l3.2 9h-1.9z" fill="#444444"></path>
</svg>
