<?xml version="1.0" encoding="utf-8"?>
<!-- Generated by IcoMoon.io -->
<!DOCTYPE svg PUBLIC "-//W3C//DTD SVG 1.1//EN" "http://www.w3.org/Graphics/SVG/1.1/DTD/svg11.dtd">
<svg version="1.1" xmlns="http://www.w3.org/2000/svg" xmlns:xlink="http://www.w3.org/1999/xlink" width="24" height="24" viewBox="0 0 24 24">
<path d="M5 14.5h14v-6h-14v6zM11 0.55v2.95h2v-2.95h-2zM19.035 3.050l-1.795 1.795 1.415 1.415 1.795-1.795-1.415-1.415zM13 22.45v-2.95h-2v2.95h2zM20.45 18.535l-1.795-1.795-1.415 1.415 1.795 1.795 1.415-1.415zM3.55 4.465l1.795 1.795 1.415-1.415-1.795-1.795-1.415 1.415zM4.965 19.95l1.795-1.795-1.415-1.415-1.795 1.795 1.415 1.415z" fill="#444444"></path>
</svg>
