<?xml version="1.0" encoding="utf-8"?>
<!-- Generated by IcoMoon.io -->
<!DOCTYPE svg PUBLIC "-//W3C//DTD SVG 1.1//EN" "http://www.w3.org/Graphics/SVG/1.1/DTD/svg11.dtd">
<svg version="1.1" xmlns="http://www.w3.org/2000/svg" xmlns:xlink="http://www.w3.org/1999/xlink" width="24" height="24" viewBox="0 0 24 24">
<path d="M3.55 18.535l1.415 1.415 1.795-1.795-1.415-1.415-1.795 1.795zM11 22.45h2v-2.95h-2v2.95zM4 10.5h-3v2h3v-2zM15 6.31v-4.81h-6v4.81c-1.79 1.040-3 2.97-3 5.19 0 3.315 2.685 6 6 6s6-2.685 6-6c0-2.22-1.21-4.155-3-5.19zM20 10.5v2h3v-2h-3zM17.245 18.155l1.795 1.795 1.415-1.415-1.795-1.795-1.415 1.415z" fill="#444444"></path>
</svg>
