<?xml version="1.0" encoding="utf-8"?>
<!-- Generated by IcoMoon.io -->
<!DOCTYPE svg PUBLIC "-//W3C//DTD SVG 1.1//EN" "http://www.w3.org/Graphics/SVG/1.1/DTD/svg11.dtd">
<svg version="1.1" xmlns="http://www.w3.org/2000/svg" xmlns:xlink="http://www.w3.org/1999/xlink" width="24" height="24" viewBox="0 0 24 24">
<path d="M6.755 4.845l-1.79-1.795-1.415 1.415 1.795 1.795 1.41-1.415zM4 10.5h-3v2h3v-2zM13 0.55h-2v2.95h2v-2.95zM20.45 4.465l-1.415-1.415-1.795 1.795 1.415 1.415 1.795-1.795zM17.245 18.155l1.795 1.795 1.415-1.415-1.795-1.795-1.415 1.415zM20 10.5v2h3v-2h-3zM12 5.5c-3.315 0-6 2.685-6 6s2.685 6 6 6 6-2.685 6-6-2.685-6-6-6zM11 22.45h2v-2.95h-2v2.95zM3.55 18.535l1.415 1.415 1.795-1.795-1.415-1.415-1.795 1.795z" fill="#444444"></path>
</svg>
