<?xml version="1.0" encoding="utf-8"?>
<!-- Generated by IcoMoon.io -->
<!DOCTYPE svg PUBLIC "-//W3C//DTD SVG 1.1//EN" "http://www.w3.org/Graphics/SVG/1.1/DTD/svg11.dtd">
<svg version="1.1" xmlns="http://www.w3.org/2000/svg" xmlns:xlink="http://www.w3.org/1999/xlink" width="24" height="24" viewBox="0 0 24 24">
<path d="M20.5 9.5c0.28 0 0.545 0.040 0.815 0.080l2.685-3.58c-3.345-2.51-7.5-4-12-4s-8.655 1.49-12 4l12 16 3.5-4.665v-2.835c0-2.76 2.24-5 5-5zM23 16v-1.5c0-1.38-1.12-2.5-2.5-2.5s-2.5 1.12-2.5 2.5v1.5c-0.55 0-1 0.45-1 1v4c0 0.55 0.45 1 1 1h5c0.55 0 1-0.45 1-1v-4c0-0.55-0.45-1-1-1zM22 16h-3v-1.5c0-0.83 0.67-1.5 1.5-1.5s1.5 0.67 1.5 1.5v1.5z" fill="#444444"></path>
</svg>
